<mxfile host="Electron" agent="Mozilla/5.0 (X11; Linux x86_64) AppleWebKit/537.36 (KHTML, like Gecko) draw.io/24.7.5 Chrome/126.0.6478.183 Electron/31.3.0 Safari/537.36" version="24.7.5">
  <diagram id="TnSacr0B_hKUx7RngV9b" name="Page-1">
    <mxGraphModel dx="1542" dy="963" grid="1" gridSize="10" guides="1" tooltips="1" connect="1" arrows="1" fold="1" page="1" pageScale="1" pageWidth="827" pageHeight="1169" math="0" shadow="0">
      <root>
        <mxCell id="0" />
        <mxCell id="1" parent="0" />
        <mxCell id="srdscHzhea0q-TOiqJzr-106" value="" style="ellipse;shape=cloud;whiteSpace=wrap;html=1;strokeWidth=2;fillColor=#d5e8d4;fontSize=16;align=left;strokeColor=none;" parent="1" vertex="1">
          <mxGeometry x="120" y="278" width="510" height="460" as="geometry" />
        </mxCell>
        <mxCell id="srdscHzhea0q-TOiqJzr-13" value="" style="rounded=1;whiteSpace=wrap;html=1;strokeWidth=2;fontSize=14;fillColor=#dae8fc;strokeColor=#6c8ebf;" parent="1" vertex="1">
          <mxGeometry x="290" y="399" width="210" height="90" as="geometry" />
        </mxCell>
        <mxCell id="srdscHzhea0q-TOiqJzr-1" value="&lt;font style=&quot;font-size: 14px&quot;&gt;desktop / Laptop&lt;/font&gt;" style="verticalLabelPosition=top;html=1;verticalAlign=bottom;align=center;shape=mxgraph.azure.laptop;pointerEvents=1;fillColor=#fff2cc;strokeColor=#d6b656;labelPosition=center;" parent="1" vertex="1">
          <mxGeometry x="374.8" y="90" width="50" height="30" as="geometry" />
        </mxCell>
        <mxCell id="srdscHzhea0q-TOiqJzr-8" value="" style="shape=image;aspect=fixed;image=data:image/svg+xml,PD94bWwgdmVyc2lvbj0iMS4wIiBlbmNvZGluZz0iVVRGLTgiIHN0YW5kYWxvbmU9Im5vIj8+CjwhLS0gQ3JlYXRlZCB3aXRoIElua3NjYXBlIChodHRwOi8vd3d3Lmlua3NjYXBlLm9yZy8pIC0tPgo8c3ZnCiAgICB4bWxuczppbmtzY2FwZT0iaHR0cDovL3d3dy5pbmtzY2FwZS5vcmcvbmFtZXNwYWNlcy9pbmtzY2FwZSIKICAgIHhtbG5zOnJkZj0iaHR0cDovL3d3dy53My5vcmcvMTk5OS8wMi8yMi1yZGYtc3ludGF4LW5zIyIKICAgIHhtbG5zPSJodHRwOi8vd3d3LnczLm9yZy8yMDAwL3N2ZyIKICAgIHhtbG5zOmNjPSJodHRwOi8vY3JlYXRpdmVjb21tb25zLm9yZy9ucyMiCiAgICB4bWxuczpkYz0iaHR0cDovL3B1cmwub3JnL2RjL2VsZW1lbnRzLzEuMS8iCiAgICB4bWxuczpzb2RpcG9kaT0iaHR0cDovL3NvZGlwb2RpLnNvdXJjZWZvcmdlLm5ldC9EVEQvc29kaXBvZGktMC5kdGQiCiAgICB4bWxuczpzdmc9Imh0dHA6Ly93d3cudzMub3JnLzIwMDAvc3ZnIgogICAgeG1sbnM6bnMxPSJodHRwOi8vc296aS5iYWllcm91Z2UuZnIiCiAgICB4bWxuczp4bGluaz0iaHR0cDovL3d3dy53My5vcmcvMTk5OS94bGluayIKICAgIGlkPSJzdmc2NzQ2IgogICAgc29kaXBvZGk6ZG9jbmFtZT0iTm91dmVhdSBkb2N1bWVudCAzNyIKICAgIHZpZXdCb3g9IjAgMCAxMDguMzggMTUyLjA5IgogICAgdmVyc2lvbj0iMS4xIgogICAgaW5rc2NhcGU6dmVyc2lvbj0iMC40OC4zLjEgcjk4ODYiCiAgPgogIDxzb2RpcG9kaTpuYW1lZHZpZXcKICAgICAgaWQ9ImJhc2UiCiAgICAgIGJvcmRlcmNvbG9yPSIjNjY2NjY2IgogICAgICBpbmtzY2FwZTpwYWdlc2hhZG93PSIyIgogICAgICBpbmtzY2FwZTp3aW5kb3cteT0iMjQiCiAgICAgIGZpdC1tYXJnaW4tbGVmdD0iMCIKICAgICAgcGFnZWNvbG9yPSIjZmZmZmZmIgogICAgICBmaXQtbWFyZ2luLXRvcD0iMCIKICAgICAgaW5rc2NhcGU6d2luZG93LW1heGltaXplZD0iMCIKICAgICAgaW5rc2NhcGU6em9vbT0iMC4zNSIKICAgICAgaW5rc2NhcGU6d2luZG93LXg9IjQ5IgogICAgICBpbmtzY2FwZTp3aW5kb3ctaGVpZ2h0PSI0MTUiCiAgICAgIHNob3dncmlkPSJmYWxzZSIKICAgICAgYm9yZGVyb3BhY2l0eT0iMS4wIgogICAgICBpbmtzY2FwZTpjdXJyZW50LWxheWVyPSJsYXllcjEiCiAgICAgIGlua3NjYXBlOmN4PSItMTg0LjkwNjI1IgogICAgICBpbmtzY2FwZTpjeT0iMzMuMjAwMzE3IgogICAgICBmaXQtbWFyZ2luLXJpZ2h0PSIwIgogICAgICBmaXQtbWFyZ2luLWJvdHRvbT0iMCIKICAgICAgaW5rc2NhcGU6d2luZG93LXdpZHRoPSI0ODYiCiAgICAgIGlua3NjYXBlOnBhZ2VvcGFjaXR5PSIwLjAiCiAgICAgIGlua3NjYXBlOmRvY3VtZW50LXVuaXRzPSJweCIKICAvPgogIDxnCiAgICAgIGlkPSJsYXllcjEiCiAgICAgIGlua3NjYXBlOmxhYmVsPSJDYWxxdWUgMSIKICAgICAgaW5rc2NhcGU6Z3JvdXBtb2RlPSJsYXllciIKICAgICAgdHJhbnNmb3JtPSJ0cmFuc2xhdGUoLTU1OS45MSAtNDEzLjQ3KSIKICAgID4KICAgIDxwYXRoCiAgICAgICAgaWQ9InBhdGg5NTQiCiAgICAgICAgZD0ibTcxMy42OCA1MDguNjYiCiAgICAgICAgc3R5bGU9InN0cm9rZTojMDAwMDAwO3N0cm9rZS1taXRlcmxpbWl0OjEwO3N0cm9rZS13aWR0aDoxLjI1O2ZpbGw6bm9uZSIKICAgICAgICBpbmtzY2FwZTpjb25uZWN0b3ItY3VydmF0dXJlPSIwIgogICAgLz4KICAgIDxwYXRoCiAgICAgICAgaWQ9InBhdGg5NTYiCiAgICAgICAgZD0ibTU4Ni40IDQzMC4zNCAxNS0xNWg1MGwxNSAxNXYxMjBoLTgweiIKICAgICAgICBzdHlsZT0iZmlsbC1ydWxlOmV2ZW5vZGQ7c3Ryb2tlOiM3ZDdkN2Q7c3Ryb2tlLW1pdGVybGltaXQ6MTA7c3Ryb2tlLXdpZHRoOjMuNzU7ZmlsbDojZTFlMWUxIgogICAgICAgIGlua3NjYXBlOmNvbm5lY3Rvci1jdXJ2YXR1cmU9IjAiCiAgICAvPgogICAgPHBhdGgKICAgICAgICBpZD0icGF0aDk1OCIKICAgICAgICBkPSJtNTkzLjkgNDMyLjg0IDEyLjUtMTIuNWg0MGwxMi41IDEyLjV6IgogICAgICAgIHN0eWxlPSJmaWxsLXJ1bGU6ZXZlbm9kZDtzdHJva2U6IzljOWM5YztzdHJva2UtbWl0ZXJsaW1pdDoxMDtzdHJva2Utd2lkdGg6MS4yNTtmaWxsOiNiZGJkYmQiCiAgICAgICAgaW5rc2NhcGU6Y29ubmVjdG9yLWN1cnZhdHVyZT0iMCIKICAgIC8+CiAgICA8cGF0aAogICAgICAgIGlkPSJwYXRoOTYwIgogICAgICAgIGQ9Im01OTUuMTUgNDM1LjM0aDYyLjVjMC42ODg1IDAgMS4yNSAwLjU1NjYzIDEuMjUgMS4yNXYxMDcuNWMwIDAuNjg4NS0wLjU2MTUgMS4yNS0xLjI1IDEuMjVoLTYyLjVjLTAuNjkzMjUgMC0xLjI1LTAuNTYxNS0xLjI1LTEuMjV2LTEwNy41YzAtMC42OTMzNyAwLjU1Njc1LTEuMjUgMS4yNS0xLjI1IgogICAgICAgIHN0eWxlPSJzdHJva2UtbGluZWpvaW46cm91bmQ7ZmlsbC1ydWxlOmV2ZW5vZGQ7c3Ryb2tlOiM5YzljOWM7c3Ryb2tlLW1pdGVybGltaXQ6MTA7c3Ryb2tlLXdpZHRoOjEuMjU7ZmlsbDojYmRiZGJkIgogICAgICAgIGlua3NjYXBlOmNvbm5lY3Rvci1jdXJ2YXR1cmU9IjAiCiAgICAvPgogICAgPHBhdGgKICAgICAgICBpZD0icGF0aDk2MiIKICAgICAgICBkPSJtNjAwLjE1IDQ0Mi44NGg1Mi41YzAuNjg4NSAwIDEuMjUgMC41NTY2MyAxLjI1IDEuMjV2MTIuNWMwIDAuNjg4NDgtMC41NjE1IDEuMjUtMS4yNSAxLjI1aC01Mi41Yy0wLjY5MzI1IDAtMS4yNS0wLjU2MTUyLTEuMjUtMS4yNXYtMTIuNWMwLTAuNjkzMzcgMC41NTY3NS0xLjI1IDEuMjUtMS4yNSIKICAgICAgICBzdHlsZT0ic3Ryb2tlLWxpbmVqb2luOnJvdW5kO2ZpbGwtcnVsZTpldmVub2RkO3N0cm9rZTojN2Q3ZDdkO3N0cm9rZS1taXRlcmxpbWl0OjEwO3N0cm9rZS13aWR0aDozLjc1O2ZpbGw6IzljOWM5YyIKICAgICAgICBpbmtzY2FwZTpjb25uZWN0b3ItY3VydmF0dXJlPSIwIgogICAgLz4KICAgIDxwYXRoCiAgICAgICAgaWQ9InBhdGg5NjQiCiAgICAgICAgZD0ibTYwMC4xNSA0NjUuMzRoNTIuNWMwLjY4ODUgMCAxLjI1IDAuNTU2NjUgMS4yNSAxLjI1djEyLjVjMCAwLjY4ODQ4LTAuNTYxNSAxLjI1LTEuMjUgMS4yNWgtNTIuNWMtMC42OTMyNSAwLTEuMjUtMC41NjE1Mi0xLjI1LTEuMjV2LTEyLjVjMC0wLjY5MzM3IDAuNTU2NzUtMS4yNSAxLjI1LTEuMjUiCiAgICAgICAgc3R5bGU9InN0cm9rZS1saW5lam9pbjpyb3VuZDtmaWxsLXJ1bGU6ZXZlbm9kZDtzdHJva2U6IzdkN2Q3ZDtzdHJva2UtbWl0ZXJsaW1pdDoxMDtzdHJva2Utd2lkdGg6My43NTtmaWxsOiM5YzljOWMiCiAgICAgICAgaW5rc2NhcGU6Y29ubmVjdG9yLWN1cnZhdHVyZT0iMCIKICAgIC8+CiAgICA8cGF0aAogICAgICAgIGlkPSJwYXRoOTY2IgogICAgICAgIGQ9Im02MjIuNjUgNDkyLjg0aDMwYzAuNjg4NSAwIDEuMjUgMC41NTY2MyAxLjI1IDEuMjV2MTBjMCAwLjY4ODUtMC41NjE1IDEuMjUtMS4yNSAxLjI1aC0zMGMtMC42OTMyNSAwLTEuMjUtMC41NjE1LTEuMjUtMS4yNXYtMTBjMC0wLjY5MzM3IDAuNTU2NzUtMS4yNSAxLjI1LTEuMjUiCiAgICAgICAgc3R5bGU9InN0cm9rZS1saW5lam9pbjpyb3VuZDtmaWxsLXJ1bGU6ZXZlbm9kZDtzdHJva2U6IzdkN2Q3ZDtzdHJva2UtbWl0ZXJsaW1pdDoxMDtzdHJva2Utd2lkdGg6My43NTtmaWxsOiM5YzljOWMiCiAgICAgICAgaW5rc2NhcGU6Y29ubmVjdG9yLWN1cnZhdHVyZT0iMCIKICAgIC8+CiAgICA8cGF0aAogICAgICAgIGlkPSJwYXRoOTY4IgogICAgICAgIGQ9Im02MTMuOSA0OTkuMDljMCA4LjMzNS0xMi41IDguMzM1LTEyLjUgMHMxMi41LTguMzM1IDEyLjUgMCIKICAgICAgICBzdHlsZT0ic3Ryb2tlLWxpbmVqb2luOnJvdW5kO2ZpbGwtcnVsZTpldmVub2RkO3N0cm9rZTojN2Q3ZDdkO3N0cm9rZS1taXRlcmxpbWl0OjEwO3N0cm9rZS13aWR0aDoyLjU7ZmlsbDojYzUxOTAwIgogICAgICAgIGlua3NjYXBlOmNvbm5lY3Rvci1jdXJ2YXR1cmU9IjAiCiAgICAvPgogICAgPHBhdGgKICAgICAgICBpZD0icGF0aDk3MCIKICAgICAgICBkPSJtNjExLjQgNTE2LjY1aDV2MjcuNWgtNXoiCiAgICAgICAgc3R5bGU9ImZpbGwtcnVsZTpldmVub2RkO3N0cm9rZTojN2Q3ZDdkO3N0cm9rZS1taXRlcmxpbWl0OjEwO3N0cm9rZS13aWR0aDoyLjU7ZmlsbDojOWM5YzljIgogICAgICAgIGlua3NjYXBlOmNvbm5lY3Rvci1jdXJ2YXR1cmU9IjAiCiAgICAvPgogICAgPHBhdGgKICAgICAgICBpZD0icGF0aDk3MiIKICAgICAgICBkPSJtNjIxLjQgNTE2LjY1aDV2MjcuNWgtNXoiCiAgICAgICAgc3R5bGU9ImZpbGwtcnVsZTpldmVub2RkO3N0cm9rZTojN2Q3ZDdkO3N0cm9rZS1taXRlcmxpbWl0OjEwO3N0cm9rZS13aWR0aDoyLjU7ZmlsbDojOWM5YzljIgogICAgICAgIGlua3NjYXBlOmNvbm5lY3Rvci1jdXJ2YXR1cmU9IjAiCiAgICAvPgogICAgPHBhdGgKICAgICAgICBpZD0icGF0aDk3NCIKICAgICAgICBkPSJtNjMxLjQgNTE2LjY1aDV2MjcuNWgtNXoiCiAgICAgICAgc3R5bGU9ImZpbGwtcnVsZTpldmVub2RkO3N0cm9rZTojN2Q3ZDdkO3N0cm9rZS1taXRlcmxpbWl0OjEwO3N0cm9rZS13aWR0aDoyLjU7ZmlsbDojOWM5YzljIgogICAgICAgIGlua3NjYXBlOmNvbm5lY3Rvci1jdXJ2YXR1cmU9IjAiCiAgICAvPgogICAgPHBhdGgKICAgICAgICBpZD0icGF0aDk3NiIKICAgICAgICBkPSJtNjQxLjQgNTE2LjY1aDV2MjcuNWgtNXoiCiAgICAgICAgc3R5bGU9ImZpbGwtcnVsZTpldmVub2RkO3N0cm9rZTojN2Q3ZDdkO3N0cm9rZS1taXRlcmxpbWl0OjEwO3N0cm9rZS13aWR0aDoyLjU7ZmlsbDojOWM5YzljIgogICAgICAgIGlua3NjYXBlOmNvbm5lY3Rvci1jdXJ2YXR1cmU9IjAiCiAgICAvPgogICAgPHBhdGgKICAgICAgICBpZD0icGF0aDk3OCIKICAgICAgICBkPSJtNjUxLjQgNTE2LjdoNXYyNy41aC01eiIKICAgICAgICBzdHlsZT0iZmlsbC1ydWxlOmV2ZW5vZGQ7c3Ryb2tlOiM3ZDdkN2Q7c3Ryb2tlLW1pdGVybGltaXQ6MTA7c3Ryb2tlLXdpZHRoOjIuNTtmaWxsOiM5YzljOWMiCiAgICAgICAgaW5rc2NhcGU6Y29ubmVjdG9yLWN1cnZhdHVyZT0iMCIKICAgIC8+CiAgICA8cGF0aAogICAgICAgIGlkPSJwYXRoOTgwIgogICAgICAgIGQ9Im01NjkuNjUgNTM1LjQyIDIuNzE5Ny00LjM4NDggNi45OTcxLTEwLjY0LTAuMDUtMTUuODY5IDAuMzkwNzUtMS41MTg2IDAuNzIyNzUtMS4wMzAyIDEuMjc0NS0xLjQ1MDIgMS41MTg1LTEuMzA4NiAxLjIwMTItMC44ODM4IDEuOTgyNS0wLjYwMDU4aDEuNTE4NWwxLjYyNiAwLjAzNDIgMS43MzM1IDAuMzUxNTggMS45MDkyIDAuODQ5NiAxLjY2MDIgMC44NDk2IDEuNDExMiAxLjI3NDQgMS4wOTg4IDEuMzc3IDEuMTMyOCAxLjg3MDEgMC40OTMyNSAxLjk4MjUgMC4xNzUgMi43MjQ2IDAuMjUgNC43MDIyIDAuMDM1IDMuNDI3NyAzLjAwNzggMy45OTQyIDQuNTk0NyA2LjU3NzIgMi42NDY1IDQuOTg1NCAxLjM0NzggMy4yODYxIDAuMzA3NSAzLjExNTItMC4xNDc1IDIuMjAyMi0wLjIzIDIuMTA0NS0wLjgzOTc1IDMuNTE1Ni0wLjg1OTUgMi4zMTkyLTguODc3IDEzLjI5MS02LjM2MjMtMS45MDkyLTEwLjI0OSAwLjAzNS0zLjY0MjYgMi40MDcyLTkuMTU1My0xNC45OS0yLjc1ODgtNC42MzM4LTAuMTQyNS0yLjQzNjUgMC4zNjEyNS0yLjU3ODF6IgogICAgICAgIHN0eWxlPSJmaWxsLXJ1bGU6ZXZlbm9kZDtzdHJva2U6IzAwMDAwMDtzdHJva2UtbWl0ZXJsaW1pdDoxMDtzdHJva2Utd2lkdGg6MS4yNTtmaWxsOiMwMDAwMDAiCiAgICAgICAgaW5rc2NhcGU6Y29ubmVjdG9yLWN1cnZhdHVyZT0iMCIKICAgIC8+CiAgICA8cGF0aAogICAgICAgIGlkPSJwYXRoOTgyIgogICAgICAgIGQ9Im01ODQuOTIgNTExLjI3YzAgNC41NDEtNC40OTIyIDQuNTQxLTQuNDkyMiAwIDAtNC41MzYxIDQuNDkyMi00LjUzNjEgNC40OTIyIDAiCiAgICAgICAgc3R5bGU9ImZpbGwtcnVsZTpldmVub2RkO3N0cm9rZTojZmZmZmZmO3N0cm9rZS1taXRlcmxpbWl0OjEwO3N0cm9rZS13aWR0aDoxLjI1O2ZpbGw6I2ZmZmZmZiIKICAgICAgICBpbmtzY2FwZTpjb25uZWN0b3ItY3VydmF0dXJlPSIwIgogICAgLz4KICAgIDxwYXRoCiAgICAgICAgaWQ9InBhdGg5ODQiCiAgICAgICAgZD0ibTU4MS4xOSA1MjEuNTkgMC40MzQ1LTQuMDMzMiAxMi40MjctMS40ODkyIDAuMjEgMi45NDQzIDEuMzIzMiAyLjUxNDYgMC45MzI1IDIuMDg5OCAxLjc2NzUgMy43NTk4IDAuOTk2IDIuMDUwOCAxLjAwMSAxLjk1MzIgMC42MDU1IDEuOTU4IDAuNjU0MjUgMy4zODg3IDAuMTUyNSAzLjYyNzkgMC4xNTc1IDQuNzg1Mi0xLjc2MjggNS45NDczLTIuOTE1IDIuMzE0NS0xLjYzNTggMS40MDE1LTIuMzc4IDEuNTc3Mi0yLjA4IDEuMDY5Mi0xLjg3IDAuNTAzLTIuMDc1MiAwLjI3ODI1LTEuNzQzMi0wLjA1NzUtMi41MDk4LTAuMTYtMS4zMDg1LTAuNzA4LTEuMDY5Mi0wLjkwMzI1LTEuNzQzMi0yLjEwOTJoMS4yNTk4bDEuMDU0OC0wLjQxMDI1IDAuNTk1NzUtMC42ODg1IDAuMjA1LTEuMDM1Mi0wLjQxMDI1LTEuMTE4Mi01LjE1NjItNC42MDk0LTIuMDMxMi0yLjg5MDYtMC43MTMtMS44MTY1IDAuMDA1LTEuNTQ3OCAwLjY4MzUtMy4wMzIyIDEuMzY3Mi0zLjM1OTQgMS40NjQ4LTMuMzU0NSAxLjUwODgtMy40MjI4IDEuNDk0Mi0yLjg3NnoiCiAgICAgICAgc3R5bGU9ImZpbGwtcnVsZTpldmVub2RkO3N0cm9rZTojZmZmZmZmO3N0cm9rZS1taXRlcmxpbWl0OjEwO3N0cm9rZS13aWR0aDoxLjI1O2ZpbGw6I2ZmZmZmZiIKICAgICAgICBpbmtzY2FwZTpjb25uZWN0b3ItY3VydmF0dXJlPSIwIgogICAgLz4KICAgIDxwYXRoCiAgICAgICAgaWQ9InBhdGg5ODYiCiAgICAgICAgZD0ibTU5NC4wNCA1MTEuNzNjMCA2LjE0NzUtNS45NTIyIDYuMTQ3NS01Ljk1MjIgMCAwLTYuMTQyNiA1Ljk1MjItNi4xNDI2IDUuOTUyMiAwIgogICAgICAgIHN0eWxlPSJmaWxsLXJ1bGU6ZXZlbm9kZDtzdHJva2U6I2ZmZmZmZjtzdHJva2UtbWl0ZXJsaW1pdDoxMDtzdHJva2Utd2lkdGg6MS4yNTtmaWxsOiNmZmZmZmYiCiAgICAgICAgaW5rc2NhcGU6Y29ubmVjdG9yLWN1cnZhdHVyZT0iMCIKICAgIC8+CiAgICA8cGF0aAogICAgICAgIGlkPSJwYXRoOTg4IgogICAgICAgIGQ9Im01OTIuNDMgNTEyLjE2YzAgMi45MTk5LTMuMTM5NiAyLjkxOTktMy4xMzk2IDAgMC0yLjkyNDggMy4xMzk2LTIuOTI0OCAzLjEzOTYgMCIKICAgICAgICBzdHlsZT0iZmlsbC1ydWxlOmV2ZW5vZGQ7c3Ryb2tlOiMwMDAwMDA7c3Ryb2tlLW1pdGVybGltaXQ6MTA7c3Ryb2tlLXdpZHRoOjEuMjU7ZmlsbDojMDAwMDAwIgogICAgICAgIGlua3NjYXBlOmNvbm5lY3Rvci1jdXJ2YXR1cmU9IjAiCiAgICAvPgogICAgPHBhdGgKICAgICAgICBpZD0icGF0aDk5MCIKICAgICAgICBkPSJtNTgwLjU2IDUxNy4yMSAwLjA1NzUtMS4yMDEyIDEuMzk2NS0wLjkwMzI1IDEuNzQ4LTEuNDYgMS4yOTg4LTAuNjQ5NSAxLjAwNi0wLjIzIDEuNDU1IDAuMTMyNSAxLjY1NTIgMC42NDk1IDIuNDMxOCAwLjk3MTc1IDIuOTkzMiAxLjIwNi0wLjcyMjc1IDEuODI2Mi0yLjEzODggMS4zNDI4LTEuODE2NSAxLjIzNTItMS43MTg4IDAuOTcxNzUtMS43ODIyIDAuMzU2NS0wLjc0Ny0wLjA2MjUtMS45MTQtMS4wMDU4LTEuNDIxLTEuMzYyMi0xLjQ5NDItMS4yOTg4eiIKICAgICAgICBzdHlsZT0iZmlsbC1ydWxlOmV2ZW5vZGQ7c3Ryb2tlOiNjYTljMDA7c3Ryb2tlLW1pdGVybGltaXQ6MTA7c3Ryb2tlLXdpZHRoOjEuMjU7ZmlsbDojZmZjMjAwIgogICAgICAgIGlua3NjYXBlOmNvbm5lY3Rvci1jdXJ2YXR1cmU9IjAiCiAgICAvPgogICAgPHBhdGgKICAgICAgICBpZD0icGF0aDk5MiIKICAgICAgICBkPSJtNTgzLjc4IDUxMi4zNGMwIDIuMzg3OC0yLjU2ODQgMi4zODc4LTIuNTY4NCAwIDAtMi4zODI4IDIuNTY4NC0yLjM4MjggMi41Njg0IDAiCiAgICAgICAgc3R5bGU9ImZpbGwtcnVsZTpldmVub2RkO3N0cm9rZTojMDAwMDAwO3N0cm9rZS1taXRlcmxpbWl0OjEwO3N0cm9rZS13aWR0aDoxLjI1O2ZpbGw6IzAwMDAwMCIKICAgICAgICBpbmtzY2FwZTpjb25uZWN0b3ItY3VydmF0dXJlPSIwIgogICAgLz4KICAgIDxwYXRoCiAgICAgICAgaWQ9InBhdGg5OTQiCiAgICAgICAgZD0ibTU4MS41NCA1MTguMzIgMS4xNTcyIDAuNDYzNzUgMS4zMzggMC4zMzcwMSAxLjMyMzIgMC4wODc1IDEuMzQ3OC0wLjE1NSAyLjE1MzItMC43MzcyNSAxLjMzOC0wLjUxNzUgMS4wODg4LTAuNTE3NSAxLjE3MTgtMC43NjY1IgogICAgICAgIHN0eWxlPSJzdHJva2U6I2NhOWMwMDtzdHJva2UtbWl0ZXJsaW1pdDoxMDtzdHJva2Utd2lkdGg6MS4yNTtmaWxsOm5vbmUiCiAgICAgICAgaW5rc2NhcGU6Y29ubmVjdG9yLWN1cnZhdHVyZT0iMCIKICAgIC8+CiAgICA8cGF0aAogICAgICAgIGlkPSJwYXRoOTk2IgogICAgICAgIGQ9Im01NjAuNiA1NTkuNDIgMC4yNDUtMS4wMjUyIDAuNDYzNzUtMS4wNTk1IDAuNTI3MjUtMS4wMjU1IDAuMTQyNS0xLjIwMTItMC4yMS0xLjU1NzUtMC4yODMyNS0xLjc2NzUgMC4wMzUtMi4wODUgMC4xOC0xLjM3NyAwLjcwMy0wLjQ2Mzc1IDEuMDU5NS0wLjI0NSAxLjI0MDIgMC4wMzUgMS41NTI4LTAuMDM1IDEuMjA2LTAuODQ5NSAwLjc3NjUtMS4yNzQ1IDAuNzU2NzUtMS4zNTc1IDAuOTIyNzUtMC40MzQ1aDAuOTg2MjVsMS4wNzkgMC41NTE3NSA0LjgwNDcgNi44MzU5IDIuNTYzNSAzLjg0MjggMi4xODI4IDMuMTU5MiAwLjM4MDc1IDEuNTgyIDAuMDMgMS40OTktMC4yNzM1IDEuMTg2NS0wLjYzNDc1IDAuODEwNS0wLjk1NyAwLjYzOTc1LTEuNDg0MiAwLjQ5MzI1LTEuNzMzNSAwLjAzNS0zLjA3MTMtMC41OTU3NS00LjI0MzItMS40NTAyLTQuODQzOC0xLjM4MTgtMi41NDg4LTAuNDI0NzUtMC44MTA1LTAuMjF6IgogICAgICAgIHN0eWxlPSJmaWxsLXJ1bGU6ZXZlbm9kZDtzdHJva2U6I2NhOWMwMDtzdHJva2UtbWl0ZXJsaW1pdDoxMDtzdHJva2Utd2lkdGg6MS4yNTtmaWxsOiNmZmMyMDAiCiAgICAgICAgaW5rc2NhcGU6Y29ubmVjdG9yLWN1cnZhdHVyZT0iMCIKICAgIC8+CiAgICA8cGF0aAogICAgICAgIGlkPSJwYXRoOTk4IgogICAgICAgIGQ9Im02MDAuMiA1NjQuNzItMS42NDU1LTEuMDAxLTAuOTIyNzUtMS42OTQyLTAuMjM1LTIuNDcwOCAwLjY5ODI1LTIuNTA0OSAwLjQ1OS0yLjIzNjIgMC4yNzM1LTUuMTI3di0zLjUwNTlsMC4zODU3NS0xLjM4NjggMS4wNzktMC4zMTI1IDEuMzg2OCAwLjQ2Mzc0djEuMzkxNWwwLjI2ODUgMC44NDQ3NSAxLjExODIgMC45Mjc3NiAxLjIzNTIgMC41MzcgMS4yNjk1IDAuMjY4NSAxLjM5MTUtMC4xMTI1IDAuOTYyLTAuNDYzNzUgMC45MjI3NS0wLjY5MzI1IDAuNTQyLTEuMDA1OCAwLjMwNzUtMC45MjI3NSAwLjk2Njc1IDAuMDQgMC45MjI3NSAwLjg4Mzc1IDAuMzg1NzUgMi4wMDY4IDAuMTU3NSAxLjE1NzIgMC43MzI1IDEuMDAxIDEuMDQgMS4xNTcyIDEuNTgyIDEuMDQgMS42MjEgMS4yNTUtMC40Njg3NSAxLjE3NjgtMC43MzI1IDEuMTE4Mi0yLjAwMiAxLjM4NjgtMS44MTE1IDAuNjkzMjQtMi40MzE4IDEuMzUyNS0yLjE5NzIgMS43Mjg1LTMuMTk4MiAyLjQzMTgtMi4xMTkyIDAuNzcxNXoiCiAgICAgICAgc3R5bGU9ImZpbGwtcnVsZTpldmVub2RkO3N0cm9rZTojY2E5YzAwO3N0cm9rZS1taXRlcmxpbWl0OjEwO3N0cm9rZS13aWR0aDoxLjI1O2ZpbGw6I2ZmYzIwMCIKICAgICAgICBpbmtzY2FwZTpjb25uZWN0b3ItY3VydmF0dXJlPSIwIgogICAgLz4KICA8L2cKICA+CiAgPG1ldGFkYXRhCiAgICA+CiAgICA8cmRmOlJERgogICAgICA+CiAgICAgIDxjYzpXb3JrCiAgICAgICAgPgogICAgICAgIDxkYzpmb3JtYXQKICAgICAgICAgID5pbWFnZS9zdmcreG1sPC9kYzpmb3JtYXQKICAgICAgICA+CiAgICAgICAgPGRjOnR5cGUKICAgICAgICAgICAgcmRmOnJlc291cmNlPSJodHRwOi8vcHVybC5vcmcvZGMvZGNtaXR5cGUvU3RpbGxJbWFnZSIKICAgICAgICAvPgogICAgICAgIDxjYzpsaWNlbnNlCiAgICAgICAgICAgIHJkZjpyZXNvdXJjZT0iaHR0cDovL2NyZWF0aXZlY29tbW9ucy5vcmcvbGljZW5zZXMvcHVibGljZG9tYWluLyIKICAgICAgICAvPgogICAgICAgIDxkYzpwdWJsaXNoZXIKICAgICAgICAgID4KICAgICAgICAgIDxjYzpBZ2VudAogICAgICAgICAgICAgIHJkZjphYm91dD0iaHR0cDovL29wZW5jbGlwYXJ0Lm9yZy8iCiAgICAgICAgICAgID4KICAgICAgICAgICAgPGRjOnRpdGxlCiAgICAgICAgICAgICAgPk9wZW5jbGlwYXJ0PC9kYzp0aXRsZQogICAgICAgICAgICA+CiAgICAgICAgICA8L2NjOkFnZW50CiAgICAgICAgICA+CiAgICAgICAgPC9kYzpwdWJsaXNoZXIKICAgICAgICA+CiAgICAgICAgPGRjOnRpdGxlCiAgICAgICAgICA+U2VydmVyIC0gbGludXg8L2RjOnRpdGxlCiAgICAgICAgPgogICAgICAgIDxkYzpkYXRlCiAgICAgICAgICA+MjAxMi0wOC0wMlQxNDoyNzozOTwvZGM6ZGF0ZQogICAgICAgID4KICAgICAgICA8ZGM6ZGVzY3JpcHRpb24KICAgICAgICAvPgogICAgICAgIDxkYzpzb3VyY2UKICAgICAgICAgID5odHRwczovL29wZW5jbGlwYXJ0Lm9yZy9kZXRhaWwvMTcxNDIyL3NlcnZlci0tLWxpbnV4LWJ5LWN5YmVyc2Nvb3R5LTE3MTQyMjwvZGM6c291cmNlCiAgICAgICAgPgogICAgICAgIDxkYzpjcmVhdG9yCiAgICAgICAgICA+CiAgICAgICAgICA8Y2M6QWdlbnQKICAgICAgICAgICAgPgogICAgICAgICAgICA8ZGM6dGl0bGUKICAgICAgICAgICAgICA+Y3liZXJzY29vdHk8L2RjOnRpdGxlCiAgICAgICAgICAgID4KICAgICAgICAgIDwvY2M6QWdlbnQKICAgICAgICAgID4KICAgICAgICA8L2RjOmNyZWF0b3IKICAgICAgICA+CiAgICAgICAgPGRjOnN1YmplY3QKICAgICAgICAgID4KICAgICAgICAgIDxyZGY6QmFnCiAgICAgICAgICAgID4KICAgICAgICAgICAgPHJkZjpsaQogICAgICAgICAgICAgID5jb21wdXRlcjwvcmRmOmxpCiAgICAgICAgICAgID4KICAgICAgICAgICAgPHJkZjpsaQogICAgICAgICAgICAgID5pbmZvcm1hdGlxdWU8L3JkZjpsaQogICAgICAgICAgICA+CiAgICAgICAgICAgIDxyZGY6bGkKICAgICAgICAgICAgICA+aXQ8L3JkZjpsaQogICAgICAgICAgICA+CiAgICAgICAgICAgIDxyZGY6bGkKICAgICAgICAgICAgICA+bGludXg8L3JkZjpsaQogICAgICAgICAgICA+CiAgICAgICAgICAgIDxyZGY6bGkKICAgICAgICAgICAgICA+b3JkaW5hdGV1cjwvcmRmOmxpCiAgICAgICAgICAgID4KICAgICAgICAgICAgPHJkZjpsaQogICAgICAgICAgICAgID5zZXJ2ZXI8L3JkZjpsaQogICAgICAgICAgICA+CiAgICAgICAgICAgIDxyZGY6bGkKICAgICAgICAgICAgICA+c2VydmV1cjwvcmRmOmxpCiAgICAgICAgICAgID4KICAgICAgICAgICAgPHJkZjpsaQogICAgICAgICAgICAgID50dXg8L3JkZjpsaQogICAgICAgICAgICA+CiAgICAgICAgICA8L3JkZjpCYWcKICAgICAgICAgID4KICAgICAgICA8L2RjOnN1YmplY3QKICAgICAgICA+CiAgICAgIDwvY2M6V29yawogICAgICA+CiAgICAgIDxjYzpMaWNlbnNlCiAgICAgICAgICByZGY6YWJvdXQ9Imh0dHA6Ly9jcmVhdGl2ZWNvbW1vbnMub3JnL2xpY2Vuc2VzL3B1YmxpY2RvbWFpbi8iCiAgICAgICAgPgogICAgICAgIDxjYzpwZXJtaXRzCiAgICAgICAgICAgIHJkZjpyZXNvdXJjZT0iaHR0cDovL2NyZWF0aXZlY29tbW9ucy5vcmcvbnMjUmVwcm9kdWN0aW9uIgogICAgICAgIC8+CiAgICAgICAgPGNjOnBlcm1pdHMKICAgICAgICAgICAgcmRmOnJlc291cmNlPSJodHRwOi8vY3JlYXRpdmVjb21tb25zLm9yZy9ucyNEaXN0cmlidXRpb24iCiAgICAgICAgLz4KICAgICAgICA8Y2M6cGVybWl0cwogICAgICAgICAgICByZGY6cmVzb3VyY2U9Imh0dHA6Ly9jcmVhdGl2ZWNvbW1vbnMub3JnL25zI0Rlcml2YXRpdmVXb3JrcyIKICAgICAgICAvPgogICAgICA8L2NjOkxpY2Vuc2UKICAgICAgPgogICAgPC9yZGY6UkRGCiAgICA+CiAgPC9tZXRhZGF0YQogID4KPC9zdmcKPgo=;" parent="1" vertex="1">
          <mxGeometry x="300" y="429" width="35.67" height="50" as="geometry" />
        </mxCell>
        <mxCell id="srdscHzhea0q-TOiqJzr-9" value="" style="shape=image;aspect=fixed;image=data:image/svg+xml,PD94bWwgdmVyc2lvbj0iMS4wIiBlbmNvZGluZz0iVVRGLTgiIHN0YW5kYWxvbmU9Im5vIj8+CjwhLS0gQ3JlYXRlZCB3aXRoIElua3NjYXBlIChodHRwOi8vd3d3Lmlua3NjYXBlLm9yZy8pIC0tPgo8c3ZnCiAgICB4bWxuczppbmtzY2FwZT0iaHR0cDovL3d3dy5pbmtzY2FwZS5vcmcvbmFtZXNwYWNlcy9pbmtzY2FwZSIKICAgIHhtbG5zOnJkZj0iaHR0cDovL3d3dy53My5vcmcvMTk5OS8wMi8yMi1yZGYtc3ludGF4LW5zIyIKICAgIHhtbG5zPSJodHRwOi8vd3d3LnczLm9yZy8yMDAwL3N2ZyIKICAgIHhtbG5zOmNjPSJodHRwOi8vY3JlYXRpdmVjb21tb25zLm9yZy9ucyMiCiAgICB4bWxuczpkYz0iaHR0cDovL3B1cmwub3JnL2RjL2VsZW1lbnRzLzEuMS8iCiAgICB4bWxuczpzb2RpcG9kaT0iaHR0cDovL3NvZGlwb2RpLnNvdXJjZWZvcmdlLm5ldC9EVEQvc29kaXBvZGktMC5kdGQiCiAgICB4bWxuczpzdmc9Imh0dHA6Ly93d3cudzMub3JnLzIwMDAvc3ZnIgogICAgeG1sbnM6bnMxPSJodHRwOi8vc296aS5iYWllcm91Z2UuZnIiCiAgICB4bWxuczp4bGluaz0iaHR0cDovL3d3dy53My5vcmcvMTk5OS94bGluayIKICAgIGlkPSJzdmc2NzQ2IgogICAgc29kaXBvZGk6ZG9jbmFtZT0iTm91dmVhdSBkb2N1bWVudCAzNyIKICAgIHZpZXdCb3g9IjAgMCAxMDguMzggMTUyLjA5IgogICAgdmVyc2lvbj0iMS4xIgogICAgaW5rc2NhcGU6dmVyc2lvbj0iMC40OC4zLjEgcjk4ODYiCiAgPgogIDxzb2RpcG9kaTpuYW1lZHZpZXcKICAgICAgaWQ9ImJhc2UiCiAgICAgIGJvcmRlcmNvbG9yPSIjNjY2NjY2IgogICAgICBpbmtzY2FwZTpwYWdlc2hhZG93PSIyIgogICAgICBpbmtzY2FwZTp3aW5kb3cteT0iMjQiCiAgICAgIGZpdC1tYXJnaW4tbGVmdD0iMCIKICAgICAgcGFnZWNvbG9yPSIjZmZmZmZmIgogICAgICBmaXQtbWFyZ2luLXRvcD0iMCIKICAgICAgaW5rc2NhcGU6d2luZG93LW1heGltaXplZD0iMCIKICAgICAgaW5rc2NhcGU6em9vbT0iMC4zNSIKICAgICAgaW5rc2NhcGU6d2luZG93LXg9IjQ5IgogICAgICBpbmtzY2FwZTp3aW5kb3ctaGVpZ2h0PSI0MTUiCiAgICAgIHNob3dncmlkPSJmYWxzZSIKICAgICAgYm9yZGVyb3BhY2l0eT0iMS4wIgogICAgICBpbmtzY2FwZTpjdXJyZW50LWxheWVyPSJsYXllcjEiCiAgICAgIGlua3NjYXBlOmN4PSItMTg0LjkwNjI1IgogICAgICBpbmtzY2FwZTpjeT0iMzMuMjAwMzE3IgogICAgICBmaXQtbWFyZ2luLXJpZ2h0PSIwIgogICAgICBmaXQtbWFyZ2luLWJvdHRvbT0iMCIKICAgICAgaW5rc2NhcGU6d2luZG93LXdpZHRoPSI0ODYiCiAgICAgIGlua3NjYXBlOnBhZ2VvcGFjaXR5PSIwLjAiCiAgICAgIGlua3NjYXBlOmRvY3VtZW50LXVuaXRzPSJweCIKICAvPgogIDxnCiAgICAgIGlkPSJsYXllcjEiCiAgICAgIGlua3NjYXBlOmxhYmVsPSJDYWxxdWUgMSIKICAgICAgaW5rc2NhcGU6Z3JvdXBtb2RlPSJsYXllciIKICAgICAgdHJhbnNmb3JtPSJ0cmFuc2xhdGUoLTU1OS45MSAtNDEzLjQ3KSIKICAgID4KICAgIDxwYXRoCiAgICAgICAgaWQ9InBhdGg5NTQiCiAgICAgICAgZD0ibTcxMy42OCA1MDguNjYiCiAgICAgICAgc3R5bGU9InN0cm9rZTojMDAwMDAwO3N0cm9rZS1taXRlcmxpbWl0OjEwO3N0cm9rZS13aWR0aDoxLjI1O2ZpbGw6bm9uZSIKICAgICAgICBpbmtzY2FwZTpjb25uZWN0b3ItY3VydmF0dXJlPSIwIgogICAgLz4KICAgIDxwYXRoCiAgICAgICAgaWQ9InBhdGg5NTYiCiAgICAgICAgZD0ibTU4Ni40IDQzMC4zNCAxNS0xNWg1MGwxNSAxNXYxMjBoLTgweiIKICAgICAgICBzdHlsZT0iZmlsbC1ydWxlOmV2ZW5vZGQ7c3Ryb2tlOiM3ZDdkN2Q7c3Ryb2tlLW1pdGVybGltaXQ6MTA7c3Ryb2tlLXdpZHRoOjMuNzU7ZmlsbDojZTFlMWUxIgogICAgICAgIGlua3NjYXBlOmNvbm5lY3Rvci1jdXJ2YXR1cmU9IjAiCiAgICAvPgogICAgPHBhdGgKICAgICAgICBpZD0icGF0aDk1OCIKICAgICAgICBkPSJtNTkzLjkgNDMyLjg0IDEyLjUtMTIuNWg0MGwxMi41IDEyLjV6IgogICAgICAgIHN0eWxlPSJmaWxsLXJ1bGU6ZXZlbm9kZDtzdHJva2U6IzljOWM5YztzdHJva2UtbWl0ZXJsaW1pdDoxMDtzdHJva2Utd2lkdGg6MS4yNTtmaWxsOiNiZGJkYmQiCiAgICAgICAgaW5rc2NhcGU6Y29ubmVjdG9yLWN1cnZhdHVyZT0iMCIKICAgIC8+CiAgICA8cGF0aAogICAgICAgIGlkPSJwYXRoOTYwIgogICAgICAgIGQ9Im01OTUuMTUgNDM1LjM0aDYyLjVjMC42ODg1IDAgMS4yNSAwLjU1NjYzIDEuMjUgMS4yNXYxMDcuNWMwIDAuNjg4NS0wLjU2MTUgMS4yNS0xLjI1IDEuMjVoLTYyLjVjLTAuNjkzMjUgMC0xLjI1LTAuNTYxNS0xLjI1LTEuMjV2LTEwNy41YzAtMC42OTMzNyAwLjU1Njc1LTEuMjUgMS4yNS0xLjI1IgogICAgICAgIHN0eWxlPSJzdHJva2UtbGluZWpvaW46cm91bmQ7ZmlsbC1ydWxlOmV2ZW5vZGQ7c3Ryb2tlOiM5YzljOWM7c3Ryb2tlLW1pdGVybGltaXQ6MTA7c3Ryb2tlLXdpZHRoOjEuMjU7ZmlsbDojYmRiZGJkIgogICAgICAgIGlua3NjYXBlOmNvbm5lY3Rvci1jdXJ2YXR1cmU9IjAiCiAgICAvPgogICAgPHBhdGgKICAgICAgICBpZD0icGF0aDk2MiIKICAgICAgICBkPSJtNjAwLjE1IDQ0Mi44NGg1Mi41YzAuNjg4NSAwIDEuMjUgMC41NTY2MyAxLjI1IDEuMjV2MTIuNWMwIDAuNjg4NDgtMC41NjE1IDEuMjUtMS4yNSAxLjI1aC01Mi41Yy0wLjY5MzI1IDAtMS4yNS0wLjU2MTUyLTEuMjUtMS4yNXYtMTIuNWMwLTAuNjkzMzcgMC41NTY3NS0xLjI1IDEuMjUtMS4yNSIKICAgICAgICBzdHlsZT0ic3Ryb2tlLWxpbmVqb2luOnJvdW5kO2ZpbGwtcnVsZTpldmVub2RkO3N0cm9rZTojN2Q3ZDdkO3N0cm9rZS1taXRlcmxpbWl0OjEwO3N0cm9rZS13aWR0aDozLjc1O2ZpbGw6IzljOWM5YyIKICAgICAgICBpbmtzY2FwZTpjb25uZWN0b3ItY3VydmF0dXJlPSIwIgogICAgLz4KICAgIDxwYXRoCiAgICAgICAgaWQ9InBhdGg5NjQiCiAgICAgICAgZD0ibTYwMC4xNSA0NjUuMzRoNTIuNWMwLjY4ODUgMCAxLjI1IDAuNTU2NjUgMS4yNSAxLjI1djEyLjVjMCAwLjY4ODQ4LTAuNTYxNSAxLjI1LTEuMjUgMS4yNWgtNTIuNWMtMC42OTMyNSAwLTEuMjUtMC41NjE1Mi0xLjI1LTEuMjV2LTEyLjVjMC0wLjY5MzM3IDAuNTU2NzUtMS4yNSAxLjI1LTEuMjUiCiAgICAgICAgc3R5bGU9InN0cm9rZS1saW5lam9pbjpyb3VuZDtmaWxsLXJ1bGU6ZXZlbm9kZDtzdHJva2U6IzdkN2Q3ZDtzdHJva2UtbWl0ZXJsaW1pdDoxMDtzdHJva2Utd2lkdGg6My43NTtmaWxsOiM5YzljOWMiCiAgICAgICAgaW5rc2NhcGU6Y29ubmVjdG9yLWN1cnZhdHVyZT0iMCIKICAgIC8+CiAgICA8cGF0aAogICAgICAgIGlkPSJwYXRoOTY2IgogICAgICAgIGQ9Im02MjIuNjUgNDkyLjg0aDMwYzAuNjg4NSAwIDEuMjUgMC41NTY2MyAxLjI1IDEuMjV2MTBjMCAwLjY4ODUtMC41NjE1IDEuMjUtMS4yNSAxLjI1aC0zMGMtMC42OTMyNSAwLTEuMjUtMC41NjE1LTEuMjUtMS4yNXYtMTBjMC0wLjY5MzM3IDAuNTU2NzUtMS4yNSAxLjI1LTEuMjUiCiAgICAgICAgc3R5bGU9InN0cm9rZS1saW5lam9pbjpyb3VuZDtmaWxsLXJ1bGU6ZXZlbm9kZDtzdHJva2U6IzdkN2Q3ZDtzdHJva2UtbWl0ZXJsaW1pdDoxMDtzdHJva2Utd2lkdGg6My43NTtmaWxsOiM5YzljOWMiCiAgICAgICAgaW5rc2NhcGU6Y29ubmVjdG9yLWN1cnZhdHVyZT0iMCIKICAgIC8+CiAgICA8cGF0aAogICAgICAgIGlkPSJwYXRoOTY4IgogICAgICAgIGQ9Im02MTMuOSA0OTkuMDljMCA4LjMzNS0xMi41IDguMzM1LTEyLjUgMHMxMi41LTguMzM1IDEyLjUgMCIKICAgICAgICBzdHlsZT0ic3Ryb2tlLWxpbmVqb2luOnJvdW5kO2ZpbGwtcnVsZTpldmVub2RkO3N0cm9rZTojN2Q3ZDdkO3N0cm9rZS1taXRlcmxpbWl0OjEwO3N0cm9rZS13aWR0aDoyLjU7ZmlsbDojYzUxOTAwIgogICAgICAgIGlua3NjYXBlOmNvbm5lY3Rvci1jdXJ2YXR1cmU9IjAiCiAgICAvPgogICAgPHBhdGgKICAgICAgICBpZD0icGF0aDk3MCIKICAgICAgICBkPSJtNjExLjQgNTE2LjY1aDV2MjcuNWgtNXoiCiAgICAgICAgc3R5bGU9ImZpbGwtcnVsZTpldmVub2RkO3N0cm9rZTojN2Q3ZDdkO3N0cm9rZS1taXRlcmxpbWl0OjEwO3N0cm9rZS13aWR0aDoyLjU7ZmlsbDojOWM5YzljIgogICAgICAgIGlua3NjYXBlOmNvbm5lY3Rvci1jdXJ2YXR1cmU9IjAiCiAgICAvPgogICAgPHBhdGgKICAgICAgICBpZD0icGF0aDk3MiIKICAgICAgICBkPSJtNjIxLjQgNTE2LjY1aDV2MjcuNWgtNXoiCiAgICAgICAgc3R5bGU9ImZpbGwtcnVsZTpldmVub2RkO3N0cm9rZTojN2Q3ZDdkO3N0cm9rZS1taXRlcmxpbWl0OjEwO3N0cm9rZS13aWR0aDoyLjU7ZmlsbDojOWM5YzljIgogICAgICAgIGlua3NjYXBlOmNvbm5lY3Rvci1jdXJ2YXR1cmU9IjAiCiAgICAvPgogICAgPHBhdGgKICAgICAgICBpZD0icGF0aDk3NCIKICAgICAgICBkPSJtNjMxLjQgNTE2LjY1aDV2MjcuNWgtNXoiCiAgICAgICAgc3R5bGU9ImZpbGwtcnVsZTpldmVub2RkO3N0cm9rZTojN2Q3ZDdkO3N0cm9rZS1taXRlcmxpbWl0OjEwO3N0cm9rZS13aWR0aDoyLjU7ZmlsbDojOWM5YzljIgogICAgICAgIGlua3NjYXBlOmNvbm5lY3Rvci1jdXJ2YXR1cmU9IjAiCiAgICAvPgogICAgPHBhdGgKICAgICAgICBpZD0icGF0aDk3NiIKICAgICAgICBkPSJtNjQxLjQgNTE2LjY1aDV2MjcuNWgtNXoiCiAgICAgICAgc3R5bGU9ImZpbGwtcnVsZTpldmVub2RkO3N0cm9rZTojN2Q3ZDdkO3N0cm9rZS1taXRlcmxpbWl0OjEwO3N0cm9rZS13aWR0aDoyLjU7ZmlsbDojOWM5YzljIgogICAgICAgIGlua3NjYXBlOmNvbm5lY3Rvci1jdXJ2YXR1cmU9IjAiCiAgICAvPgogICAgPHBhdGgKICAgICAgICBpZD0icGF0aDk3OCIKICAgICAgICBkPSJtNjUxLjQgNTE2LjdoNXYyNy41aC01eiIKICAgICAgICBzdHlsZT0iZmlsbC1ydWxlOmV2ZW5vZGQ7c3Ryb2tlOiM3ZDdkN2Q7c3Ryb2tlLW1pdGVybGltaXQ6MTA7c3Ryb2tlLXdpZHRoOjIuNTtmaWxsOiM5YzljOWMiCiAgICAgICAgaW5rc2NhcGU6Y29ubmVjdG9yLWN1cnZhdHVyZT0iMCIKICAgIC8+CiAgICA8cGF0aAogICAgICAgIGlkPSJwYXRoOTgwIgogICAgICAgIGQ9Im01NjkuNjUgNTM1LjQyIDIuNzE5Ny00LjM4NDggNi45OTcxLTEwLjY0LTAuMDUtMTUuODY5IDAuMzkwNzUtMS41MTg2IDAuNzIyNzUtMS4wMzAyIDEuMjc0NS0xLjQ1MDIgMS41MTg1LTEuMzA4NiAxLjIwMTItMC44ODM4IDEuOTgyNS0wLjYwMDU4aDEuNTE4NWwxLjYyNiAwLjAzNDIgMS43MzM1IDAuMzUxNTggMS45MDkyIDAuODQ5NiAxLjY2MDIgMC44NDk2IDEuNDExMiAxLjI3NDQgMS4wOTg4IDEuMzc3IDEuMTMyOCAxLjg3MDEgMC40OTMyNSAxLjk4MjUgMC4xNzUgMi43MjQ2IDAuMjUgNC43MDIyIDAuMDM1IDMuNDI3NyAzLjAwNzggMy45OTQyIDQuNTk0NyA2LjU3NzIgMi42NDY1IDQuOTg1NCAxLjM0NzggMy4yODYxIDAuMzA3NSAzLjExNTItMC4xNDc1IDIuMjAyMi0wLjIzIDIuMTA0NS0wLjgzOTc1IDMuNTE1Ni0wLjg1OTUgMi4zMTkyLTguODc3IDEzLjI5MS02LjM2MjMtMS45MDkyLTEwLjI0OSAwLjAzNS0zLjY0MjYgMi40MDcyLTkuMTU1My0xNC45OS0yLjc1ODgtNC42MzM4LTAuMTQyNS0yLjQzNjUgMC4zNjEyNS0yLjU3ODF6IgogICAgICAgIHN0eWxlPSJmaWxsLXJ1bGU6ZXZlbm9kZDtzdHJva2U6IzAwMDAwMDtzdHJva2UtbWl0ZXJsaW1pdDoxMDtzdHJva2Utd2lkdGg6MS4yNTtmaWxsOiMwMDAwMDAiCiAgICAgICAgaW5rc2NhcGU6Y29ubmVjdG9yLWN1cnZhdHVyZT0iMCIKICAgIC8+CiAgICA8cGF0aAogICAgICAgIGlkPSJwYXRoOTgyIgogICAgICAgIGQ9Im01ODQuOTIgNTExLjI3YzAgNC41NDEtNC40OTIyIDQuNTQxLTQuNDkyMiAwIDAtNC41MzYxIDQuNDkyMi00LjUzNjEgNC40OTIyIDAiCiAgICAgICAgc3R5bGU9ImZpbGwtcnVsZTpldmVub2RkO3N0cm9rZTojZmZmZmZmO3N0cm9rZS1taXRlcmxpbWl0OjEwO3N0cm9rZS13aWR0aDoxLjI1O2ZpbGw6I2ZmZmZmZiIKICAgICAgICBpbmtzY2FwZTpjb25uZWN0b3ItY3VydmF0dXJlPSIwIgogICAgLz4KICAgIDxwYXRoCiAgICAgICAgaWQ9InBhdGg5ODQiCiAgICAgICAgZD0ibTU4MS4xOSA1MjEuNTkgMC40MzQ1LTQuMDMzMiAxMi40MjctMS40ODkyIDAuMjEgMi45NDQzIDEuMzIzMiAyLjUxNDYgMC45MzI1IDIuMDg5OCAxLjc2NzUgMy43NTk4IDAuOTk2IDIuMDUwOCAxLjAwMSAxLjk1MzIgMC42MDU1IDEuOTU4IDAuNjU0MjUgMy4zODg3IDAuMTUyNSAzLjYyNzkgMC4xNTc1IDQuNzg1Mi0xLjc2MjggNS45NDczLTIuOTE1IDIuMzE0NS0xLjYzNTggMS40MDE1LTIuMzc4IDEuNTc3Mi0yLjA4IDEuMDY5Mi0xLjg3IDAuNTAzLTIuMDc1MiAwLjI3ODI1LTEuNzQzMi0wLjA1NzUtMi41MDk4LTAuMTYtMS4zMDg1LTAuNzA4LTEuMDY5Mi0wLjkwMzI1LTEuNzQzMi0yLjEwOTJoMS4yNTk4bDEuMDU0OC0wLjQxMDI1IDAuNTk1NzUtMC42ODg1IDAuMjA1LTEuMDM1Mi0wLjQxMDI1LTEuMTE4Mi01LjE1NjItNC42MDk0LTIuMDMxMi0yLjg5MDYtMC43MTMtMS44MTY1IDAuMDA1LTEuNTQ3OCAwLjY4MzUtMy4wMzIyIDEuMzY3Mi0zLjM1OTQgMS40NjQ4LTMuMzU0NSAxLjUwODgtMy40MjI4IDEuNDk0Mi0yLjg3NnoiCiAgICAgICAgc3R5bGU9ImZpbGwtcnVsZTpldmVub2RkO3N0cm9rZTojZmZmZmZmO3N0cm9rZS1taXRlcmxpbWl0OjEwO3N0cm9rZS13aWR0aDoxLjI1O2ZpbGw6I2ZmZmZmZiIKICAgICAgICBpbmtzY2FwZTpjb25uZWN0b3ItY3VydmF0dXJlPSIwIgogICAgLz4KICAgIDxwYXRoCiAgICAgICAgaWQ9InBhdGg5ODYiCiAgICAgICAgZD0ibTU5NC4wNCA1MTEuNzNjMCA2LjE0NzUtNS45NTIyIDYuMTQ3NS01Ljk1MjIgMCAwLTYuMTQyNiA1Ljk1MjItNi4xNDI2IDUuOTUyMiAwIgogICAgICAgIHN0eWxlPSJmaWxsLXJ1bGU6ZXZlbm9kZDtzdHJva2U6I2ZmZmZmZjtzdHJva2UtbWl0ZXJsaW1pdDoxMDtzdHJva2Utd2lkdGg6MS4yNTtmaWxsOiNmZmZmZmYiCiAgICAgICAgaW5rc2NhcGU6Y29ubmVjdG9yLWN1cnZhdHVyZT0iMCIKICAgIC8+CiAgICA8cGF0aAogICAgICAgIGlkPSJwYXRoOTg4IgogICAgICAgIGQ9Im01OTIuNDMgNTEyLjE2YzAgMi45MTk5LTMuMTM5NiAyLjkxOTktMy4xMzk2IDAgMC0yLjkyNDggMy4xMzk2LTIuOTI0OCAzLjEzOTYgMCIKICAgICAgICBzdHlsZT0iZmlsbC1ydWxlOmV2ZW5vZGQ7c3Ryb2tlOiMwMDAwMDA7c3Ryb2tlLW1pdGVybGltaXQ6MTA7c3Ryb2tlLXdpZHRoOjEuMjU7ZmlsbDojMDAwMDAwIgogICAgICAgIGlua3NjYXBlOmNvbm5lY3Rvci1jdXJ2YXR1cmU9IjAiCiAgICAvPgogICAgPHBhdGgKICAgICAgICBpZD0icGF0aDk5MCIKICAgICAgICBkPSJtNTgwLjU2IDUxNy4yMSAwLjA1NzUtMS4yMDEyIDEuMzk2NS0wLjkwMzI1IDEuNzQ4LTEuNDYgMS4yOTg4LTAuNjQ5NSAxLjAwNi0wLjIzIDEuNDU1IDAuMTMyNSAxLjY1NTIgMC42NDk1IDIuNDMxOCAwLjk3MTc1IDIuOTkzMiAxLjIwNi0wLjcyMjc1IDEuODI2Mi0yLjEzODggMS4zNDI4LTEuODE2NSAxLjIzNTItMS43MTg4IDAuOTcxNzUtMS43ODIyIDAuMzU2NS0wLjc0Ny0wLjA2MjUtMS45MTQtMS4wMDU4LTEuNDIxLTEuMzYyMi0xLjQ5NDItMS4yOTg4eiIKICAgICAgICBzdHlsZT0iZmlsbC1ydWxlOmV2ZW5vZGQ7c3Ryb2tlOiNjYTljMDA7c3Ryb2tlLW1pdGVybGltaXQ6MTA7c3Ryb2tlLXdpZHRoOjEuMjU7ZmlsbDojZmZjMjAwIgogICAgICAgIGlua3NjYXBlOmNvbm5lY3Rvci1jdXJ2YXR1cmU9IjAiCiAgICAvPgogICAgPHBhdGgKICAgICAgICBpZD0icGF0aDk5MiIKICAgICAgICBkPSJtNTgzLjc4IDUxMi4zNGMwIDIuMzg3OC0yLjU2ODQgMi4zODc4LTIuNTY4NCAwIDAtMi4zODI4IDIuNTY4NC0yLjM4MjggMi41Njg0IDAiCiAgICAgICAgc3R5bGU9ImZpbGwtcnVsZTpldmVub2RkO3N0cm9rZTojMDAwMDAwO3N0cm9rZS1taXRlcmxpbWl0OjEwO3N0cm9rZS13aWR0aDoxLjI1O2ZpbGw6IzAwMDAwMCIKICAgICAgICBpbmtzY2FwZTpjb25uZWN0b3ItY3VydmF0dXJlPSIwIgogICAgLz4KICAgIDxwYXRoCiAgICAgICAgaWQ9InBhdGg5OTQiCiAgICAgICAgZD0ibTU4MS41NCA1MTguMzIgMS4xNTcyIDAuNDYzNzUgMS4zMzggMC4zMzcwMSAxLjMyMzIgMC4wODc1IDEuMzQ3OC0wLjE1NSAyLjE1MzItMC43MzcyNSAxLjMzOC0wLjUxNzUgMS4wODg4LTAuNTE3NSAxLjE3MTgtMC43NjY1IgogICAgICAgIHN0eWxlPSJzdHJva2U6I2NhOWMwMDtzdHJva2UtbWl0ZXJsaW1pdDoxMDtzdHJva2Utd2lkdGg6MS4yNTtmaWxsOm5vbmUiCiAgICAgICAgaW5rc2NhcGU6Y29ubmVjdG9yLWN1cnZhdHVyZT0iMCIKICAgIC8+CiAgICA8cGF0aAogICAgICAgIGlkPSJwYXRoOTk2IgogICAgICAgIGQ9Im01NjAuNiA1NTkuNDIgMC4yNDUtMS4wMjUyIDAuNDYzNzUtMS4wNTk1IDAuNTI3MjUtMS4wMjU1IDAuMTQyNS0xLjIwMTItMC4yMS0xLjU1NzUtMC4yODMyNS0xLjc2NzUgMC4wMzUtMi4wODUgMC4xOC0xLjM3NyAwLjcwMy0wLjQ2Mzc1IDEuMDU5NS0wLjI0NSAxLjI0MDIgMC4wMzUgMS41NTI4LTAuMDM1IDEuMjA2LTAuODQ5NSAwLjc3NjUtMS4yNzQ1IDAuNzU2NzUtMS4zNTc1IDAuOTIyNzUtMC40MzQ1aDAuOTg2MjVsMS4wNzkgMC41NTE3NSA0LjgwNDcgNi44MzU5IDIuNTYzNSAzLjg0MjggMi4xODI4IDMuMTU5MiAwLjM4MDc1IDEuNTgyIDAuMDMgMS40OTktMC4yNzM1IDEuMTg2NS0wLjYzNDc1IDAuODEwNS0wLjk1NyAwLjYzOTc1LTEuNDg0MiAwLjQ5MzI1LTEuNzMzNSAwLjAzNS0zLjA3MTMtMC41OTU3NS00LjI0MzItMS40NTAyLTQuODQzOC0xLjM4MTgtMi41NDg4LTAuNDI0NzUtMC44MTA1LTAuMjF6IgogICAgICAgIHN0eWxlPSJmaWxsLXJ1bGU6ZXZlbm9kZDtzdHJva2U6I2NhOWMwMDtzdHJva2UtbWl0ZXJsaW1pdDoxMDtzdHJva2Utd2lkdGg6MS4yNTtmaWxsOiNmZmMyMDAiCiAgICAgICAgaW5rc2NhcGU6Y29ubmVjdG9yLWN1cnZhdHVyZT0iMCIKICAgIC8+CiAgICA8cGF0aAogICAgICAgIGlkPSJwYXRoOTk4IgogICAgICAgIGQ9Im02MDAuMiA1NjQuNzItMS42NDU1LTEuMDAxLTAuOTIyNzUtMS42OTQyLTAuMjM1LTIuNDcwOCAwLjY5ODI1LTIuNTA0OSAwLjQ1OS0yLjIzNjIgMC4yNzM1LTUuMTI3di0zLjUwNTlsMC4zODU3NS0xLjM4NjggMS4wNzktMC4zMTI1IDEuMzg2OCAwLjQ2Mzc0djEuMzkxNWwwLjI2ODUgMC44NDQ3NSAxLjExODIgMC45Mjc3NiAxLjIzNTIgMC41MzcgMS4yNjk1IDAuMjY4NSAxLjM5MTUtMC4xMTI1IDAuOTYyLTAuNDYzNzUgMC45MjI3NS0wLjY5MzI1IDAuNTQyLTEuMDA1OCAwLjMwNzUtMC45MjI3NSAwLjk2Njc1IDAuMDQgMC45MjI3NSAwLjg4Mzc1IDAuMzg1NzUgMi4wMDY4IDAuMTU3NSAxLjE1NzIgMC43MzI1IDEuMDAxIDEuMDQgMS4xNTcyIDEuNTgyIDEuMDQgMS42MjEgMS4yNTUtMC40Njg3NSAxLjE3NjgtMC43MzI1IDEuMTE4Mi0yLjAwMiAxLjM4NjgtMS44MTE1IDAuNjkzMjQtMi40MzE4IDEuMzUyNS0yLjE5NzIgMS43Mjg1LTMuMTk4MiAyLjQzMTgtMi4xMTkyIDAuNzcxNXoiCiAgICAgICAgc3R5bGU9ImZpbGwtcnVsZTpldmVub2RkO3N0cm9rZTojY2E5YzAwO3N0cm9rZS1taXRlcmxpbWl0OjEwO3N0cm9rZS13aWR0aDoxLjI1O2ZpbGw6I2ZmYzIwMCIKICAgICAgICBpbmtzY2FwZTpjb25uZWN0b3ItY3VydmF0dXJlPSIwIgogICAgLz4KICA8L2cKICA+CiAgPG1ldGFkYXRhCiAgICA+CiAgICA8cmRmOlJERgogICAgICA+CiAgICAgIDxjYzpXb3JrCiAgICAgICAgPgogICAgICAgIDxkYzpmb3JtYXQKICAgICAgICAgID5pbWFnZS9zdmcreG1sPC9kYzpmb3JtYXQKICAgICAgICA+CiAgICAgICAgPGRjOnR5cGUKICAgICAgICAgICAgcmRmOnJlc291cmNlPSJodHRwOi8vcHVybC5vcmcvZGMvZGNtaXR5cGUvU3RpbGxJbWFnZSIKICAgICAgICAvPgogICAgICAgIDxjYzpsaWNlbnNlCiAgICAgICAgICAgIHJkZjpyZXNvdXJjZT0iaHR0cDovL2NyZWF0aXZlY29tbW9ucy5vcmcvbGljZW5zZXMvcHVibGljZG9tYWluLyIKICAgICAgICAvPgogICAgICAgIDxkYzpwdWJsaXNoZXIKICAgICAgICAgID4KICAgICAgICAgIDxjYzpBZ2VudAogICAgICAgICAgICAgIHJkZjphYm91dD0iaHR0cDovL29wZW5jbGlwYXJ0Lm9yZy8iCiAgICAgICAgICAgID4KICAgICAgICAgICAgPGRjOnRpdGxlCiAgICAgICAgICAgICAgPk9wZW5jbGlwYXJ0PC9kYzp0aXRsZQogICAgICAgICAgICA+CiAgICAgICAgICA8L2NjOkFnZW50CiAgICAgICAgICA+CiAgICAgICAgPC9kYzpwdWJsaXNoZXIKICAgICAgICA+CiAgICAgICAgPGRjOnRpdGxlCiAgICAgICAgICA+U2VydmVyIC0gbGludXg8L2RjOnRpdGxlCiAgICAgICAgPgogICAgICAgIDxkYzpkYXRlCiAgICAgICAgICA+MjAxMi0wOC0wMlQxNDoyNzozOTwvZGM6ZGF0ZQogICAgICAgID4KICAgICAgICA8ZGM6ZGVzY3JpcHRpb24KICAgICAgICAvPgogICAgICAgIDxkYzpzb3VyY2UKICAgICAgICAgID5odHRwczovL29wZW5jbGlwYXJ0Lm9yZy9kZXRhaWwvMTcxNDIyL3NlcnZlci0tLWxpbnV4LWJ5LWN5YmVyc2Nvb3R5LTE3MTQyMjwvZGM6c291cmNlCiAgICAgICAgPgogICAgICAgIDxkYzpjcmVhdG9yCiAgICAgICAgICA+CiAgICAgICAgICA8Y2M6QWdlbnQKICAgICAgICAgICAgPgogICAgICAgICAgICA8ZGM6dGl0bGUKICAgICAgICAgICAgICA+Y3liZXJzY29vdHk8L2RjOnRpdGxlCiAgICAgICAgICAgID4KICAgICAgICAgIDwvY2M6QWdlbnQKICAgICAgICAgID4KICAgICAgICA8L2RjOmNyZWF0b3IKICAgICAgICA+CiAgICAgICAgPGRjOnN1YmplY3QKICAgICAgICAgID4KICAgICAgICAgIDxyZGY6QmFnCiAgICAgICAgICAgID4KICAgICAgICAgICAgPHJkZjpsaQogICAgICAgICAgICAgID5jb21wdXRlcjwvcmRmOmxpCiAgICAgICAgICAgID4KICAgICAgICAgICAgPHJkZjpsaQogICAgICAgICAgICAgID5pbmZvcm1hdGlxdWU8L3JkZjpsaQogICAgICAgICAgICA+CiAgICAgICAgICAgIDxyZGY6bGkKICAgICAgICAgICAgICA+aXQ8L3JkZjpsaQogICAgICAgICAgICA+CiAgICAgICAgICAgIDxyZGY6bGkKICAgICAgICAgICAgICA+bGludXg8L3JkZjpsaQogICAgICAgICAgICA+CiAgICAgICAgICAgIDxyZGY6bGkKICAgICAgICAgICAgICA+b3JkaW5hdGV1cjwvcmRmOmxpCiAgICAgICAgICAgID4KICAgICAgICAgICAgPHJkZjpsaQogICAgICAgICAgICAgID5zZXJ2ZXI8L3JkZjpsaQogICAgICAgICAgICA+CiAgICAgICAgICAgIDxyZGY6bGkKICAgICAgICAgICAgICA+c2VydmV1cjwvcmRmOmxpCiAgICAgICAgICAgID4KICAgICAgICAgICAgPHJkZjpsaQogICAgICAgICAgICAgID50dXg8L3JkZjpsaQogICAgICAgICAgICA+CiAgICAgICAgICA8L3JkZjpCYWcKICAgICAgICAgID4KICAgICAgICA8L2RjOnN1YmplY3QKICAgICAgICA+CiAgICAgIDwvY2M6V29yawogICAgICA+CiAgICAgIDxjYzpMaWNlbnNlCiAgICAgICAgICByZGY6YWJvdXQ9Imh0dHA6Ly9jcmVhdGl2ZWNvbW1vbnMub3JnL2xpY2Vuc2VzL3B1YmxpY2RvbWFpbi8iCiAgICAgICAgPgogICAgICAgIDxjYzpwZXJtaXRzCiAgICAgICAgICAgIHJkZjpyZXNvdXJjZT0iaHR0cDovL2NyZWF0aXZlY29tbW9ucy5vcmcvbnMjUmVwcm9kdWN0aW9uIgogICAgICAgIC8+CiAgICAgICAgPGNjOnBlcm1pdHMKICAgICAgICAgICAgcmRmOnJlc291cmNlPSJodHRwOi8vY3JlYXRpdmVjb21tb25zLm9yZy9ucyNEaXN0cmlidXRpb24iCiAgICAgICAgLz4KICAgICAgICA8Y2M6cGVybWl0cwogICAgICAgICAgICByZGY6cmVzb3VyY2U9Imh0dHA6Ly9jcmVhdGl2ZWNvbW1vbnMub3JnL25zI0Rlcml2YXRpdmVXb3JrcyIKICAgICAgICAvPgogICAgICA8L2NjOkxpY2Vuc2UKICAgICAgPgogICAgPC9yZGY6UkRGCiAgICA+CiAgPC9tZXRhZGF0YQogID4KPC9zdmcKPgo=;" parent="1" vertex="1">
          <mxGeometry x="350" y="429" width="35.67" height="50" as="geometry" />
        </mxCell>
        <mxCell id="srdscHzhea0q-TOiqJzr-10" value="" style="shape=image;aspect=fixed;image=data:image/svg+xml,PD94bWwgdmVyc2lvbj0iMS4wIiBlbmNvZGluZz0iVVRGLTgiIHN0YW5kYWxvbmU9Im5vIj8+CjwhLS0gQ3JlYXRlZCB3aXRoIElua3NjYXBlIChodHRwOi8vd3d3Lmlua3NjYXBlLm9yZy8pIC0tPgo8c3ZnCiAgICB4bWxuczppbmtzY2FwZT0iaHR0cDovL3d3dy5pbmtzY2FwZS5vcmcvbmFtZXNwYWNlcy9pbmtzY2FwZSIKICAgIHhtbG5zOnJkZj0iaHR0cDovL3d3dy53My5vcmcvMTk5OS8wMi8yMi1yZGYtc3ludGF4LW5zIyIKICAgIHhtbG5zPSJodHRwOi8vd3d3LnczLm9yZy8yMDAwL3N2ZyIKICAgIHhtbG5zOmNjPSJodHRwOi8vY3JlYXRpdmVjb21tb25zLm9yZy9ucyMiCiAgICB4bWxuczpkYz0iaHR0cDovL3B1cmwub3JnL2RjL2VsZW1lbnRzLzEuMS8iCiAgICB4bWxuczpzb2RpcG9kaT0iaHR0cDovL3NvZGlwb2RpLnNvdXJjZWZvcmdlLm5ldC9EVEQvc29kaXBvZGktMC5kdGQiCiAgICB4bWxuczpzdmc9Imh0dHA6Ly93d3cudzMub3JnLzIwMDAvc3ZnIgogICAgeG1sbnM6bnMxPSJodHRwOi8vc296aS5iYWllcm91Z2UuZnIiCiAgICB4bWxuczp4bGluaz0iaHR0cDovL3d3dy53My5vcmcvMTk5OS94bGluayIKICAgIGlkPSJzdmc2NzQ2IgogICAgc29kaXBvZGk6ZG9jbmFtZT0iTm91dmVhdSBkb2N1bWVudCAzNyIKICAgIHZpZXdCb3g9IjAgMCAxMDguMzggMTUyLjA5IgogICAgdmVyc2lvbj0iMS4xIgogICAgaW5rc2NhcGU6dmVyc2lvbj0iMC40OC4zLjEgcjk4ODYiCiAgPgogIDxzb2RpcG9kaTpuYW1lZHZpZXcKICAgICAgaWQ9ImJhc2UiCiAgICAgIGJvcmRlcmNvbG9yPSIjNjY2NjY2IgogICAgICBpbmtzY2FwZTpwYWdlc2hhZG93PSIyIgogICAgICBpbmtzY2FwZTp3aW5kb3cteT0iMjQiCiAgICAgIGZpdC1tYXJnaW4tbGVmdD0iMCIKICAgICAgcGFnZWNvbG9yPSIjZmZmZmZmIgogICAgICBmaXQtbWFyZ2luLXRvcD0iMCIKICAgICAgaW5rc2NhcGU6d2luZG93LW1heGltaXplZD0iMCIKICAgICAgaW5rc2NhcGU6em9vbT0iMC4zNSIKICAgICAgaW5rc2NhcGU6d2luZG93LXg9IjQ5IgogICAgICBpbmtzY2FwZTp3aW5kb3ctaGVpZ2h0PSI0MTUiCiAgICAgIHNob3dncmlkPSJmYWxzZSIKICAgICAgYm9yZGVyb3BhY2l0eT0iMS4wIgogICAgICBpbmtzY2FwZTpjdXJyZW50LWxheWVyPSJsYXllcjEiCiAgICAgIGlua3NjYXBlOmN4PSItMTg0LjkwNjI1IgogICAgICBpbmtzY2FwZTpjeT0iMzMuMjAwMzE3IgogICAgICBmaXQtbWFyZ2luLXJpZ2h0PSIwIgogICAgICBmaXQtbWFyZ2luLWJvdHRvbT0iMCIKICAgICAgaW5rc2NhcGU6d2luZG93LXdpZHRoPSI0ODYiCiAgICAgIGlua3NjYXBlOnBhZ2VvcGFjaXR5PSIwLjAiCiAgICAgIGlua3NjYXBlOmRvY3VtZW50LXVuaXRzPSJweCIKICAvPgogIDxnCiAgICAgIGlkPSJsYXllcjEiCiAgICAgIGlua3NjYXBlOmxhYmVsPSJDYWxxdWUgMSIKICAgICAgaW5rc2NhcGU6Z3JvdXBtb2RlPSJsYXllciIKICAgICAgdHJhbnNmb3JtPSJ0cmFuc2xhdGUoLTU1OS45MSAtNDEzLjQ3KSIKICAgID4KICAgIDxwYXRoCiAgICAgICAgaWQ9InBhdGg5NTQiCiAgICAgICAgZD0ibTcxMy42OCA1MDguNjYiCiAgICAgICAgc3R5bGU9InN0cm9rZTojMDAwMDAwO3N0cm9rZS1taXRlcmxpbWl0OjEwO3N0cm9rZS13aWR0aDoxLjI1O2ZpbGw6bm9uZSIKICAgICAgICBpbmtzY2FwZTpjb25uZWN0b3ItY3VydmF0dXJlPSIwIgogICAgLz4KICAgIDxwYXRoCiAgICAgICAgaWQ9InBhdGg5NTYiCiAgICAgICAgZD0ibTU4Ni40IDQzMC4zNCAxNS0xNWg1MGwxNSAxNXYxMjBoLTgweiIKICAgICAgICBzdHlsZT0iZmlsbC1ydWxlOmV2ZW5vZGQ7c3Ryb2tlOiM3ZDdkN2Q7c3Ryb2tlLW1pdGVybGltaXQ6MTA7c3Ryb2tlLXdpZHRoOjMuNzU7ZmlsbDojZTFlMWUxIgogICAgICAgIGlua3NjYXBlOmNvbm5lY3Rvci1jdXJ2YXR1cmU9IjAiCiAgICAvPgogICAgPHBhdGgKICAgICAgICBpZD0icGF0aDk1OCIKICAgICAgICBkPSJtNTkzLjkgNDMyLjg0IDEyLjUtMTIuNWg0MGwxMi41IDEyLjV6IgogICAgICAgIHN0eWxlPSJmaWxsLXJ1bGU6ZXZlbm9kZDtzdHJva2U6IzljOWM5YztzdHJva2UtbWl0ZXJsaW1pdDoxMDtzdHJva2Utd2lkdGg6MS4yNTtmaWxsOiNiZGJkYmQiCiAgICAgICAgaW5rc2NhcGU6Y29ubmVjdG9yLWN1cnZhdHVyZT0iMCIKICAgIC8+CiAgICA8cGF0aAogICAgICAgIGlkPSJwYXRoOTYwIgogICAgICAgIGQ9Im01OTUuMTUgNDM1LjM0aDYyLjVjMC42ODg1IDAgMS4yNSAwLjU1NjYzIDEuMjUgMS4yNXYxMDcuNWMwIDAuNjg4NS0wLjU2MTUgMS4yNS0xLjI1IDEuMjVoLTYyLjVjLTAuNjkzMjUgMC0xLjI1LTAuNTYxNS0xLjI1LTEuMjV2LTEwNy41YzAtMC42OTMzNyAwLjU1Njc1LTEuMjUgMS4yNS0xLjI1IgogICAgICAgIHN0eWxlPSJzdHJva2UtbGluZWpvaW46cm91bmQ7ZmlsbC1ydWxlOmV2ZW5vZGQ7c3Ryb2tlOiM5YzljOWM7c3Ryb2tlLW1pdGVybGltaXQ6MTA7c3Ryb2tlLXdpZHRoOjEuMjU7ZmlsbDojYmRiZGJkIgogICAgICAgIGlua3NjYXBlOmNvbm5lY3Rvci1jdXJ2YXR1cmU9IjAiCiAgICAvPgogICAgPHBhdGgKICAgICAgICBpZD0icGF0aDk2MiIKICAgICAgICBkPSJtNjAwLjE1IDQ0Mi44NGg1Mi41YzAuNjg4NSAwIDEuMjUgMC41NTY2MyAxLjI1IDEuMjV2MTIuNWMwIDAuNjg4NDgtMC41NjE1IDEuMjUtMS4yNSAxLjI1aC01Mi41Yy0wLjY5MzI1IDAtMS4yNS0wLjU2MTUyLTEuMjUtMS4yNXYtMTIuNWMwLTAuNjkzMzcgMC41NTY3NS0xLjI1IDEuMjUtMS4yNSIKICAgICAgICBzdHlsZT0ic3Ryb2tlLWxpbmVqb2luOnJvdW5kO2ZpbGwtcnVsZTpldmVub2RkO3N0cm9rZTojN2Q3ZDdkO3N0cm9rZS1taXRlcmxpbWl0OjEwO3N0cm9rZS13aWR0aDozLjc1O2ZpbGw6IzljOWM5YyIKICAgICAgICBpbmtzY2FwZTpjb25uZWN0b3ItY3VydmF0dXJlPSIwIgogICAgLz4KICAgIDxwYXRoCiAgICAgICAgaWQ9InBhdGg5NjQiCiAgICAgICAgZD0ibTYwMC4xNSA0NjUuMzRoNTIuNWMwLjY4ODUgMCAxLjI1IDAuNTU2NjUgMS4yNSAxLjI1djEyLjVjMCAwLjY4ODQ4LTAuNTYxNSAxLjI1LTEuMjUgMS4yNWgtNTIuNWMtMC42OTMyNSAwLTEuMjUtMC41NjE1Mi0xLjI1LTEuMjV2LTEyLjVjMC0wLjY5MzM3IDAuNTU2NzUtMS4yNSAxLjI1LTEuMjUiCiAgICAgICAgc3R5bGU9InN0cm9rZS1saW5lam9pbjpyb3VuZDtmaWxsLXJ1bGU6ZXZlbm9kZDtzdHJva2U6IzdkN2Q3ZDtzdHJva2UtbWl0ZXJsaW1pdDoxMDtzdHJva2Utd2lkdGg6My43NTtmaWxsOiM5YzljOWMiCiAgICAgICAgaW5rc2NhcGU6Y29ubmVjdG9yLWN1cnZhdHVyZT0iMCIKICAgIC8+CiAgICA8cGF0aAogICAgICAgIGlkPSJwYXRoOTY2IgogICAgICAgIGQ9Im02MjIuNjUgNDkyLjg0aDMwYzAuNjg4NSAwIDEuMjUgMC41NTY2MyAxLjI1IDEuMjV2MTBjMCAwLjY4ODUtMC41NjE1IDEuMjUtMS4yNSAxLjI1aC0zMGMtMC42OTMyNSAwLTEuMjUtMC41NjE1LTEuMjUtMS4yNXYtMTBjMC0wLjY5MzM3IDAuNTU2NzUtMS4yNSAxLjI1LTEuMjUiCiAgICAgICAgc3R5bGU9InN0cm9rZS1saW5lam9pbjpyb3VuZDtmaWxsLXJ1bGU6ZXZlbm9kZDtzdHJva2U6IzdkN2Q3ZDtzdHJva2UtbWl0ZXJsaW1pdDoxMDtzdHJva2Utd2lkdGg6My43NTtmaWxsOiM5YzljOWMiCiAgICAgICAgaW5rc2NhcGU6Y29ubmVjdG9yLWN1cnZhdHVyZT0iMCIKICAgIC8+CiAgICA8cGF0aAogICAgICAgIGlkPSJwYXRoOTY4IgogICAgICAgIGQ9Im02MTMuOSA0OTkuMDljMCA4LjMzNS0xMi41IDguMzM1LTEyLjUgMHMxMi41LTguMzM1IDEyLjUgMCIKICAgICAgICBzdHlsZT0ic3Ryb2tlLWxpbmVqb2luOnJvdW5kO2ZpbGwtcnVsZTpldmVub2RkO3N0cm9rZTojN2Q3ZDdkO3N0cm9rZS1taXRlcmxpbWl0OjEwO3N0cm9rZS13aWR0aDoyLjU7ZmlsbDojYzUxOTAwIgogICAgICAgIGlua3NjYXBlOmNvbm5lY3Rvci1jdXJ2YXR1cmU9IjAiCiAgICAvPgogICAgPHBhdGgKICAgICAgICBpZD0icGF0aDk3MCIKICAgICAgICBkPSJtNjExLjQgNTE2LjY1aDV2MjcuNWgtNXoiCiAgICAgICAgc3R5bGU9ImZpbGwtcnVsZTpldmVub2RkO3N0cm9rZTojN2Q3ZDdkO3N0cm9rZS1taXRlcmxpbWl0OjEwO3N0cm9rZS13aWR0aDoyLjU7ZmlsbDojOWM5YzljIgogICAgICAgIGlua3NjYXBlOmNvbm5lY3Rvci1jdXJ2YXR1cmU9IjAiCiAgICAvPgogICAgPHBhdGgKICAgICAgICBpZD0icGF0aDk3MiIKICAgICAgICBkPSJtNjIxLjQgNTE2LjY1aDV2MjcuNWgtNXoiCiAgICAgICAgc3R5bGU9ImZpbGwtcnVsZTpldmVub2RkO3N0cm9rZTojN2Q3ZDdkO3N0cm9rZS1taXRlcmxpbWl0OjEwO3N0cm9rZS13aWR0aDoyLjU7ZmlsbDojOWM5YzljIgogICAgICAgIGlua3NjYXBlOmNvbm5lY3Rvci1jdXJ2YXR1cmU9IjAiCiAgICAvPgogICAgPHBhdGgKICAgICAgICBpZD0icGF0aDk3NCIKICAgICAgICBkPSJtNjMxLjQgNTE2LjY1aDV2MjcuNWgtNXoiCiAgICAgICAgc3R5bGU9ImZpbGwtcnVsZTpldmVub2RkO3N0cm9rZTojN2Q3ZDdkO3N0cm9rZS1taXRlcmxpbWl0OjEwO3N0cm9rZS13aWR0aDoyLjU7ZmlsbDojOWM5YzljIgogICAgICAgIGlua3NjYXBlOmNvbm5lY3Rvci1jdXJ2YXR1cmU9IjAiCiAgICAvPgogICAgPHBhdGgKICAgICAgICBpZD0icGF0aDk3NiIKICAgICAgICBkPSJtNjQxLjQgNTE2LjY1aDV2MjcuNWgtNXoiCiAgICAgICAgc3R5bGU9ImZpbGwtcnVsZTpldmVub2RkO3N0cm9rZTojN2Q3ZDdkO3N0cm9rZS1taXRlcmxpbWl0OjEwO3N0cm9rZS13aWR0aDoyLjU7ZmlsbDojOWM5YzljIgogICAgICAgIGlua3NjYXBlOmNvbm5lY3Rvci1jdXJ2YXR1cmU9IjAiCiAgICAvPgogICAgPHBhdGgKICAgICAgICBpZD0icGF0aDk3OCIKICAgICAgICBkPSJtNjUxLjQgNTE2LjdoNXYyNy41aC01eiIKICAgICAgICBzdHlsZT0iZmlsbC1ydWxlOmV2ZW5vZGQ7c3Ryb2tlOiM3ZDdkN2Q7c3Ryb2tlLW1pdGVybGltaXQ6MTA7c3Ryb2tlLXdpZHRoOjIuNTtmaWxsOiM5YzljOWMiCiAgICAgICAgaW5rc2NhcGU6Y29ubmVjdG9yLWN1cnZhdHVyZT0iMCIKICAgIC8+CiAgICA8cGF0aAogICAgICAgIGlkPSJwYXRoOTgwIgogICAgICAgIGQ9Im01NjkuNjUgNTM1LjQyIDIuNzE5Ny00LjM4NDggNi45OTcxLTEwLjY0LTAuMDUtMTUuODY5IDAuMzkwNzUtMS41MTg2IDAuNzIyNzUtMS4wMzAyIDEuMjc0NS0xLjQ1MDIgMS41MTg1LTEuMzA4NiAxLjIwMTItMC44ODM4IDEuOTgyNS0wLjYwMDU4aDEuNTE4NWwxLjYyNiAwLjAzNDIgMS43MzM1IDAuMzUxNTggMS45MDkyIDAuODQ5NiAxLjY2MDIgMC44NDk2IDEuNDExMiAxLjI3NDQgMS4wOTg4IDEuMzc3IDEuMTMyOCAxLjg3MDEgMC40OTMyNSAxLjk4MjUgMC4xNzUgMi43MjQ2IDAuMjUgNC43MDIyIDAuMDM1IDMuNDI3NyAzLjAwNzggMy45OTQyIDQuNTk0NyA2LjU3NzIgMi42NDY1IDQuOTg1NCAxLjM0NzggMy4yODYxIDAuMzA3NSAzLjExNTItMC4xNDc1IDIuMjAyMi0wLjIzIDIuMTA0NS0wLjgzOTc1IDMuNTE1Ni0wLjg1OTUgMi4zMTkyLTguODc3IDEzLjI5MS02LjM2MjMtMS45MDkyLTEwLjI0OSAwLjAzNS0zLjY0MjYgMi40MDcyLTkuMTU1My0xNC45OS0yLjc1ODgtNC42MzM4LTAuMTQyNS0yLjQzNjUgMC4zNjEyNS0yLjU3ODF6IgogICAgICAgIHN0eWxlPSJmaWxsLXJ1bGU6ZXZlbm9kZDtzdHJva2U6IzAwMDAwMDtzdHJva2UtbWl0ZXJsaW1pdDoxMDtzdHJva2Utd2lkdGg6MS4yNTtmaWxsOiMwMDAwMDAiCiAgICAgICAgaW5rc2NhcGU6Y29ubmVjdG9yLWN1cnZhdHVyZT0iMCIKICAgIC8+CiAgICA8cGF0aAogICAgICAgIGlkPSJwYXRoOTgyIgogICAgICAgIGQ9Im01ODQuOTIgNTExLjI3YzAgNC41NDEtNC40OTIyIDQuNTQxLTQuNDkyMiAwIDAtNC41MzYxIDQuNDkyMi00LjUzNjEgNC40OTIyIDAiCiAgICAgICAgc3R5bGU9ImZpbGwtcnVsZTpldmVub2RkO3N0cm9rZTojZmZmZmZmO3N0cm9rZS1taXRlcmxpbWl0OjEwO3N0cm9rZS13aWR0aDoxLjI1O2ZpbGw6I2ZmZmZmZiIKICAgICAgICBpbmtzY2FwZTpjb25uZWN0b3ItY3VydmF0dXJlPSIwIgogICAgLz4KICAgIDxwYXRoCiAgICAgICAgaWQ9InBhdGg5ODQiCiAgICAgICAgZD0ibTU4MS4xOSA1MjEuNTkgMC40MzQ1LTQuMDMzMiAxMi40MjctMS40ODkyIDAuMjEgMi45NDQzIDEuMzIzMiAyLjUxNDYgMC45MzI1IDIuMDg5OCAxLjc2NzUgMy43NTk4IDAuOTk2IDIuMDUwOCAxLjAwMSAxLjk1MzIgMC42MDU1IDEuOTU4IDAuNjU0MjUgMy4zODg3IDAuMTUyNSAzLjYyNzkgMC4xNTc1IDQuNzg1Mi0xLjc2MjggNS45NDczLTIuOTE1IDIuMzE0NS0xLjYzNTggMS40MDE1LTIuMzc4IDEuNTc3Mi0yLjA4IDEuMDY5Mi0xLjg3IDAuNTAzLTIuMDc1MiAwLjI3ODI1LTEuNzQzMi0wLjA1NzUtMi41MDk4LTAuMTYtMS4zMDg1LTAuNzA4LTEuMDY5Mi0wLjkwMzI1LTEuNzQzMi0yLjEwOTJoMS4yNTk4bDEuMDU0OC0wLjQxMDI1IDAuNTk1NzUtMC42ODg1IDAuMjA1LTEuMDM1Mi0wLjQxMDI1LTEuMTE4Mi01LjE1NjItNC42MDk0LTIuMDMxMi0yLjg5MDYtMC43MTMtMS44MTY1IDAuMDA1LTEuNTQ3OCAwLjY4MzUtMy4wMzIyIDEuMzY3Mi0zLjM1OTQgMS40NjQ4LTMuMzU0NSAxLjUwODgtMy40MjI4IDEuNDk0Mi0yLjg3NnoiCiAgICAgICAgc3R5bGU9ImZpbGwtcnVsZTpldmVub2RkO3N0cm9rZTojZmZmZmZmO3N0cm9rZS1taXRlcmxpbWl0OjEwO3N0cm9rZS13aWR0aDoxLjI1O2ZpbGw6I2ZmZmZmZiIKICAgICAgICBpbmtzY2FwZTpjb25uZWN0b3ItY3VydmF0dXJlPSIwIgogICAgLz4KICAgIDxwYXRoCiAgICAgICAgaWQ9InBhdGg5ODYiCiAgICAgICAgZD0ibTU5NC4wNCA1MTEuNzNjMCA2LjE0NzUtNS45NTIyIDYuMTQ3NS01Ljk1MjIgMCAwLTYuMTQyNiA1Ljk1MjItNi4xNDI2IDUuOTUyMiAwIgogICAgICAgIHN0eWxlPSJmaWxsLXJ1bGU6ZXZlbm9kZDtzdHJva2U6I2ZmZmZmZjtzdHJva2UtbWl0ZXJsaW1pdDoxMDtzdHJva2Utd2lkdGg6MS4yNTtmaWxsOiNmZmZmZmYiCiAgICAgICAgaW5rc2NhcGU6Y29ubmVjdG9yLWN1cnZhdHVyZT0iMCIKICAgIC8+CiAgICA8cGF0aAogICAgICAgIGlkPSJwYXRoOTg4IgogICAgICAgIGQ9Im01OTIuNDMgNTEyLjE2YzAgMi45MTk5LTMuMTM5NiAyLjkxOTktMy4xMzk2IDAgMC0yLjkyNDggMy4xMzk2LTIuOTI0OCAzLjEzOTYgMCIKICAgICAgICBzdHlsZT0iZmlsbC1ydWxlOmV2ZW5vZGQ7c3Ryb2tlOiMwMDAwMDA7c3Ryb2tlLW1pdGVybGltaXQ6MTA7c3Ryb2tlLXdpZHRoOjEuMjU7ZmlsbDojMDAwMDAwIgogICAgICAgIGlua3NjYXBlOmNvbm5lY3Rvci1jdXJ2YXR1cmU9IjAiCiAgICAvPgogICAgPHBhdGgKICAgICAgICBpZD0icGF0aDk5MCIKICAgICAgICBkPSJtNTgwLjU2IDUxNy4yMSAwLjA1NzUtMS4yMDEyIDEuMzk2NS0wLjkwMzI1IDEuNzQ4LTEuNDYgMS4yOTg4LTAuNjQ5NSAxLjAwNi0wLjIzIDEuNDU1IDAuMTMyNSAxLjY1NTIgMC42NDk1IDIuNDMxOCAwLjk3MTc1IDIuOTkzMiAxLjIwNi0wLjcyMjc1IDEuODI2Mi0yLjEzODggMS4zNDI4LTEuODE2NSAxLjIzNTItMS43MTg4IDAuOTcxNzUtMS43ODIyIDAuMzU2NS0wLjc0Ny0wLjA2MjUtMS45MTQtMS4wMDU4LTEuNDIxLTEuMzYyMi0xLjQ5NDItMS4yOTg4eiIKICAgICAgICBzdHlsZT0iZmlsbC1ydWxlOmV2ZW5vZGQ7c3Ryb2tlOiNjYTljMDA7c3Ryb2tlLW1pdGVybGltaXQ6MTA7c3Ryb2tlLXdpZHRoOjEuMjU7ZmlsbDojZmZjMjAwIgogICAgICAgIGlua3NjYXBlOmNvbm5lY3Rvci1jdXJ2YXR1cmU9IjAiCiAgICAvPgogICAgPHBhdGgKICAgICAgICBpZD0icGF0aDk5MiIKICAgICAgICBkPSJtNTgzLjc4IDUxMi4zNGMwIDIuMzg3OC0yLjU2ODQgMi4zODc4LTIuNTY4NCAwIDAtMi4zODI4IDIuNTY4NC0yLjM4MjggMi41Njg0IDAiCiAgICAgICAgc3R5bGU9ImZpbGwtcnVsZTpldmVub2RkO3N0cm9rZTojMDAwMDAwO3N0cm9rZS1taXRlcmxpbWl0OjEwO3N0cm9rZS13aWR0aDoxLjI1O2ZpbGw6IzAwMDAwMCIKICAgICAgICBpbmtzY2FwZTpjb25uZWN0b3ItY3VydmF0dXJlPSIwIgogICAgLz4KICAgIDxwYXRoCiAgICAgICAgaWQ9InBhdGg5OTQiCiAgICAgICAgZD0ibTU4MS41NCA1MTguMzIgMS4xNTcyIDAuNDYzNzUgMS4zMzggMC4zMzcwMSAxLjMyMzIgMC4wODc1IDEuMzQ3OC0wLjE1NSAyLjE1MzItMC43MzcyNSAxLjMzOC0wLjUxNzUgMS4wODg4LTAuNTE3NSAxLjE3MTgtMC43NjY1IgogICAgICAgIHN0eWxlPSJzdHJva2U6I2NhOWMwMDtzdHJva2UtbWl0ZXJsaW1pdDoxMDtzdHJva2Utd2lkdGg6MS4yNTtmaWxsOm5vbmUiCiAgICAgICAgaW5rc2NhcGU6Y29ubmVjdG9yLWN1cnZhdHVyZT0iMCIKICAgIC8+CiAgICA8cGF0aAogICAgICAgIGlkPSJwYXRoOTk2IgogICAgICAgIGQ9Im01NjAuNiA1NTkuNDIgMC4yNDUtMS4wMjUyIDAuNDYzNzUtMS4wNTk1IDAuNTI3MjUtMS4wMjU1IDAuMTQyNS0xLjIwMTItMC4yMS0xLjU1NzUtMC4yODMyNS0xLjc2NzUgMC4wMzUtMi4wODUgMC4xOC0xLjM3NyAwLjcwMy0wLjQ2Mzc1IDEuMDU5NS0wLjI0NSAxLjI0MDIgMC4wMzUgMS41NTI4LTAuMDM1IDEuMjA2LTAuODQ5NSAwLjc3NjUtMS4yNzQ1IDAuNzU2NzUtMS4zNTc1IDAuOTIyNzUtMC40MzQ1aDAuOTg2MjVsMS4wNzkgMC41NTE3NSA0LjgwNDcgNi44MzU5IDIuNTYzNSAzLjg0MjggMi4xODI4IDMuMTU5MiAwLjM4MDc1IDEuNTgyIDAuMDMgMS40OTktMC4yNzM1IDEuMTg2NS0wLjYzNDc1IDAuODEwNS0wLjk1NyAwLjYzOTc1LTEuNDg0MiAwLjQ5MzI1LTEuNzMzNSAwLjAzNS0zLjA3MTMtMC41OTU3NS00LjI0MzItMS40NTAyLTQuODQzOC0xLjM4MTgtMi41NDg4LTAuNDI0NzUtMC44MTA1LTAuMjF6IgogICAgICAgIHN0eWxlPSJmaWxsLXJ1bGU6ZXZlbm9kZDtzdHJva2U6I2NhOWMwMDtzdHJva2UtbWl0ZXJsaW1pdDoxMDtzdHJva2Utd2lkdGg6MS4yNTtmaWxsOiNmZmMyMDAiCiAgICAgICAgaW5rc2NhcGU6Y29ubmVjdG9yLWN1cnZhdHVyZT0iMCIKICAgIC8+CiAgICA8cGF0aAogICAgICAgIGlkPSJwYXRoOTk4IgogICAgICAgIGQ9Im02MDAuMiA1NjQuNzItMS42NDU1LTEuMDAxLTAuOTIyNzUtMS42OTQyLTAuMjM1LTIuNDcwOCAwLjY5ODI1LTIuNTA0OSAwLjQ1OS0yLjIzNjIgMC4yNzM1LTUuMTI3di0zLjUwNTlsMC4zODU3NS0xLjM4NjggMS4wNzktMC4zMTI1IDEuMzg2OCAwLjQ2Mzc0djEuMzkxNWwwLjI2ODUgMC44NDQ3NSAxLjExODIgMC45Mjc3NiAxLjIzNTIgMC41MzcgMS4yNjk1IDAuMjY4NSAxLjM5MTUtMC4xMTI1IDAuOTYyLTAuNDYzNzUgMC45MjI3NS0wLjY5MzI1IDAuNTQyLTEuMDA1OCAwLjMwNzUtMC45MjI3NSAwLjk2Njc1IDAuMDQgMC45MjI3NSAwLjg4Mzc1IDAuMzg1NzUgMi4wMDY4IDAuMTU3NSAxLjE1NzIgMC43MzI1IDEuMDAxIDEuMDQgMS4xNTcyIDEuNTgyIDEuMDQgMS42MjEgMS4yNTUtMC40Njg3NSAxLjE3NjgtMC43MzI1IDEuMTE4Mi0yLjAwMiAxLjM4NjgtMS44MTE1IDAuNjkzMjQtMi40MzE4IDEuMzUyNS0yLjE5NzIgMS43Mjg1LTMuMTk4MiAyLjQzMTgtMi4xMTkyIDAuNzcxNXoiCiAgICAgICAgc3R5bGU9ImZpbGwtcnVsZTpldmVub2RkO3N0cm9rZTojY2E5YzAwO3N0cm9rZS1taXRlcmxpbWl0OjEwO3N0cm9rZS13aWR0aDoxLjI1O2ZpbGw6I2ZmYzIwMCIKICAgICAgICBpbmtzY2FwZTpjb25uZWN0b3ItY3VydmF0dXJlPSIwIgogICAgLz4KICA8L2cKICA+CiAgPG1ldGFkYXRhCiAgICA+CiAgICA8cmRmOlJERgogICAgICA+CiAgICAgIDxjYzpXb3JrCiAgICAgICAgPgogICAgICAgIDxkYzpmb3JtYXQKICAgICAgICAgID5pbWFnZS9zdmcreG1sPC9kYzpmb3JtYXQKICAgICAgICA+CiAgICAgICAgPGRjOnR5cGUKICAgICAgICAgICAgcmRmOnJlc291cmNlPSJodHRwOi8vcHVybC5vcmcvZGMvZGNtaXR5cGUvU3RpbGxJbWFnZSIKICAgICAgICAvPgogICAgICAgIDxjYzpsaWNlbnNlCiAgICAgICAgICAgIHJkZjpyZXNvdXJjZT0iaHR0cDovL2NyZWF0aXZlY29tbW9ucy5vcmcvbGljZW5zZXMvcHVibGljZG9tYWluLyIKICAgICAgICAvPgogICAgICAgIDxkYzpwdWJsaXNoZXIKICAgICAgICAgID4KICAgICAgICAgIDxjYzpBZ2VudAogICAgICAgICAgICAgIHJkZjphYm91dD0iaHR0cDovL29wZW5jbGlwYXJ0Lm9yZy8iCiAgICAgICAgICAgID4KICAgICAgICAgICAgPGRjOnRpdGxlCiAgICAgICAgICAgICAgPk9wZW5jbGlwYXJ0PC9kYzp0aXRsZQogICAgICAgICAgICA+CiAgICAgICAgICA8L2NjOkFnZW50CiAgICAgICAgICA+CiAgICAgICAgPC9kYzpwdWJsaXNoZXIKICAgICAgICA+CiAgICAgICAgPGRjOnRpdGxlCiAgICAgICAgICA+U2VydmVyIC0gbGludXg8L2RjOnRpdGxlCiAgICAgICAgPgogICAgICAgIDxkYzpkYXRlCiAgICAgICAgICA+MjAxMi0wOC0wMlQxNDoyNzozOTwvZGM6ZGF0ZQogICAgICAgID4KICAgICAgICA8ZGM6ZGVzY3JpcHRpb24KICAgICAgICAvPgogICAgICAgIDxkYzpzb3VyY2UKICAgICAgICAgID5odHRwczovL29wZW5jbGlwYXJ0Lm9yZy9kZXRhaWwvMTcxNDIyL3NlcnZlci0tLWxpbnV4LWJ5LWN5YmVyc2Nvb3R5LTE3MTQyMjwvZGM6c291cmNlCiAgICAgICAgPgogICAgICAgIDxkYzpjcmVhdG9yCiAgICAgICAgICA+CiAgICAgICAgICA8Y2M6QWdlbnQKICAgICAgICAgICAgPgogICAgICAgICAgICA8ZGM6dGl0bGUKICAgICAgICAgICAgICA+Y3liZXJzY29vdHk8L2RjOnRpdGxlCiAgICAgICAgICAgID4KICAgICAgICAgIDwvY2M6QWdlbnQKICAgICAgICAgID4KICAgICAgICA8L2RjOmNyZWF0b3IKICAgICAgICA+CiAgICAgICAgPGRjOnN1YmplY3QKICAgICAgICAgID4KICAgICAgICAgIDxyZGY6QmFnCiAgICAgICAgICAgID4KICAgICAgICAgICAgPHJkZjpsaQogICAgICAgICAgICAgID5jb21wdXRlcjwvcmRmOmxpCiAgICAgICAgICAgID4KICAgICAgICAgICAgPHJkZjpsaQogICAgICAgICAgICAgID5pbmZvcm1hdGlxdWU8L3JkZjpsaQogICAgICAgICAgICA+CiAgICAgICAgICAgIDxyZGY6bGkKICAgICAgICAgICAgICA+aXQ8L3JkZjpsaQogICAgICAgICAgICA+CiAgICAgICAgICAgIDxyZGY6bGkKICAgICAgICAgICAgICA+bGludXg8L3JkZjpsaQogICAgICAgICAgICA+CiAgICAgICAgICAgIDxyZGY6bGkKICAgICAgICAgICAgICA+b3JkaW5hdGV1cjwvcmRmOmxpCiAgICAgICAgICAgID4KICAgICAgICAgICAgPHJkZjpsaQogICAgICAgICAgICAgID5zZXJ2ZXI8L3JkZjpsaQogICAgICAgICAgICA+CiAgICAgICAgICAgIDxyZGY6bGkKICAgICAgICAgICAgICA+c2VydmV1cjwvcmRmOmxpCiAgICAgICAgICAgID4KICAgICAgICAgICAgPHJkZjpsaQogICAgICAgICAgICAgID50dXg8L3JkZjpsaQogICAgICAgICAgICA+CiAgICAgICAgICA8L3JkZjpCYWcKICAgICAgICAgID4KICAgICAgICA8L2RjOnN1YmplY3QKICAgICAgICA+CiAgICAgIDwvY2M6V29yawogICAgICA+CiAgICAgIDxjYzpMaWNlbnNlCiAgICAgICAgICByZGY6YWJvdXQ9Imh0dHA6Ly9jcmVhdGl2ZWNvbW1vbnMub3JnL2xpY2Vuc2VzL3B1YmxpY2RvbWFpbi8iCiAgICAgICAgPgogICAgICAgIDxjYzpwZXJtaXRzCiAgICAgICAgICAgIHJkZjpyZXNvdXJjZT0iaHR0cDovL2NyZWF0aXZlY29tbW9ucy5vcmcvbnMjUmVwcm9kdWN0aW9uIgogICAgICAgIC8+CiAgICAgICAgPGNjOnBlcm1pdHMKICAgICAgICAgICAgcmRmOnJlc291cmNlPSJodHRwOi8vY3JlYXRpdmVjb21tb25zLm9yZy9ucyNEaXN0cmlidXRpb24iCiAgICAgICAgLz4KICAgICAgICA8Y2M6cGVybWl0cwogICAgICAgICAgICByZGY6cmVzb3VyY2U9Imh0dHA6Ly9jcmVhdGl2ZWNvbW1vbnMub3JnL25zI0Rlcml2YXRpdmVXb3JrcyIKICAgICAgICAvPgogICAgICA8L2NjOkxpY2Vuc2UKICAgICAgPgogICAgPC9yZGY6UkRGCiAgICA+CiAgPC9tZXRhZGF0YQogID4KPC9zdmcKPgo=;" parent="1" vertex="1">
          <mxGeometry x="400" y="429" width="35.67" height="50" as="geometry" />
        </mxCell>
        <mxCell id="srdscHzhea0q-TOiqJzr-40" value="" style="edgeStyle=orthogonalEdgeStyle;rounded=0;orthogonalLoop=1;jettySize=auto;html=1;startArrow=none;startFill=0;endArrow=none;endFill=0;strokeColor=#CCCCCC;strokeWidth=2;fontSize=16;fontColor=#333333;opacity=70;entryX=0;entryY=0.5;entryDx=0;entryDy=0;entryPerimeter=0;" parent="1" source="srdscHzhea0q-TOiqJzr-25" target="cU6FKH_-cefeCYAxEgEE-1" edge="1">
          <mxGeometry relative="1" as="geometry">
            <Array as="points">
              <mxPoint x="93" y="293" />
            </Array>
            <mxPoint x="372.20000000000005" y="300" as="targetPoint" />
          </mxGeometry>
        </mxCell>
        <mxCell id="srdscHzhea0q-TOiqJzr-14" value="&lt;font size=&quot;1&quot;&gt;&lt;b style=&quot;font-size: 20px&quot;&gt;. . .&lt;/b&gt;&lt;/font&gt;" style="text;html=1;strokeColor=none;fillColor=none;align=center;verticalAlign=middle;whiteSpace=wrap;rounded=0;fontSize=14;fontColor=#333333;" parent="1" vertex="1">
          <mxGeometry x="450" y="444" width="40" height="20" as="geometry" />
        </mxCell>
        <mxCell id="srdscHzhea0q-TOiqJzr-15" value="access nodes" style="text;html=1;strokeColor=none;fillColor=none;align=center;verticalAlign=middle;whiteSpace=wrap;rounded=0;fontSize=16;fontColor=#333333;fontStyle=1" parent="1" vertex="1">
          <mxGeometry x="340" y="401" width="110" height="20" as="geometry" />
        </mxCell>
        <mxCell id="srdscHzhea0q-TOiqJzr-34" style="edgeStyle=orthogonalEdgeStyle;rounded=0;orthogonalLoop=1;jettySize=auto;html=1;exitX=1;exitY=0.5;exitDx=0;exitDy=0;startArrow=none;startFill=0;fontSize=16;fontColor=#333333;endArrow=none;endFill=0;strokeWidth=2;strokeColor=#CCCCCC;opacity=70;" parent="1" source="srdscHzhea0q-TOiqJzr-16" target="srdscHzhea0q-TOiqJzr-27" edge="1">
          <mxGeometry relative="1" as="geometry">
            <Array as="points">
              <mxPoint x="610" y="585" />
              <mxPoint x="610" y="501" />
            </Array>
          </mxGeometry>
        </mxCell>
        <mxCell id="srdscHzhea0q-TOiqJzr-16" value="" style="rounded=1;whiteSpace=wrap;html=1;strokeWidth=2;fontSize=14;fillColor=#f8cecc;strokeColor=#b85450;" parent="1" vertex="1">
          <mxGeometry x="240" y="540" width="310" height="90" as="geometry" />
        </mxCell>
        <mxCell id="srdscHzhea0q-TOiqJzr-17" value="" style="shape=image;aspect=fixed;image=data:image/svg+xml,PD94bWwgdmVyc2lvbj0iMS4wIiBlbmNvZGluZz0iVVRGLTgiIHN0YW5kYWxvbmU9Im5vIj8+CjwhLS0gQ3JlYXRlZCB3aXRoIElua3NjYXBlIChodHRwOi8vd3d3Lmlua3NjYXBlLm9yZy8pIC0tPgo8c3ZnCiAgICB4bWxuczppbmtzY2FwZT0iaHR0cDovL3d3dy5pbmtzY2FwZS5vcmcvbmFtZXNwYWNlcy9pbmtzY2FwZSIKICAgIHhtbG5zOnJkZj0iaHR0cDovL3d3dy53My5vcmcvMTk5OS8wMi8yMi1yZGYtc3ludGF4LW5zIyIKICAgIHhtbG5zPSJodHRwOi8vd3d3LnczLm9yZy8yMDAwL3N2ZyIKICAgIHhtbG5zOmNjPSJodHRwOi8vY3JlYXRpdmVjb21tb25zLm9yZy9ucyMiCiAgICB4bWxuczpkYz0iaHR0cDovL3B1cmwub3JnL2RjL2VsZW1lbnRzLzEuMS8iCiAgICB4bWxuczpzb2RpcG9kaT0iaHR0cDovL3NvZGlwb2RpLnNvdXJjZWZvcmdlLm5ldC9EVEQvc29kaXBvZGktMC5kdGQiCiAgICB4bWxuczpzdmc9Imh0dHA6Ly93d3cudzMub3JnLzIwMDAvc3ZnIgogICAgeG1sbnM6bnMxPSJodHRwOi8vc296aS5iYWllcm91Z2UuZnIiCiAgICB4bWxuczp4bGluaz0iaHR0cDovL3d3dy53My5vcmcvMTk5OS94bGluayIKICAgIGlkPSJzdmc2NzQ2IgogICAgc29kaXBvZGk6ZG9jbmFtZT0iTm91dmVhdSBkb2N1bWVudCAzNyIKICAgIHZpZXdCb3g9IjAgMCAxMDguMzggMTUyLjA5IgogICAgdmVyc2lvbj0iMS4xIgogICAgaW5rc2NhcGU6dmVyc2lvbj0iMC40OC4zLjEgcjk4ODYiCiAgPgogIDxzb2RpcG9kaTpuYW1lZHZpZXcKICAgICAgaWQ9ImJhc2UiCiAgICAgIGJvcmRlcmNvbG9yPSIjNjY2NjY2IgogICAgICBpbmtzY2FwZTpwYWdlc2hhZG93PSIyIgogICAgICBpbmtzY2FwZTp3aW5kb3cteT0iMjQiCiAgICAgIGZpdC1tYXJnaW4tbGVmdD0iMCIKICAgICAgcGFnZWNvbG9yPSIjZmZmZmZmIgogICAgICBmaXQtbWFyZ2luLXRvcD0iMCIKICAgICAgaW5rc2NhcGU6d2luZG93LW1heGltaXplZD0iMCIKICAgICAgaW5rc2NhcGU6em9vbT0iMC4zNSIKICAgICAgaW5rc2NhcGU6d2luZG93LXg9IjQ5IgogICAgICBpbmtzY2FwZTp3aW5kb3ctaGVpZ2h0PSI0MTUiCiAgICAgIHNob3dncmlkPSJmYWxzZSIKICAgICAgYm9yZGVyb3BhY2l0eT0iMS4wIgogICAgICBpbmtzY2FwZTpjdXJyZW50LWxheWVyPSJsYXllcjEiCiAgICAgIGlua3NjYXBlOmN4PSItMTg0LjkwNjI1IgogICAgICBpbmtzY2FwZTpjeT0iMzMuMjAwMzE3IgogICAgICBmaXQtbWFyZ2luLXJpZ2h0PSIwIgogICAgICBmaXQtbWFyZ2luLWJvdHRvbT0iMCIKICAgICAgaW5rc2NhcGU6d2luZG93LXdpZHRoPSI0ODYiCiAgICAgIGlua3NjYXBlOnBhZ2VvcGFjaXR5PSIwLjAiCiAgICAgIGlua3NjYXBlOmRvY3VtZW50LXVuaXRzPSJweCIKICAvPgogIDxnCiAgICAgIGlkPSJsYXllcjEiCiAgICAgIGlua3NjYXBlOmxhYmVsPSJDYWxxdWUgMSIKICAgICAgaW5rc2NhcGU6Z3JvdXBtb2RlPSJsYXllciIKICAgICAgdHJhbnNmb3JtPSJ0cmFuc2xhdGUoLTU1OS45MSAtNDEzLjQ3KSIKICAgID4KICAgIDxwYXRoCiAgICAgICAgaWQ9InBhdGg5NTQiCiAgICAgICAgZD0ibTcxMy42OCA1MDguNjYiCiAgICAgICAgc3R5bGU9InN0cm9rZTojMDAwMDAwO3N0cm9rZS1taXRlcmxpbWl0OjEwO3N0cm9rZS13aWR0aDoxLjI1O2ZpbGw6bm9uZSIKICAgICAgICBpbmtzY2FwZTpjb25uZWN0b3ItY3VydmF0dXJlPSIwIgogICAgLz4KICAgIDxwYXRoCiAgICAgICAgaWQ9InBhdGg5NTYiCiAgICAgICAgZD0ibTU4Ni40IDQzMC4zNCAxNS0xNWg1MGwxNSAxNXYxMjBoLTgweiIKICAgICAgICBzdHlsZT0iZmlsbC1ydWxlOmV2ZW5vZGQ7c3Ryb2tlOiM3ZDdkN2Q7c3Ryb2tlLW1pdGVybGltaXQ6MTA7c3Ryb2tlLXdpZHRoOjMuNzU7ZmlsbDojZTFlMWUxIgogICAgICAgIGlua3NjYXBlOmNvbm5lY3Rvci1jdXJ2YXR1cmU9IjAiCiAgICAvPgogICAgPHBhdGgKICAgICAgICBpZD0icGF0aDk1OCIKICAgICAgICBkPSJtNTkzLjkgNDMyLjg0IDEyLjUtMTIuNWg0MGwxMi41IDEyLjV6IgogICAgICAgIHN0eWxlPSJmaWxsLXJ1bGU6ZXZlbm9kZDtzdHJva2U6IzljOWM5YztzdHJva2UtbWl0ZXJsaW1pdDoxMDtzdHJva2Utd2lkdGg6MS4yNTtmaWxsOiNiZGJkYmQiCiAgICAgICAgaW5rc2NhcGU6Y29ubmVjdG9yLWN1cnZhdHVyZT0iMCIKICAgIC8+CiAgICA8cGF0aAogICAgICAgIGlkPSJwYXRoOTYwIgogICAgICAgIGQ9Im01OTUuMTUgNDM1LjM0aDYyLjVjMC42ODg1IDAgMS4yNSAwLjU1NjYzIDEuMjUgMS4yNXYxMDcuNWMwIDAuNjg4NS0wLjU2MTUgMS4yNS0xLjI1IDEuMjVoLTYyLjVjLTAuNjkzMjUgMC0xLjI1LTAuNTYxNS0xLjI1LTEuMjV2LTEwNy41YzAtMC42OTMzNyAwLjU1Njc1LTEuMjUgMS4yNS0xLjI1IgogICAgICAgIHN0eWxlPSJzdHJva2UtbGluZWpvaW46cm91bmQ7ZmlsbC1ydWxlOmV2ZW5vZGQ7c3Ryb2tlOiM5YzljOWM7c3Ryb2tlLW1pdGVybGltaXQ6MTA7c3Ryb2tlLXdpZHRoOjEuMjU7ZmlsbDojYmRiZGJkIgogICAgICAgIGlua3NjYXBlOmNvbm5lY3Rvci1jdXJ2YXR1cmU9IjAiCiAgICAvPgogICAgPHBhdGgKICAgICAgICBpZD0icGF0aDk2MiIKICAgICAgICBkPSJtNjAwLjE1IDQ0Mi44NGg1Mi41YzAuNjg4NSAwIDEuMjUgMC41NTY2MyAxLjI1IDEuMjV2MTIuNWMwIDAuNjg4NDgtMC41NjE1IDEuMjUtMS4yNSAxLjI1aC01Mi41Yy0wLjY5MzI1IDAtMS4yNS0wLjU2MTUyLTEuMjUtMS4yNXYtMTIuNWMwLTAuNjkzMzcgMC41NTY3NS0xLjI1IDEuMjUtMS4yNSIKICAgICAgICBzdHlsZT0ic3Ryb2tlLWxpbmVqb2luOnJvdW5kO2ZpbGwtcnVsZTpldmVub2RkO3N0cm9rZTojN2Q3ZDdkO3N0cm9rZS1taXRlcmxpbWl0OjEwO3N0cm9rZS13aWR0aDozLjc1O2ZpbGw6IzljOWM5YyIKICAgICAgICBpbmtzY2FwZTpjb25uZWN0b3ItY3VydmF0dXJlPSIwIgogICAgLz4KICAgIDxwYXRoCiAgICAgICAgaWQ9InBhdGg5NjQiCiAgICAgICAgZD0ibTYwMC4xNSA0NjUuMzRoNTIuNWMwLjY4ODUgMCAxLjI1IDAuNTU2NjUgMS4yNSAxLjI1djEyLjVjMCAwLjY4ODQ4LTAuNTYxNSAxLjI1LTEuMjUgMS4yNWgtNTIuNWMtMC42OTMyNSAwLTEuMjUtMC41NjE1Mi0xLjI1LTEuMjV2LTEyLjVjMC0wLjY5MzM3IDAuNTU2NzUtMS4yNSAxLjI1LTEuMjUiCiAgICAgICAgc3R5bGU9InN0cm9rZS1saW5lam9pbjpyb3VuZDtmaWxsLXJ1bGU6ZXZlbm9kZDtzdHJva2U6IzdkN2Q3ZDtzdHJva2UtbWl0ZXJsaW1pdDoxMDtzdHJva2Utd2lkdGg6My43NTtmaWxsOiM5YzljOWMiCiAgICAgICAgaW5rc2NhcGU6Y29ubmVjdG9yLWN1cnZhdHVyZT0iMCIKICAgIC8+CiAgICA8cGF0aAogICAgICAgIGlkPSJwYXRoOTY2IgogICAgICAgIGQ9Im02MjIuNjUgNDkyLjg0aDMwYzAuNjg4NSAwIDEuMjUgMC41NTY2MyAxLjI1IDEuMjV2MTBjMCAwLjY4ODUtMC41NjE1IDEuMjUtMS4yNSAxLjI1aC0zMGMtMC42OTMyNSAwLTEuMjUtMC41NjE1LTEuMjUtMS4yNXYtMTBjMC0wLjY5MzM3IDAuNTU2NzUtMS4yNSAxLjI1LTEuMjUiCiAgICAgICAgc3R5bGU9InN0cm9rZS1saW5lam9pbjpyb3VuZDtmaWxsLXJ1bGU6ZXZlbm9kZDtzdHJva2U6IzdkN2Q3ZDtzdHJva2UtbWl0ZXJsaW1pdDoxMDtzdHJva2Utd2lkdGg6My43NTtmaWxsOiM5YzljOWMiCiAgICAgICAgaW5rc2NhcGU6Y29ubmVjdG9yLWN1cnZhdHVyZT0iMCIKICAgIC8+CiAgICA8cGF0aAogICAgICAgIGlkPSJwYXRoOTY4IgogICAgICAgIGQ9Im02MTMuOSA0OTkuMDljMCA4LjMzNS0xMi41IDguMzM1LTEyLjUgMHMxMi41LTguMzM1IDEyLjUgMCIKICAgICAgICBzdHlsZT0ic3Ryb2tlLWxpbmVqb2luOnJvdW5kO2ZpbGwtcnVsZTpldmVub2RkO3N0cm9rZTojN2Q3ZDdkO3N0cm9rZS1taXRlcmxpbWl0OjEwO3N0cm9rZS13aWR0aDoyLjU7ZmlsbDojYzUxOTAwIgogICAgICAgIGlua3NjYXBlOmNvbm5lY3Rvci1jdXJ2YXR1cmU9IjAiCiAgICAvPgogICAgPHBhdGgKICAgICAgICBpZD0icGF0aDk3MCIKICAgICAgICBkPSJtNjExLjQgNTE2LjY1aDV2MjcuNWgtNXoiCiAgICAgICAgc3R5bGU9ImZpbGwtcnVsZTpldmVub2RkO3N0cm9rZTojN2Q3ZDdkO3N0cm9rZS1taXRlcmxpbWl0OjEwO3N0cm9rZS13aWR0aDoyLjU7ZmlsbDojOWM5YzljIgogICAgICAgIGlua3NjYXBlOmNvbm5lY3Rvci1jdXJ2YXR1cmU9IjAiCiAgICAvPgogICAgPHBhdGgKICAgICAgICBpZD0icGF0aDk3MiIKICAgICAgICBkPSJtNjIxLjQgNTE2LjY1aDV2MjcuNWgtNXoiCiAgICAgICAgc3R5bGU9ImZpbGwtcnVsZTpldmVub2RkO3N0cm9rZTojN2Q3ZDdkO3N0cm9rZS1taXRlcmxpbWl0OjEwO3N0cm9rZS13aWR0aDoyLjU7ZmlsbDojOWM5YzljIgogICAgICAgIGlua3NjYXBlOmNvbm5lY3Rvci1jdXJ2YXR1cmU9IjAiCiAgICAvPgogICAgPHBhdGgKICAgICAgICBpZD0icGF0aDk3NCIKICAgICAgICBkPSJtNjMxLjQgNTE2LjY1aDV2MjcuNWgtNXoiCiAgICAgICAgc3R5bGU9ImZpbGwtcnVsZTpldmVub2RkO3N0cm9rZTojN2Q3ZDdkO3N0cm9rZS1taXRlcmxpbWl0OjEwO3N0cm9rZS13aWR0aDoyLjU7ZmlsbDojOWM5YzljIgogICAgICAgIGlua3NjYXBlOmNvbm5lY3Rvci1jdXJ2YXR1cmU9IjAiCiAgICAvPgogICAgPHBhdGgKICAgICAgICBpZD0icGF0aDk3NiIKICAgICAgICBkPSJtNjQxLjQgNTE2LjY1aDV2MjcuNWgtNXoiCiAgICAgICAgc3R5bGU9ImZpbGwtcnVsZTpldmVub2RkO3N0cm9rZTojN2Q3ZDdkO3N0cm9rZS1taXRlcmxpbWl0OjEwO3N0cm9rZS13aWR0aDoyLjU7ZmlsbDojOWM5YzljIgogICAgICAgIGlua3NjYXBlOmNvbm5lY3Rvci1jdXJ2YXR1cmU9IjAiCiAgICAvPgogICAgPHBhdGgKICAgICAgICBpZD0icGF0aDk3OCIKICAgICAgICBkPSJtNjUxLjQgNTE2LjdoNXYyNy41aC01eiIKICAgICAgICBzdHlsZT0iZmlsbC1ydWxlOmV2ZW5vZGQ7c3Ryb2tlOiM3ZDdkN2Q7c3Ryb2tlLW1pdGVybGltaXQ6MTA7c3Ryb2tlLXdpZHRoOjIuNTtmaWxsOiM5YzljOWMiCiAgICAgICAgaW5rc2NhcGU6Y29ubmVjdG9yLWN1cnZhdHVyZT0iMCIKICAgIC8+CiAgICA8cGF0aAogICAgICAgIGlkPSJwYXRoOTgwIgogICAgICAgIGQ9Im01NjkuNjUgNTM1LjQyIDIuNzE5Ny00LjM4NDggNi45OTcxLTEwLjY0LTAuMDUtMTUuODY5IDAuMzkwNzUtMS41MTg2IDAuNzIyNzUtMS4wMzAyIDEuMjc0NS0xLjQ1MDIgMS41MTg1LTEuMzA4NiAxLjIwMTItMC44ODM4IDEuOTgyNS0wLjYwMDU4aDEuNTE4NWwxLjYyNiAwLjAzNDIgMS43MzM1IDAuMzUxNTggMS45MDkyIDAuODQ5NiAxLjY2MDIgMC44NDk2IDEuNDExMiAxLjI3NDQgMS4wOTg4IDEuMzc3IDEuMTMyOCAxLjg3MDEgMC40OTMyNSAxLjk4MjUgMC4xNzUgMi43MjQ2IDAuMjUgNC43MDIyIDAuMDM1IDMuNDI3NyAzLjAwNzggMy45OTQyIDQuNTk0NyA2LjU3NzIgMi42NDY1IDQuOTg1NCAxLjM0NzggMy4yODYxIDAuMzA3NSAzLjExNTItMC4xNDc1IDIuMjAyMi0wLjIzIDIuMTA0NS0wLjgzOTc1IDMuNTE1Ni0wLjg1OTUgMi4zMTkyLTguODc3IDEzLjI5MS02LjM2MjMtMS45MDkyLTEwLjI0OSAwLjAzNS0zLjY0MjYgMi40MDcyLTkuMTU1My0xNC45OS0yLjc1ODgtNC42MzM4LTAuMTQyNS0yLjQzNjUgMC4zNjEyNS0yLjU3ODF6IgogICAgICAgIHN0eWxlPSJmaWxsLXJ1bGU6ZXZlbm9kZDtzdHJva2U6IzAwMDAwMDtzdHJva2UtbWl0ZXJsaW1pdDoxMDtzdHJva2Utd2lkdGg6MS4yNTtmaWxsOiMwMDAwMDAiCiAgICAgICAgaW5rc2NhcGU6Y29ubmVjdG9yLWN1cnZhdHVyZT0iMCIKICAgIC8+CiAgICA8cGF0aAogICAgICAgIGlkPSJwYXRoOTgyIgogICAgICAgIGQ9Im01ODQuOTIgNTExLjI3YzAgNC41NDEtNC40OTIyIDQuNTQxLTQuNDkyMiAwIDAtNC41MzYxIDQuNDkyMi00LjUzNjEgNC40OTIyIDAiCiAgICAgICAgc3R5bGU9ImZpbGwtcnVsZTpldmVub2RkO3N0cm9rZTojZmZmZmZmO3N0cm9rZS1taXRlcmxpbWl0OjEwO3N0cm9rZS13aWR0aDoxLjI1O2ZpbGw6I2ZmZmZmZiIKICAgICAgICBpbmtzY2FwZTpjb25uZWN0b3ItY3VydmF0dXJlPSIwIgogICAgLz4KICAgIDxwYXRoCiAgICAgICAgaWQ9InBhdGg5ODQiCiAgICAgICAgZD0ibTU4MS4xOSA1MjEuNTkgMC40MzQ1LTQuMDMzMiAxMi40MjctMS40ODkyIDAuMjEgMi45NDQzIDEuMzIzMiAyLjUxNDYgMC45MzI1IDIuMDg5OCAxLjc2NzUgMy43NTk4IDAuOTk2IDIuMDUwOCAxLjAwMSAxLjk1MzIgMC42MDU1IDEuOTU4IDAuNjU0MjUgMy4zODg3IDAuMTUyNSAzLjYyNzkgMC4xNTc1IDQuNzg1Mi0xLjc2MjggNS45NDczLTIuOTE1IDIuMzE0NS0xLjYzNTggMS40MDE1LTIuMzc4IDEuNTc3Mi0yLjA4IDEuMDY5Mi0xLjg3IDAuNTAzLTIuMDc1MiAwLjI3ODI1LTEuNzQzMi0wLjA1NzUtMi41MDk4LTAuMTYtMS4zMDg1LTAuNzA4LTEuMDY5Mi0wLjkwMzI1LTEuNzQzMi0yLjEwOTJoMS4yNTk4bDEuMDU0OC0wLjQxMDI1IDAuNTk1NzUtMC42ODg1IDAuMjA1LTEuMDM1Mi0wLjQxMDI1LTEuMTE4Mi01LjE1NjItNC42MDk0LTIuMDMxMi0yLjg5MDYtMC43MTMtMS44MTY1IDAuMDA1LTEuNTQ3OCAwLjY4MzUtMy4wMzIyIDEuMzY3Mi0zLjM1OTQgMS40NjQ4LTMuMzU0NSAxLjUwODgtMy40MjI4IDEuNDk0Mi0yLjg3NnoiCiAgICAgICAgc3R5bGU9ImZpbGwtcnVsZTpldmVub2RkO3N0cm9rZTojZmZmZmZmO3N0cm9rZS1taXRlcmxpbWl0OjEwO3N0cm9rZS13aWR0aDoxLjI1O2ZpbGw6I2ZmZmZmZiIKICAgICAgICBpbmtzY2FwZTpjb25uZWN0b3ItY3VydmF0dXJlPSIwIgogICAgLz4KICAgIDxwYXRoCiAgICAgICAgaWQ9InBhdGg5ODYiCiAgICAgICAgZD0ibTU5NC4wNCA1MTEuNzNjMCA2LjE0NzUtNS45NTIyIDYuMTQ3NS01Ljk1MjIgMCAwLTYuMTQyNiA1Ljk1MjItNi4xNDI2IDUuOTUyMiAwIgogICAgICAgIHN0eWxlPSJmaWxsLXJ1bGU6ZXZlbm9kZDtzdHJva2U6I2ZmZmZmZjtzdHJva2UtbWl0ZXJsaW1pdDoxMDtzdHJva2Utd2lkdGg6MS4yNTtmaWxsOiNmZmZmZmYiCiAgICAgICAgaW5rc2NhcGU6Y29ubmVjdG9yLWN1cnZhdHVyZT0iMCIKICAgIC8+CiAgICA8cGF0aAogICAgICAgIGlkPSJwYXRoOTg4IgogICAgICAgIGQ9Im01OTIuNDMgNTEyLjE2YzAgMi45MTk5LTMuMTM5NiAyLjkxOTktMy4xMzk2IDAgMC0yLjkyNDggMy4xMzk2LTIuOTI0OCAzLjEzOTYgMCIKICAgICAgICBzdHlsZT0iZmlsbC1ydWxlOmV2ZW5vZGQ7c3Ryb2tlOiMwMDAwMDA7c3Ryb2tlLW1pdGVybGltaXQ6MTA7c3Ryb2tlLXdpZHRoOjEuMjU7ZmlsbDojMDAwMDAwIgogICAgICAgIGlua3NjYXBlOmNvbm5lY3Rvci1jdXJ2YXR1cmU9IjAiCiAgICAvPgogICAgPHBhdGgKICAgICAgICBpZD0icGF0aDk5MCIKICAgICAgICBkPSJtNTgwLjU2IDUxNy4yMSAwLjA1NzUtMS4yMDEyIDEuMzk2NS0wLjkwMzI1IDEuNzQ4LTEuNDYgMS4yOTg4LTAuNjQ5NSAxLjAwNi0wLjIzIDEuNDU1IDAuMTMyNSAxLjY1NTIgMC42NDk1IDIuNDMxOCAwLjk3MTc1IDIuOTkzMiAxLjIwNi0wLjcyMjc1IDEuODI2Mi0yLjEzODggMS4zNDI4LTEuODE2NSAxLjIzNTItMS43MTg4IDAuOTcxNzUtMS43ODIyIDAuMzU2NS0wLjc0Ny0wLjA2MjUtMS45MTQtMS4wMDU4LTEuNDIxLTEuMzYyMi0xLjQ5NDItMS4yOTg4eiIKICAgICAgICBzdHlsZT0iZmlsbC1ydWxlOmV2ZW5vZGQ7c3Ryb2tlOiNjYTljMDA7c3Ryb2tlLW1pdGVybGltaXQ6MTA7c3Ryb2tlLXdpZHRoOjEuMjU7ZmlsbDojZmZjMjAwIgogICAgICAgIGlua3NjYXBlOmNvbm5lY3Rvci1jdXJ2YXR1cmU9IjAiCiAgICAvPgogICAgPHBhdGgKICAgICAgICBpZD0icGF0aDk5MiIKICAgICAgICBkPSJtNTgzLjc4IDUxMi4zNGMwIDIuMzg3OC0yLjU2ODQgMi4zODc4LTIuNTY4NCAwIDAtMi4zODI4IDIuNTY4NC0yLjM4MjggMi41Njg0IDAiCiAgICAgICAgc3R5bGU9ImZpbGwtcnVsZTpldmVub2RkO3N0cm9rZTojMDAwMDAwO3N0cm9rZS1taXRlcmxpbWl0OjEwO3N0cm9rZS13aWR0aDoxLjI1O2ZpbGw6IzAwMDAwMCIKICAgICAgICBpbmtzY2FwZTpjb25uZWN0b3ItY3VydmF0dXJlPSIwIgogICAgLz4KICAgIDxwYXRoCiAgICAgICAgaWQ9InBhdGg5OTQiCiAgICAgICAgZD0ibTU4MS41NCA1MTguMzIgMS4xNTcyIDAuNDYzNzUgMS4zMzggMC4zMzcwMSAxLjMyMzIgMC4wODc1IDEuMzQ3OC0wLjE1NSAyLjE1MzItMC43MzcyNSAxLjMzOC0wLjUxNzUgMS4wODg4LTAuNTE3NSAxLjE3MTgtMC43NjY1IgogICAgICAgIHN0eWxlPSJzdHJva2U6I2NhOWMwMDtzdHJva2UtbWl0ZXJsaW1pdDoxMDtzdHJva2Utd2lkdGg6MS4yNTtmaWxsOm5vbmUiCiAgICAgICAgaW5rc2NhcGU6Y29ubmVjdG9yLWN1cnZhdHVyZT0iMCIKICAgIC8+CiAgICA8cGF0aAogICAgICAgIGlkPSJwYXRoOTk2IgogICAgICAgIGQ9Im01NjAuNiA1NTkuNDIgMC4yNDUtMS4wMjUyIDAuNDYzNzUtMS4wNTk1IDAuNTI3MjUtMS4wMjU1IDAuMTQyNS0xLjIwMTItMC4yMS0xLjU1NzUtMC4yODMyNS0xLjc2NzUgMC4wMzUtMi4wODUgMC4xOC0xLjM3NyAwLjcwMy0wLjQ2Mzc1IDEuMDU5NS0wLjI0NSAxLjI0MDIgMC4wMzUgMS41NTI4LTAuMDM1IDEuMjA2LTAuODQ5NSAwLjc3NjUtMS4yNzQ1IDAuNzU2NzUtMS4zNTc1IDAuOTIyNzUtMC40MzQ1aDAuOTg2MjVsMS4wNzkgMC41NTE3NSA0LjgwNDcgNi44MzU5IDIuNTYzNSAzLjg0MjggMi4xODI4IDMuMTU5MiAwLjM4MDc1IDEuNTgyIDAuMDMgMS40OTktMC4yNzM1IDEuMTg2NS0wLjYzNDc1IDAuODEwNS0wLjk1NyAwLjYzOTc1LTEuNDg0MiAwLjQ5MzI1LTEuNzMzNSAwLjAzNS0zLjA3MTMtMC41OTU3NS00LjI0MzItMS40NTAyLTQuODQzOC0xLjM4MTgtMi41NDg4LTAuNDI0NzUtMC44MTA1LTAuMjF6IgogICAgICAgIHN0eWxlPSJmaWxsLXJ1bGU6ZXZlbm9kZDtzdHJva2U6I2NhOWMwMDtzdHJva2UtbWl0ZXJsaW1pdDoxMDtzdHJva2Utd2lkdGg6MS4yNTtmaWxsOiNmZmMyMDAiCiAgICAgICAgaW5rc2NhcGU6Y29ubmVjdG9yLWN1cnZhdHVyZT0iMCIKICAgIC8+CiAgICA8cGF0aAogICAgICAgIGlkPSJwYXRoOTk4IgogICAgICAgIGQ9Im02MDAuMiA1NjQuNzItMS42NDU1LTEuMDAxLTAuOTIyNzUtMS42OTQyLTAuMjM1LTIuNDcwOCAwLjY5ODI1LTIuNTA0OSAwLjQ1OS0yLjIzNjIgMC4yNzM1LTUuMTI3di0zLjUwNTlsMC4zODU3NS0xLjM4NjggMS4wNzktMC4zMTI1IDEuMzg2OCAwLjQ2Mzc0djEuMzkxNWwwLjI2ODUgMC44NDQ3NSAxLjExODIgMC45Mjc3NiAxLjIzNTIgMC41MzcgMS4yNjk1IDAuMjY4NSAxLjM5MTUtMC4xMTI1IDAuOTYyLTAuNDYzNzUgMC45MjI3NS0wLjY5MzI1IDAuNTQyLTEuMDA1OCAwLjMwNzUtMC45MjI3NSAwLjk2Njc1IDAuMDQgMC45MjI3NSAwLjg4Mzc1IDAuMzg1NzUgMi4wMDY4IDAuMTU3NSAxLjE1NzIgMC43MzI1IDEuMDAxIDEuMDQgMS4xNTcyIDEuNTgyIDEuMDQgMS42MjEgMS4yNTUtMC40Njg3NSAxLjE3NjgtMC43MzI1IDEuMTE4Mi0yLjAwMiAxLjM4NjgtMS44MTE1IDAuNjkzMjQtMi40MzE4IDEuMzUyNS0yLjE5NzIgMS43Mjg1LTMuMTk4MiAyLjQzMTgtMi4xMTkyIDAuNzcxNXoiCiAgICAgICAgc3R5bGU9ImZpbGwtcnVsZTpldmVub2RkO3N0cm9rZTojY2E5YzAwO3N0cm9rZS1taXRlcmxpbWl0OjEwO3N0cm9rZS13aWR0aDoxLjI1O2ZpbGw6I2ZmYzIwMCIKICAgICAgICBpbmtzY2FwZTpjb25uZWN0b3ItY3VydmF0dXJlPSIwIgogICAgLz4KICA8L2cKICA+CiAgPG1ldGFkYXRhCiAgICA+CiAgICA8cmRmOlJERgogICAgICA+CiAgICAgIDxjYzpXb3JrCiAgICAgICAgPgogICAgICAgIDxkYzpmb3JtYXQKICAgICAgICAgID5pbWFnZS9zdmcreG1sPC9kYzpmb3JtYXQKICAgICAgICA+CiAgICAgICAgPGRjOnR5cGUKICAgICAgICAgICAgcmRmOnJlc291cmNlPSJodHRwOi8vcHVybC5vcmcvZGMvZGNtaXR5cGUvU3RpbGxJbWFnZSIKICAgICAgICAvPgogICAgICAgIDxjYzpsaWNlbnNlCiAgICAgICAgICAgIHJkZjpyZXNvdXJjZT0iaHR0cDovL2NyZWF0aXZlY29tbW9ucy5vcmcvbGljZW5zZXMvcHVibGljZG9tYWluLyIKICAgICAgICAvPgogICAgICAgIDxkYzpwdWJsaXNoZXIKICAgICAgICAgID4KICAgICAgICAgIDxjYzpBZ2VudAogICAgICAgICAgICAgIHJkZjphYm91dD0iaHR0cDovL29wZW5jbGlwYXJ0Lm9yZy8iCiAgICAgICAgICAgID4KICAgICAgICAgICAgPGRjOnRpdGxlCiAgICAgICAgICAgICAgPk9wZW5jbGlwYXJ0PC9kYzp0aXRsZQogICAgICAgICAgICA+CiAgICAgICAgICA8L2NjOkFnZW50CiAgICAgICAgICA+CiAgICAgICAgPC9kYzpwdWJsaXNoZXIKICAgICAgICA+CiAgICAgICAgPGRjOnRpdGxlCiAgICAgICAgICA+U2VydmVyIC0gbGludXg8L2RjOnRpdGxlCiAgICAgICAgPgogICAgICAgIDxkYzpkYXRlCiAgICAgICAgICA+MjAxMi0wOC0wMlQxNDoyNzozOTwvZGM6ZGF0ZQogICAgICAgID4KICAgICAgICA8ZGM6ZGVzY3JpcHRpb24KICAgICAgICAvPgogICAgICAgIDxkYzpzb3VyY2UKICAgICAgICAgID5odHRwczovL29wZW5jbGlwYXJ0Lm9yZy9kZXRhaWwvMTcxNDIyL3NlcnZlci0tLWxpbnV4LWJ5LWN5YmVyc2Nvb3R5LTE3MTQyMjwvZGM6c291cmNlCiAgICAgICAgPgogICAgICAgIDxkYzpjcmVhdG9yCiAgICAgICAgICA+CiAgICAgICAgICA8Y2M6QWdlbnQKICAgICAgICAgICAgPgogICAgICAgICAgICA8ZGM6dGl0bGUKICAgICAgICAgICAgICA+Y3liZXJzY29vdHk8L2RjOnRpdGxlCiAgICAgICAgICAgID4KICAgICAgICAgIDwvY2M6QWdlbnQKICAgICAgICAgID4KICAgICAgICA8L2RjOmNyZWF0b3IKICAgICAgICA+CiAgICAgICAgPGRjOnN1YmplY3QKICAgICAgICAgID4KICAgICAgICAgIDxyZGY6QmFnCiAgICAgICAgICAgID4KICAgICAgICAgICAgPHJkZjpsaQogICAgICAgICAgICAgID5jb21wdXRlcjwvcmRmOmxpCiAgICAgICAgICAgID4KICAgICAgICAgICAgPHJkZjpsaQogICAgICAgICAgICAgID5pbmZvcm1hdGlxdWU8L3JkZjpsaQogICAgICAgICAgICA+CiAgICAgICAgICAgIDxyZGY6bGkKICAgICAgICAgICAgICA+aXQ8L3JkZjpsaQogICAgICAgICAgICA+CiAgICAgICAgICAgIDxyZGY6bGkKICAgICAgICAgICAgICA+bGludXg8L3JkZjpsaQogICAgICAgICAgICA+CiAgICAgICAgICAgIDxyZGY6bGkKICAgICAgICAgICAgICA+b3JkaW5hdGV1cjwvcmRmOmxpCiAgICAgICAgICAgID4KICAgICAgICAgICAgPHJkZjpsaQogICAgICAgICAgICAgID5zZXJ2ZXI8L3JkZjpsaQogICAgICAgICAgICA+CiAgICAgICAgICAgIDxyZGY6bGkKICAgICAgICAgICAgICA+c2VydmV1cjwvcmRmOmxpCiAgICAgICAgICAgID4KICAgICAgICAgICAgPHJkZjpsaQogICAgICAgICAgICAgID50dXg8L3JkZjpsaQogICAgICAgICAgICA+CiAgICAgICAgICA8L3JkZjpCYWcKICAgICAgICAgID4KICAgICAgICA8L2RjOnN1YmplY3QKICAgICAgICA+CiAgICAgIDwvY2M6V29yawogICAgICA+CiAgICAgIDxjYzpMaWNlbnNlCiAgICAgICAgICByZGY6YWJvdXQ9Imh0dHA6Ly9jcmVhdGl2ZWNvbW1vbnMub3JnL2xpY2Vuc2VzL3B1YmxpY2RvbWFpbi8iCiAgICAgICAgPgogICAgICAgIDxjYzpwZXJtaXRzCiAgICAgICAgICAgIHJkZjpyZXNvdXJjZT0iaHR0cDovL2NyZWF0aXZlY29tbW9ucy5vcmcvbnMjUmVwcm9kdWN0aW9uIgogICAgICAgIC8+CiAgICAgICAgPGNjOnBlcm1pdHMKICAgICAgICAgICAgcmRmOnJlc291cmNlPSJodHRwOi8vY3JlYXRpdmVjb21tb25zLm9yZy9ucyNEaXN0cmlidXRpb24iCiAgICAgICAgLz4KICAgICAgICA8Y2M6cGVybWl0cwogICAgICAgICAgICByZGY6cmVzb3VyY2U9Imh0dHA6Ly9jcmVhdGl2ZWNvbW1vbnMub3JnL25zI0Rlcml2YXRpdmVXb3JrcyIKICAgICAgICAvPgogICAgICA8L2NjOkxpY2Vuc2UKICAgICAgPgogICAgPC9yZGY6UkRGCiAgICA+CiAgPC9tZXRhZGF0YQogID4KPC9zdmcKPgo=;" parent="1" vertex="1">
          <mxGeometry x="250" y="570" width="35.67" height="50" as="geometry" />
        </mxCell>
        <mxCell id="srdscHzhea0q-TOiqJzr-18" value="" style="shape=image;aspect=fixed;image=data:image/svg+xml,PD94bWwgdmVyc2lvbj0iMS4wIiBlbmNvZGluZz0iVVRGLTgiIHN0YW5kYWxvbmU9Im5vIj8+CjwhLS0gQ3JlYXRlZCB3aXRoIElua3NjYXBlIChodHRwOi8vd3d3Lmlua3NjYXBlLm9yZy8pIC0tPgo8c3ZnCiAgICB4bWxuczppbmtzY2FwZT0iaHR0cDovL3d3dy5pbmtzY2FwZS5vcmcvbmFtZXNwYWNlcy9pbmtzY2FwZSIKICAgIHhtbG5zOnJkZj0iaHR0cDovL3d3dy53My5vcmcvMTk5OS8wMi8yMi1yZGYtc3ludGF4LW5zIyIKICAgIHhtbG5zPSJodHRwOi8vd3d3LnczLm9yZy8yMDAwL3N2ZyIKICAgIHhtbG5zOmNjPSJodHRwOi8vY3JlYXRpdmVjb21tb25zLm9yZy9ucyMiCiAgICB4bWxuczpkYz0iaHR0cDovL3B1cmwub3JnL2RjL2VsZW1lbnRzLzEuMS8iCiAgICB4bWxuczpzb2RpcG9kaT0iaHR0cDovL3NvZGlwb2RpLnNvdXJjZWZvcmdlLm5ldC9EVEQvc29kaXBvZGktMC5kdGQiCiAgICB4bWxuczpzdmc9Imh0dHA6Ly93d3cudzMub3JnLzIwMDAvc3ZnIgogICAgeG1sbnM6bnMxPSJodHRwOi8vc296aS5iYWllcm91Z2UuZnIiCiAgICB4bWxuczp4bGluaz0iaHR0cDovL3d3dy53My5vcmcvMTk5OS94bGluayIKICAgIGlkPSJzdmc2NzQ2IgogICAgc29kaXBvZGk6ZG9jbmFtZT0iTm91dmVhdSBkb2N1bWVudCAzNyIKICAgIHZpZXdCb3g9IjAgMCAxMDguMzggMTUyLjA5IgogICAgdmVyc2lvbj0iMS4xIgogICAgaW5rc2NhcGU6dmVyc2lvbj0iMC40OC4zLjEgcjk4ODYiCiAgPgogIDxzb2RpcG9kaTpuYW1lZHZpZXcKICAgICAgaWQ9ImJhc2UiCiAgICAgIGJvcmRlcmNvbG9yPSIjNjY2NjY2IgogICAgICBpbmtzY2FwZTpwYWdlc2hhZG93PSIyIgogICAgICBpbmtzY2FwZTp3aW5kb3cteT0iMjQiCiAgICAgIGZpdC1tYXJnaW4tbGVmdD0iMCIKICAgICAgcGFnZWNvbG9yPSIjZmZmZmZmIgogICAgICBmaXQtbWFyZ2luLXRvcD0iMCIKICAgICAgaW5rc2NhcGU6d2luZG93LW1heGltaXplZD0iMCIKICAgICAgaW5rc2NhcGU6em9vbT0iMC4zNSIKICAgICAgaW5rc2NhcGU6d2luZG93LXg9IjQ5IgogICAgICBpbmtzY2FwZTp3aW5kb3ctaGVpZ2h0PSI0MTUiCiAgICAgIHNob3dncmlkPSJmYWxzZSIKICAgICAgYm9yZGVyb3BhY2l0eT0iMS4wIgogICAgICBpbmtzY2FwZTpjdXJyZW50LWxheWVyPSJsYXllcjEiCiAgICAgIGlua3NjYXBlOmN4PSItMTg0LjkwNjI1IgogICAgICBpbmtzY2FwZTpjeT0iMzMuMjAwMzE3IgogICAgICBmaXQtbWFyZ2luLXJpZ2h0PSIwIgogICAgICBmaXQtbWFyZ2luLWJvdHRvbT0iMCIKICAgICAgaW5rc2NhcGU6d2luZG93LXdpZHRoPSI0ODYiCiAgICAgIGlua3NjYXBlOnBhZ2VvcGFjaXR5PSIwLjAiCiAgICAgIGlua3NjYXBlOmRvY3VtZW50LXVuaXRzPSJweCIKICAvPgogIDxnCiAgICAgIGlkPSJsYXllcjEiCiAgICAgIGlua3NjYXBlOmxhYmVsPSJDYWxxdWUgMSIKICAgICAgaW5rc2NhcGU6Z3JvdXBtb2RlPSJsYXllciIKICAgICAgdHJhbnNmb3JtPSJ0cmFuc2xhdGUoLTU1OS45MSAtNDEzLjQ3KSIKICAgID4KICAgIDxwYXRoCiAgICAgICAgaWQ9InBhdGg5NTQiCiAgICAgICAgZD0ibTcxMy42OCA1MDguNjYiCiAgICAgICAgc3R5bGU9InN0cm9rZTojMDAwMDAwO3N0cm9rZS1taXRlcmxpbWl0OjEwO3N0cm9rZS13aWR0aDoxLjI1O2ZpbGw6bm9uZSIKICAgICAgICBpbmtzY2FwZTpjb25uZWN0b3ItY3VydmF0dXJlPSIwIgogICAgLz4KICAgIDxwYXRoCiAgICAgICAgaWQ9InBhdGg5NTYiCiAgICAgICAgZD0ibTU4Ni40IDQzMC4zNCAxNS0xNWg1MGwxNSAxNXYxMjBoLTgweiIKICAgICAgICBzdHlsZT0iZmlsbC1ydWxlOmV2ZW5vZGQ7c3Ryb2tlOiM3ZDdkN2Q7c3Ryb2tlLW1pdGVybGltaXQ6MTA7c3Ryb2tlLXdpZHRoOjMuNzU7ZmlsbDojZTFlMWUxIgogICAgICAgIGlua3NjYXBlOmNvbm5lY3Rvci1jdXJ2YXR1cmU9IjAiCiAgICAvPgogICAgPHBhdGgKICAgICAgICBpZD0icGF0aDk1OCIKICAgICAgICBkPSJtNTkzLjkgNDMyLjg0IDEyLjUtMTIuNWg0MGwxMi41IDEyLjV6IgogICAgICAgIHN0eWxlPSJmaWxsLXJ1bGU6ZXZlbm9kZDtzdHJva2U6IzljOWM5YztzdHJva2UtbWl0ZXJsaW1pdDoxMDtzdHJva2Utd2lkdGg6MS4yNTtmaWxsOiNiZGJkYmQiCiAgICAgICAgaW5rc2NhcGU6Y29ubmVjdG9yLWN1cnZhdHVyZT0iMCIKICAgIC8+CiAgICA8cGF0aAogICAgICAgIGlkPSJwYXRoOTYwIgogICAgICAgIGQ9Im01OTUuMTUgNDM1LjM0aDYyLjVjMC42ODg1IDAgMS4yNSAwLjU1NjYzIDEuMjUgMS4yNXYxMDcuNWMwIDAuNjg4NS0wLjU2MTUgMS4yNS0xLjI1IDEuMjVoLTYyLjVjLTAuNjkzMjUgMC0xLjI1LTAuNTYxNS0xLjI1LTEuMjV2LTEwNy41YzAtMC42OTMzNyAwLjU1Njc1LTEuMjUgMS4yNS0xLjI1IgogICAgICAgIHN0eWxlPSJzdHJva2UtbGluZWpvaW46cm91bmQ7ZmlsbC1ydWxlOmV2ZW5vZGQ7c3Ryb2tlOiM5YzljOWM7c3Ryb2tlLW1pdGVybGltaXQ6MTA7c3Ryb2tlLXdpZHRoOjEuMjU7ZmlsbDojYmRiZGJkIgogICAgICAgIGlua3NjYXBlOmNvbm5lY3Rvci1jdXJ2YXR1cmU9IjAiCiAgICAvPgogICAgPHBhdGgKICAgICAgICBpZD0icGF0aDk2MiIKICAgICAgICBkPSJtNjAwLjE1IDQ0Mi44NGg1Mi41YzAuNjg4NSAwIDEuMjUgMC41NTY2MyAxLjI1IDEuMjV2MTIuNWMwIDAuNjg4NDgtMC41NjE1IDEuMjUtMS4yNSAxLjI1aC01Mi41Yy0wLjY5MzI1IDAtMS4yNS0wLjU2MTUyLTEuMjUtMS4yNXYtMTIuNWMwLTAuNjkzMzcgMC41NTY3NS0xLjI1IDEuMjUtMS4yNSIKICAgICAgICBzdHlsZT0ic3Ryb2tlLWxpbmVqb2luOnJvdW5kO2ZpbGwtcnVsZTpldmVub2RkO3N0cm9rZTojN2Q3ZDdkO3N0cm9rZS1taXRlcmxpbWl0OjEwO3N0cm9rZS13aWR0aDozLjc1O2ZpbGw6IzljOWM5YyIKICAgICAgICBpbmtzY2FwZTpjb25uZWN0b3ItY3VydmF0dXJlPSIwIgogICAgLz4KICAgIDxwYXRoCiAgICAgICAgaWQ9InBhdGg5NjQiCiAgICAgICAgZD0ibTYwMC4xNSA0NjUuMzRoNTIuNWMwLjY4ODUgMCAxLjI1IDAuNTU2NjUgMS4yNSAxLjI1djEyLjVjMCAwLjY4ODQ4LTAuNTYxNSAxLjI1LTEuMjUgMS4yNWgtNTIuNWMtMC42OTMyNSAwLTEuMjUtMC41NjE1Mi0xLjI1LTEuMjV2LTEyLjVjMC0wLjY5MzM3IDAuNTU2NzUtMS4yNSAxLjI1LTEuMjUiCiAgICAgICAgc3R5bGU9InN0cm9rZS1saW5lam9pbjpyb3VuZDtmaWxsLXJ1bGU6ZXZlbm9kZDtzdHJva2U6IzdkN2Q3ZDtzdHJva2UtbWl0ZXJsaW1pdDoxMDtzdHJva2Utd2lkdGg6My43NTtmaWxsOiM5YzljOWMiCiAgICAgICAgaW5rc2NhcGU6Y29ubmVjdG9yLWN1cnZhdHVyZT0iMCIKICAgIC8+CiAgICA8cGF0aAogICAgICAgIGlkPSJwYXRoOTY2IgogICAgICAgIGQ9Im02MjIuNjUgNDkyLjg0aDMwYzAuNjg4NSAwIDEuMjUgMC41NTY2MyAxLjI1IDEuMjV2MTBjMCAwLjY4ODUtMC41NjE1IDEuMjUtMS4yNSAxLjI1aC0zMGMtMC42OTMyNSAwLTEuMjUtMC41NjE1LTEuMjUtMS4yNXYtMTBjMC0wLjY5MzM3IDAuNTU2NzUtMS4yNSAxLjI1LTEuMjUiCiAgICAgICAgc3R5bGU9InN0cm9rZS1saW5lam9pbjpyb3VuZDtmaWxsLXJ1bGU6ZXZlbm9kZDtzdHJva2U6IzdkN2Q3ZDtzdHJva2UtbWl0ZXJsaW1pdDoxMDtzdHJva2Utd2lkdGg6My43NTtmaWxsOiM5YzljOWMiCiAgICAgICAgaW5rc2NhcGU6Y29ubmVjdG9yLWN1cnZhdHVyZT0iMCIKICAgIC8+CiAgICA8cGF0aAogICAgICAgIGlkPSJwYXRoOTY4IgogICAgICAgIGQ9Im02MTMuOSA0OTkuMDljMCA4LjMzNS0xMi41IDguMzM1LTEyLjUgMHMxMi41LTguMzM1IDEyLjUgMCIKICAgICAgICBzdHlsZT0ic3Ryb2tlLWxpbmVqb2luOnJvdW5kO2ZpbGwtcnVsZTpldmVub2RkO3N0cm9rZTojN2Q3ZDdkO3N0cm9rZS1taXRlcmxpbWl0OjEwO3N0cm9rZS13aWR0aDoyLjU7ZmlsbDojYzUxOTAwIgogICAgICAgIGlua3NjYXBlOmNvbm5lY3Rvci1jdXJ2YXR1cmU9IjAiCiAgICAvPgogICAgPHBhdGgKICAgICAgICBpZD0icGF0aDk3MCIKICAgICAgICBkPSJtNjExLjQgNTE2LjY1aDV2MjcuNWgtNXoiCiAgICAgICAgc3R5bGU9ImZpbGwtcnVsZTpldmVub2RkO3N0cm9rZTojN2Q3ZDdkO3N0cm9rZS1taXRlcmxpbWl0OjEwO3N0cm9rZS13aWR0aDoyLjU7ZmlsbDojOWM5YzljIgogICAgICAgIGlua3NjYXBlOmNvbm5lY3Rvci1jdXJ2YXR1cmU9IjAiCiAgICAvPgogICAgPHBhdGgKICAgICAgICBpZD0icGF0aDk3MiIKICAgICAgICBkPSJtNjIxLjQgNTE2LjY1aDV2MjcuNWgtNXoiCiAgICAgICAgc3R5bGU9ImZpbGwtcnVsZTpldmVub2RkO3N0cm9rZTojN2Q3ZDdkO3N0cm9rZS1taXRlcmxpbWl0OjEwO3N0cm9rZS13aWR0aDoyLjU7ZmlsbDojOWM5YzljIgogICAgICAgIGlua3NjYXBlOmNvbm5lY3Rvci1jdXJ2YXR1cmU9IjAiCiAgICAvPgogICAgPHBhdGgKICAgICAgICBpZD0icGF0aDk3NCIKICAgICAgICBkPSJtNjMxLjQgNTE2LjY1aDV2MjcuNWgtNXoiCiAgICAgICAgc3R5bGU9ImZpbGwtcnVsZTpldmVub2RkO3N0cm9rZTojN2Q3ZDdkO3N0cm9rZS1taXRlcmxpbWl0OjEwO3N0cm9rZS13aWR0aDoyLjU7ZmlsbDojOWM5YzljIgogICAgICAgIGlua3NjYXBlOmNvbm5lY3Rvci1jdXJ2YXR1cmU9IjAiCiAgICAvPgogICAgPHBhdGgKICAgICAgICBpZD0icGF0aDk3NiIKICAgICAgICBkPSJtNjQxLjQgNTE2LjY1aDV2MjcuNWgtNXoiCiAgICAgICAgc3R5bGU9ImZpbGwtcnVsZTpldmVub2RkO3N0cm9rZTojN2Q3ZDdkO3N0cm9rZS1taXRlcmxpbWl0OjEwO3N0cm9rZS13aWR0aDoyLjU7ZmlsbDojOWM5YzljIgogICAgICAgIGlua3NjYXBlOmNvbm5lY3Rvci1jdXJ2YXR1cmU9IjAiCiAgICAvPgogICAgPHBhdGgKICAgICAgICBpZD0icGF0aDk3OCIKICAgICAgICBkPSJtNjUxLjQgNTE2LjdoNXYyNy41aC01eiIKICAgICAgICBzdHlsZT0iZmlsbC1ydWxlOmV2ZW5vZGQ7c3Ryb2tlOiM3ZDdkN2Q7c3Ryb2tlLW1pdGVybGltaXQ6MTA7c3Ryb2tlLXdpZHRoOjIuNTtmaWxsOiM5YzljOWMiCiAgICAgICAgaW5rc2NhcGU6Y29ubmVjdG9yLWN1cnZhdHVyZT0iMCIKICAgIC8+CiAgICA8cGF0aAogICAgICAgIGlkPSJwYXRoOTgwIgogICAgICAgIGQ9Im01NjkuNjUgNTM1LjQyIDIuNzE5Ny00LjM4NDggNi45OTcxLTEwLjY0LTAuMDUtMTUuODY5IDAuMzkwNzUtMS41MTg2IDAuNzIyNzUtMS4wMzAyIDEuMjc0NS0xLjQ1MDIgMS41MTg1LTEuMzA4NiAxLjIwMTItMC44ODM4IDEuOTgyNS0wLjYwMDU4aDEuNTE4NWwxLjYyNiAwLjAzNDIgMS43MzM1IDAuMzUxNTggMS45MDkyIDAuODQ5NiAxLjY2MDIgMC44NDk2IDEuNDExMiAxLjI3NDQgMS4wOTg4IDEuMzc3IDEuMTMyOCAxLjg3MDEgMC40OTMyNSAxLjk4MjUgMC4xNzUgMi43MjQ2IDAuMjUgNC43MDIyIDAuMDM1IDMuNDI3NyAzLjAwNzggMy45OTQyIDQuNTk0NyA2LjU3NzIgMi42NDY1IDQuOTg1NCAxLjM0NzggMy4yODYxIDAuMzA3NSAzLjExNTItMC4xNDc1IDIuMjAyMi0wLjIzIDIuMTA0NS0wLjgzOTc1IDMuNTE1Ni0wLjg1OTUgMi4zMTkyLTguODc3IDEzLjI5MS02LjM2MjMtMS45MDkyLTEwLjI0OSAwLjAzNS0zLjY0MjYgMi40MDcyLTkuMTU1My0xNC45OS0yLjc1ODgtNC42MzM4LTAuMTQyNS0yLjQzNjUgMC4zNjEyNS0yLjU3ODF6IgogICAgICAgIHN0eWxlPSJmaWxsLXJ1bGU6ZXZlbm9kZDtzdHJva2U6IzAwMDAwMDtzdHJva2UtbWl0ZXJsaW1pdDoxMDtzdHJva2Utd2lkdGg6MS4yNTtmaWxsOiMwMDAwMDAiCiAgICAgICAgaW5rc2NhcGU6Y29ubmVjdG9yLWN1cnZhdHVyZT0iMCIKICAgIC8+CiAgICA8cGF0aAogICAgICAgIGlkPSJwYXRoOTgyIgogICAgICAgIGQ9Im01ODQuOTIgNTExLjI3YzAgNC41NDEtNC40OTIyIDQuNTQxLTQuNDkyMiAwIDAtNC41MzYxIDQuNDkyMi00LjUzNjEgNC40OTIyIDAiCiAgICAgICAgc3R5bGU9ImZpbGwtcnVsZTpldmVub2RkO3N0cm9rZTojZmZmZmZmO3N0cm9rZS1taXRlcmxpbWl0OjEwO3N0cm9rZS13aWR0aDoxLjI1O2ZpbGw6I2ZmZmZmZiIKICAgICAgICBpbmtzY2FwZTpjb25uZWN0b3ItY3VydmF0dXJlPSIwIgogICAgLz4KICAgIDxwYXRoCiAgICAgICAgaWQ9InBhdGg5ODQiCiAgICAgICAgZD0ibTU4MS4xOSA1MjEuNTkgMC40MzQ1LTQuMDMzMiAxMi40MjctMS40ODkyIDAuMjEgMi45NDQzIDEuMzIzMiAyLjUxNDYgMC45MzI1IDIuMDg5OCAxLjc2NzUgMy43NTk4IDAuOTk2IDIuMDUwOCAxLjAwMSAxLjk1MzIgMC42MDU1IDEuOTU4IDAuNjU0MjUgMy4zODg3IDAuMTUyNSAzLjYyNzkgMC4xNTc1IDQuNzg1Mi0xLjc2MjggNS45NDczLTIuOTE1IDIuMzE0NS0xLjYzNTggMS40MDE1LTIuMzc4IDEuNTc3Mi0yLjA4IDEuMDY5Mi0xLjg3IDAuNTAzLTIuMDc1MiAwLjI3ODI1LTEuNzQzMi0wLjA1NzUtMi41MDk4LTAuMTYtMS4zMDg1LTAuNzA4LTEuMDY5Mi0wLjkwMzI1LTEuNzQzMi0yLjEwOTJoMS4yNTk4bDEuMDU0OC0wLjQxMDI1IDAuNTk1NzUtMC42ODg1IDAuMjA1LTEuMDM1Mi0wLjQxMDI1LTEuMTE4Mi01LjE1NjItNC42MDk0LTIuMDMxMi0yLjg5MDYtMC43MTMtMS44MTY1IDAuMDA1LTEuNTQ3OCAwLjY4MzUtMy4wMzIyIDEuMzY3Mi0zLjM1OTQgMS40NjQ4LTMuMzU0NSAxLjUwODgtMy40MjI4IDEuNDk0Mi0yLjg3NnoiCiAgICAgICAgc3R5bGU9ImZpbGwtcnVsZTpldmVub2RkO3N0cm9rZTojZmZmZmZmO3N0cm9rZS1taXRlcmxpbWl0OjEwO3N0cm9rZS13aWR0aDoxLjI1O2ZpbGw6I2ZmZmZmZiIKICAgICAgICBpbmtzY2FwZTpjb25uZWN0b3ItY3VydmF0dXJlPSIwIgogICAgLz4KICAgIDxwYXRoCiAgICAgICAgaWQ9InBhdGg5ODYiCiAgICAgICAgZD0ibTU5NC4wNCA1MTEuNzNjMCA2LjE0NzUtNS45NTIyIDYuMTQ3NS01Ljk1MjIgMCAwLTYuMTQyNiA1Ljk1MjItNi4xNDI2IDUuOTUyMiAwIgogICAgICAgIHN0eWxlPSJmaWxsLXJ1bGU6ZXZlbm9kZDtzdHJva2U6I2ZmZmZmZjtzdHJva2UtbWl0ZXJsaW1pdDoxMDtzdHJva2Utd2lkdGg6MS4yNTtmaWxsOiNmZmZmZmYiCiAgICAgICAgaW5rc2NhcGU6Y29ubmVjdG9yLWN1cnZhdHVyZT0iMCIKICAgIC8+CiAgICA8cGF0aAogICAgICAgIGlkPSJwYXRoOTg4IgogICAgICAgIGQ9Im01OTIuNDMgNTEyLjE2YzAgMi45MTk5LTMuMTM5NiAyLjkxOTktMy4xMzk2IDAgMC0yLjkyNDggMy4xMzk2LTIuOTI0OCAzLjEzOTYgMCIKICAgICAgICBzdHlsZT0iZmlsbC1ydWxlOmV2ZW5vZGQ7c3Ryb2tlOiMwMDAwMDA7c3Ryb2tlLW1pdGVybGltaXQ6MTA7c3Ryb2tlLXdpZHRoOjEuMjU7ZmlsbDojMDAwMDAwIgogICAgICAgIGlua3NjYXBlOmNvbm5lY3Rvci1jdXJ2YXR1cmU9IjAiCiAgICAvPgogICAgPHBhdGgKICAgICAgICBpZD0icGF0aDk5MCIKICAgICAgICBkPSJtNTgwLjU2IDUxNy4yMSAwLjA1NzUtMS4yMDEyIDEuMzk2NS0wLjkwMzI1IDEuNzQ4LTEuNDYgMS4yOTg4LTAuNjQ5NSAxLjAwNi0wLjIzIDEuNDU1IDAuMTMyNSAxLjY1NTIgMC42NDk1IDIuNDMxOCAwLjk3MTc1IDIuOTkzMiAxLjIwNi0wLjcyMjc1IDEuODI2Mi0yLjEzODggMS4zNDI4LTEuODE2NSAxLjIzNTItMS43MTg4IDAuOTcxNzUtMS43ODIyIDAuMzU2NS0wLjc0Ny0wLjA2MjUtMS45MTQtMS4wMDU4LTEuNDIxLTEuMzYyMi0xLjQ5NDItMS4yOTg4eiIKICAgICAgICBzdHlsZT0iZmlsbC1ydWxlOmV2ZW5vZGQ7c3Ryb2tlOiNjYTljMDA7c3Ryb2tlLW1pdGVybGltaXQ6MTA7c3Ryb2tlLXdpZHRoOjEuMjU7ZmlsbDojZmZjMjAwIgogICAgICAgIGlua3NjYXBlOmNvbm5lY3Rvci1jdXJ2YXR1cmU9IjAiCiAgICAvPgogICAgPHBhdGgKICAgICAgICBpZD0icGF0aDk5MiIKICAgICAgICBkPSJtNTgzLjc4IDUxMi4zNGMwIDIuMzg3OC0yLjU2ODQgMi4zODc4LTIuNTY4NCAwIDAtMi4zODI4IDIuNTY4NC0yLjM4MjggMi41Njg0IDAiCiAgICAgICAgc3R5bGU9ImZpbGwtcnVsZTpldmVub2RkO3N0cm9rZTojMDAwMDAwO3N0cm9rZS1taXRlcmxpbWl0OjEwO3N0cm9rZS13aWR0aDoxLjI1O2ZpbGw6IzAwMDAwMCIKICAgICAgICBpbmtzY2FwZTpjb25uZWN0b3ItY3VydmF0dXJlPSIwIgogICAgLz4KICAgIDxwYXRoCiAgICAgICAgaWQ9InBhdGg5OTQiCiAgICAgICAgZD0ibTU4MS41NCA1MTguMzIgMS4xNTcyIDAuNDYzNzUgMS4zMzggMC4zMzcwMSAxLjMyMzIgMC4wODc1IDEuMzQ3OC0wLjE1NSAyLjE1MzItMC43MzcyNSAxLjMzOC0wLjUxNzUgMS4wODg4LTAuNTE3NSAxLjE3MTgtMC43NjY1IgogICAgICAgIHN0eWxlPSJzdHJva2U6I2NhOWMwMDtzdHJva2UtbWl0ZXJsaW1pdDoxMDtzdHJva2Utd2lkdGg6MS4yNTtmaWxsOm5vbmUiCiAgICAgICAgaW5rc2NhcGU6Y29ubmVjdG9yLWN1cnZhdHVyZT0iMCIKICAgIC8+CiAgICA8cGF0aAogICAgICAgIGlkPSJwYXRoOTk2IgogICAgICAgIGQ9Im01NjAuNiA1NTkuNDIgMC4yNDUtMS4wMjUyIDAuNDYzNzUtMS4wNTk1IDAuNTI3MjUtMS4wMjU1IDAuMTQyNS0xLjIwMTItMC4yMS0xLjU1NzUtMC4yODMyNS0xLjc2NzUgMC4wMzUtMi4wODUgMC4xOC0xLjM3NyAwLjcwMy0wLjQ2Mzc1IDEuMDU5NS0wLjI0NSAxLjI0MDIgMC4wMzUgMS41NTI4LTAuMDM1IDEuMjA2LTAuODQ5NSAwLjc3NjUtMS4yNzQ1IDAuNzU2NzUtMS4zNTc1IDAuOTIyNzUtMC40MzQ1aDAuOTg2MjVsMS4wNzkgMC41NTE3NSA0LjgwNDcgNi44MzU5IDIuNTYzNSAzLjg0MjggMi4xODI4IDMuMTU5MiAwLjM4MDc1IDEuNTgyIDAuMDMgMS40OTktMC4yNzM1IDEuMTg2NS0wLjYzNDc1IDAuODEwNS0wLjk1NyAwLjYzOTc1LTEuNDg0MiAwLjQ5MzI1LTEuNzMzNSAwLjAzNS0zLjA3MTMtMC41OTU3NS00LjI0MzItMS40NTAyLTQuODQzOC0xLjM4MTgtMi41NDg4LTAuNDI0NzUtMC44MTA1LTAuMjF6IgogICAgICAgIHN0eWxlPSJmaWxsLXJ1bGU6ZXZlbm9kZDtzdHJva2U6I2NhOWMwMDtzdHJva2UtbWl0ZXJsaW1pdDoxMDtzdHJva2Utd2lkdGg6MS4yNTtmaWxsOiNmZmMyMDAiCiAgICAgICAgaW5rc2NhcGU6Y29ubmVjdG9yLWN1cnZhdHVyZT0iMCIKICAgIC8+CiAgICA8cGF0aAogICAgICAgIGlkPSJwYXRoOTk4IgogICAgICAgIGQ9Im02MDAuMiA1NjQuNzItMS42NDU1LTEuMDAxLTAuOTIyNzUtMS42OTQyLTAuMjM1LTIuNDcwOCAwLjY5ODI1LTIuNTA0OSAwLjQ1OS0yLjIzNjIgMC4yNzM1LTUuMTI3di0zLjUwNTlsMC4zODU3NS0xLjM4NjggMS4wNzktMC4zMTI1IDEuMzg2OCAwLjQ2Mzc0djEuMzkxNWwwLjI2ODUgMC44NDQ3NSAxLjExODIgMC45Mjc3NiAxLjIzNTIgMC41MzcgMS4yNjk1IDAuMjY4NSAxLjM5MTUtMC4xMTI1IDAuOTYyLTAuNDYzNzUgMC45MjI3NS0wLjY5MzI1IDAuNTQyLTEuMDA1OCAwLjMwNzUtMC45MjI3NSAwLjk2Njc1IDAuMDQgMC45MjI3NSAwLjg4Mzc1IDAuMzg1NzUgMi4wMDY4IDAuMTU3NSAxLjE1NzIgMC43MzI1IDEuMDAxIDEuMDQgMS4xNTcyIDEuNTgyIDEuMDQgMS42MjEgMS4yNTUtMC40Njg3NSAxLjE3NjgtMC43MzI1IDEuMTE4Mi0yLjAwMiAxLjM4NjgtMS44MTE1IDAuNjkzMjQtMi40MzE4IDEuMzUyNS0yLjE5NzIgMS43Mjg1LTMuMTk4MiAyLjQzMTgtMi4xMTkyIDAuNzcxNXoiCiAgICAgICAgc3R5bGU9ImZpbGwtcnVsZTpldmVub2RkO3N0cm9rZTojY2E5YzAwO3N0cm9rZS1taXRlcmxpbWl0OjEwO3N0cm9rZS13aWR0aDoxLjI1O2ZpbGw6I2ZmYzIwMCIKICAgICAgICBpbmtzY2FwZTpjb25uZWN0b3ItY3VydmF0dXJlPSIwIgogICAgLz4KICA8L2cKICA+CiAgPG1ldGFkYXRhCiAgICA+CiAgICA8cmRmOlJERgogICAgICA+CiAgICAgIDxjYzpXb3JrCiAgICAgICAgPgogICAgICAgIDxkYzpmb3JtYXQKICAgICAgICAgID5pbWFnZS9zdmcreG1sPC9kYzpmb3JtYXQKICAgICAgICA+CiAgICAgICAgPGRjOnR5cGUKICAgICAgICAgICAgcmRmOnJlc291cmNlPSJodHRwOi8vcHVybC5vcmcvZGMvZGNtaXR5cGUvU3RpbGxJbWFnZSIKICAgICAgICAvPgogICAgICAgIDxjYzpsaWNlbnNlCiAgICAgICAgICAgIHJkZjpyZXNvdXJjZT0iaHR0cDovL2NyZWF0aXZlY29tbW9ucy5vcmcvbGljZW5zZXMvcHVibGljZG9tYWluLyIKICAgICAgICAvPgogICAgICAgIDxkYzpwdWJsaXNoZXIKICAgICAgICAgID4KICAgICAgICAgIDxjYzpBZ2VudAogICAgICAgICAgICAgIHJkZjphYm91dD0iaHR0cDovL29wZW5jbGlwYXJ0Lm9yZy8iCiAgICAgICAgICAgID4KICAgICAgICAgICAgPGRjOnRpdGxlCiAgICAgICAgICAgICAgPk9wZW5jbGlwYXJ0PC9kYzp0aXRsZQogICAgICAgICAgICA+CiAgICAgICAgICA8L2NjOkFnZW50CiAgICAgICAgICA+CiAgICAgICAgPC9kYzpwdWJsaXNoZXIKICAgICAgICA+CiAgICAgICAgPGRjOnRpdGxlCiAgICAgICAgICA+U2VydmVyIC0gbGludXg8L2RjOnRpdGxlCiAgICAgICAgPgogICAgICAgIDxkYzpkYXRlCiAgICAgICAgICA+MjAxMi0wOC0wMlQxNDoyNzozOTwvZGM6ZGF0ZQogICAgICAgID4KICAgICAgICA8ZGM6ZGVzY3JpcHRpb24KICAgICAgICAvPgogICAgICAgIDxkYzpzb3VyY2UKICAgICAgICAgID5odHRwczovL29wZW5jbGlwYXJ0Lm9yZy9kZXRhaWwvMTcxNDIyL3NlcnZlci0tLWxpbnV4LWJ5LWN5YmVyc2Nvb3R5LTE3MTQyMjwvZGM6c291cmNlCiAgICAgICAgPgogICAgICAgIDxkYzpjcmVhdG9yCiAgICAgICAgICA+CiAgICAgICAgICA8Y2M6QWdlbnQKICAgICAgICAgICAgPgogICAgICAgICAgICA8ZGM6dGl0bGUKICAgICAgICAgICAgICA+Y3liZXJzY29vdHk8L2RjOnRpdGxlCiAgICAgICAgICAgID4KICAgICAgICAgIDwvY2M6QWdlbnQKICAgICAgICAgID4KICAgICAgICA8L2RjOmNyZWF0b3IKICAgICAgICA+CiAgICAgICAgPGRjOnN1YmplY3QKICAgICAgICAgID4KICAgICAgICAgIDxyZGY6QmFnCiAgICAgICAgICAgID4KICAgICAgICAgICAgPHJkZjpsaQogICAgICAgICAgICAgID5jb21wdXRlcjwvcmRmOmxpCiAgICAgICAgICAgID4KICAgICAgICAgICAgPHJkZjpsaQogICAgICAgICAgICAgID5pbmZvcm1hdGlxdWU8L3JkZjpsaQogICAgICAgICAgICA+CiAgICAgICAgICAgIDxyZGY6bGkKICAgICAgICAgICAgICA+aXQ8L3JkZjpsaQogICAgICAgICAgICA+CiAgICAgICAgICAgIDxyZGY6bGkKICAgICAgICAgICAgICA+bGludXg8L3JkZjpsaQogICAgICAgICAgICA+CiAgICAgICAgICAgIDxyZGY6bGkKICAgICAgICAgICAgICA+b3JkaW5hdGV1cjwvcmRmOmxpCiAgICAgICAgICAgID4KICAgICAgICAgICAgPHJkZjpsaQogICAgICAgICAgICAgID5zZXJ2ZXI8L3JkZjpsaQogICAgICAgICAgICA+CiAgICAgICAgICAgIDxyZGY6bGkKICAgICAgICAgICAgICA+c2VydmV1cjwvcmRmOmxpCiAgICAgICAgICAgID4KICAgICAgICAgICAgPHJkZjpsaQogICAgICAgICAgICAgID50dXg8L3JkZjpsaQogICAgICAgICAgICA+CiAgICAgICAgICA8L3JkZjpCYWcKICAgICAgICAgID4KICAgICAgICA8L2RjOnN1YmplY3QKICAgICAgICA+CiAgICAgIDwvY2M6V29yawogICAgICA+CiAgICAgIDxjYzpMaWNlbnNlCiAgICAgICAgICByZGY6YWJvdXQ9Imh0dHA6Ly9jcmVhdGl2ZWNvbW1vbnMub3JnL2xpY2Vuc2VzL3B1YmxpY2RvbWFpbi8iCiAgICAgICAgPgogICAgICAgIDxjYzpwZXJtaXRzCiAgICAgICAgICAgIHJkZjpyZXNvdXJjZT0iaHR0cDovL2NyZWF0aXZlY29tbW9ucy5vcmcvbnMjUmVwcm9kdWN0aW9uIgogICAgICAgIC8+CiAgICAgICAgPGNjOnBlcm1pdHMKICAgICAgICAgICAgcmRmOnJlc291cmNlPSJodHRwOi8vY3JlYXRpdmVjb21tb25zLm9yZy9ucyNEaXN0cmlidXRpb24iCiAgICAgICAgLz4KICAgICAgICA8Y2M6cGVybWl0cwogICAgICAgICAgICByZGY6cmVzb3VyY2U9Imh0dHA6Ly9jcmVhdGl2ZWNvbW1vbnMub3JnL25zI0Rlcml2YXRpdmVXb3JrcyIKICAgICAgICAvPgogICAgICA8L2NjOkxpY2Vuc2UKICAgICAgPgogICAgPC9yZGY6UkRGCiAgICA+CiAgPC9tZXRhZGF0YQogID4KPC9zdmcKPgo=;" parent="1" vertex="1">
          <mxGeometry x="300" y="570" width="35.67" height="50" as="geometry" />
        </mxCell>
        <mxCell id="srdscHzhea0q-TOiqJzr-19" value="" style="shape=image;aspect=fixed;image=data:image/svg+xml,PD94bWwgdmVyc2lvbj0iMS4wIiBlbmNvZGluZz0iVVRGLTgiIHN0YW5kYWxvbmU9Im5vIj8+CjwhLS0gQ3JlYXRlZCB3aXRoIElua3NjYXBlIChodHRwOi8vd3d3Lmlua3NjYXBlLm9yZy8pIC0tPgo8c3ZnCiAgICB4bWxuczppbmtzY2FwZT0iaHR0cDovL3d3dy5pbmtzY2FwZS5vcmcvbmFtZXNwYWNlcy9pbmtzY2FwZSIKICAgIHhtbG5zOnJkZj0iaHR0cDovL3d3dy53My5vcmcvMTk5OS8wMi8yMi1yZGYtc3ludGF4LW5zIyIKICAgIHhtbG5zPSJodHRwOi8vd3d3LnczLm9yZy8yMDAwL3N2ZyIKICAgIHhtbG5zOmNjPSJodHRwOi8vY3JlYXRpdmVjb21tb25zLm9yZy9ucyMiCiAgICB4bWxuczpkYz0iaHR0cDovL3B1cmwub3JnL2RjL2VsZW1lbnRzLzEuMS8iCiAgICB4bWxuczpzb2RpcG9kaT0iaHR0cDovL3NvZGlwb2RpLnNvdXJjZWZvcmdlLm5ldC9EVEQvc29kaXBvZGktMC5kdGQiCiAgICB4bWxuczpzdmc9Imh0dHA6Ly93d3cudzMub3JnLzIwMDAvc3ZnIgogICAgeG1sbnM6bnMxPSJodHRwOi8vc296aS5iYWllcm91Z2UuZnIiCiAgICB4bWxuczp4bGluaz0iaHR0cDovL3d3dy53My5vcmcvMTk5OS94bGluayIKICAgIGlkPSJzdmc2NzQ2IgogICAgc29kaXBvZGk6ZG9jbmFtZT0iTm91dmVhdSBkb2N1bWVudCAzNyIKICAgIHZpZXdCb3g9IjAgMCAxMDguMzggMTUyLjA5IgogICAgdmVyc2lvbj0iMS4xIgogICAgaW5rc2NhcGU6dmVyc2lvbj0iMC40OC4zLjEgcjk4ODYiCiAgPgogIDxzb2RpcG9kaTpuYW1lZHZpZXcKICAgICAgaWQ9ImJhc2UiCiAgICAgIGJvcmRlcmNvbG9yPSIjNjY2NjY2IgogICAgICBpbmtzY2FwZTpwYWdlc2hhZG93PSIyIgogICAgICBpbmtzY2FwZTp3aW5kb3cteT0iMjQiCiAgICAgIGZpdC1tYXJnaW4tbGVmdD0iMCIKICAgICAgcGFnZWNvbG9yPSIjZmZmZmZmIgogICAgICBmaXQtbWFyZ2luLXRvcD0iMCIKICAgICAgaW5rc2NhcGU6d2luZG93LW1heGltaXplZD0iMCIKICAgICAgaW5rc2NhcGU6em9vbT0iMC4zNSIKICAgICAgaW5rc2NhcGU6d2luZG93LXg9IjQ5IgogICAgICBpbmtzY2FwZTp3aW5kb3ctaGVpZ2h0PSI0MTUiCiAgICAgIHNob3dncmlkPSJmYWxzZSIKICAgICAgYm9yZGVyb3BhY2l0eT0iMS4wIgogICAgICBpbmtzY2FwZTpjdXJyZW50LWxheWVyPSJsYXllcjEiCiAgICAgIGlua3NjYXBlOmN4PSItMTg0LjkwNjI1IgogICAgICBpbmtzY2FwZTpjeT0iMzMuMjAwMzE3IgogICAgICBmaXQtbWFyZ2luLXJpZ2h0PSIwIgogICAgICBmaXQtbWFyZ2luLWJvdHRvbT0iMCIKICAgICAgaW5rc2NhcGU6d2luZG93LXdpZHRoPSI0ODYiCiAgICAgIGlua3NjYXBlOnBhZ2VvcGFjaXR5PSIwLjAiCiAgICAgIGlua3NjYXBlOmRvY3VtZW50LXVuaXRzPSJweCIKICAvPgogIDxnCiAgICAgIGlkPSJsYXllcjEiCiAgICAgIGlua3NjYXBlOmxhYmVsPSJDYWxxdWUgMSIKICAgICAgaW5rc2NhcGU6Z3JvdXBtb2RlPSJsYXllciIKICAgICAgdHJhbnNmb3JtPSJ0cmFuc2xhdGUoLTU1OS45MSAtNDEzLjQ3KSIKICAgID4KICAgIDxwYXRoCiAgICAgICAgaWQ9InBhdGg5NTQiCiAgICAgICAgZD0ibTcxMy42OCA1MDguNjYiCiAgICAgICAgc3R5bGU9InN0cm9rZTojMDAwMDAwO3N0cm9rZS1taXRlcmxpbWl0OjEwO3N0cm9rZS13aWR0aDoxLjI1O2ZpbGw6bm9uZSIKICAgICAgICBpbmtzY2FwZTpjb25uZWN0b3ItY3VydmF0dXJlPSIwIgogICAgLz4KICAgIDxwYXRoCiAgICAgICAgaWQ9InBhdGg5NTYiCiAgICAgICAgZD0ibTU4Ni40IDQzMC4zNCAxNS0xNWg1MGwxNSAxNXYxMjBoLTgweiIKICAgICAgICBzdHlsZT0iZmlsbC1ydWxlOmV2ZW5vZGQ7c3Ryb2tlOiM3ZDdkN2Q7c3Ryb2tlLW1pdGVybGltaXQ6MTA7c3Ryb2tlLXdpZHRoOjMuNzU7ZmlsbDojZTFlMWUxIgogICAgICAgIGlua3NjYXBlOmNvbm5lY3Rvci1jdXJ2YXR1cmU9IjAiCiAgICAvPgogICAgPHBhdGgKICAgICAgICBpZD0icGF0aDk1OCIKICAgICAgICBkPSJtNTkzLjkgNDMyLjg0IDEyLjUtMTIuNWg0MGwxMi41IDEyLjV6IgogICAgICAgIHN0eWxlPSJmaWxsLXJ1bGU6ZXZlbm9kZDtzdHJva2U6IzljOWM5YztzdHJva2UtbWl0ZXJsaW1pdDoxMDtzdHJva2Utd2lkdGg6MS4yNTtmaWxsOiNiZGJkYmQiCiAgICAgICAgaW5rc2NhcGU6Y29ubmVjdG9yLWN1cnZhdHVyZT0iMCIKICAgIC8+CiAgICA8cGF0aAogICAgICAgIGlkPSJwYXRoOTYwIgogICAgICAgIGQ9Im01OTUuMTUgNDM1LjM0aDYyLjVjMC42ODg1IDAgMS4yNSAwLjU1NjYzIDEuMjUgMS4yNXYxMDcuNWMwIDAuNjg4NS0wLjU2MTUgMS4yNS0xLjI1IDEuMjVoLTYyLjVjLTAuNjkzMjUgMC0xLjI1LTAuNTYxNS0xLjI1LTEuMjV2LTEwNy41YzAtMC42OTMzNyAwLjU1Njc1LTEuMjUgMS4yNS0xLjI1IgogICAgICAgIHN0eWxlPSJzdHJva2UtbGluZWpvaW46cm91bmQ7ZmlsbC1ydWxlOmV2ZW5vZGQ7c3Ryb2tlOiM5YzljOWM7c3Ryb2tlLW1pdGVybGltaXQ6MTA7c3Ryb2tlLXdpZHRoOjEuMjU7ZmlsbDojYmRiZGJkIgogICAgICAgIGlua3NjYXBlOmNvbm5lY3Rvci1jdXJ2YXR1cmU9IjAiCiAgICAvPgogICAgPHBhdGgKICAgICAgICBpZD0icGF0aDk2MiIKICAgICAgICBkPSJtNjAwLjE1IDQ0Mi44NGg1Mi41YzAuNjg4NSAwIDEuMjUgMC41NTY2MyAxLjI1IDEuMjV2MTIuNWMwIDAuNjg4NDgtMC41NjE1IDEuMjUtMS4yNSAxLjI1aC01Mi41Yy0wLjY5MzI1IDAtMS4yNS0wLjU2MTUyLTEuMjUtMS4yNXYtMTIuNWMwLTAuNjkzMzcgMC41NTY3NS0xLjI1IDEuMjUtMS4yNSIKICAgICAgICBzdHlsZT0ic3Ryb2tlLWxpbmVqb2luOnJvdW5kO2ZpbGwtcnVsZTpldmVub2RkO3N0cm9rZTojN2Q3ZDdkO3N0cm9rZS1taXRlcmxpbWl0OjEwO3N0cm9rZS13aWR0aDozLjc1O2ZpbGw6IzljOWM5YyIKICAgICAgICBpbmtzY2FwZTpjb25uZWN0b3ItY3VydmF0dXJlPSIwIgogICAgLz4KICAgIDxwYXRoCiAgICAgICAgaWQ9InBhdGg5NjQiCiAgICAgICAgZD0ibTYwMC4xNSA0NjUuMzRoNTIuNWMwLjY4ODUgMCAxLjI1IDAuNTU2NjUgMS4yNSAxLjI1djEyLjVjMCAwLjY4ODQ4LTAuNTYxNSAxLjI1LTEuMjUgMS4yNWgtNTIuNWMtMC42OTMyNSAwLTEuMjUtMC41NjE1Mi0xLjI1LTEuMjV2LTEyLjVjMC0wLjY5MzM3IDAuNTU2NzUtMS4yNSAxLjI1LTEuMjUiCiAgICAgICAgc3R5bGU9InN0cm9rZS1saW5lam9pbjpyb3VuZDtmaWxsLXJ1bGU6ZXZlbm9kZDtzdHJva2U6IzdkN2Q3ZDtzdHJva2UtbWl0ZXJsaW1pdDoxMDtzdHJva2Utd2lkdGg6My43NTtmaWxsOiM5YzljOWMiCiAgICAgICAgaW5rc2NhcGU6Y29ubmVjdG9yLWN1cnZhdHVyZT0iMCIKICAgIC8+CiAgICA8cGF0aAogICAgICAgIGlkPSJwYXRoOTY2IgogICAgICAgIGQ9Im02MjIuNjUgNDkyLjg0aDMwYzAuNjg4NSAwIDEuMjUgMC41NTY2MyAxLjI1IDEuMjV2MTBjMCAwLjY4ODUtMC41NjE1IDEuMjUtMS4yNSAxLjI1aC0zMGMtMC42OTMyNSAwLTEuMjUtMC41NjE1LTEuMjUtMS4yNXYtMTBjMC0wLjY5MzM3IDAuNTU2NzUtMS4yNSAxLjI1LTEuMjUiCiAgICAgICAgc3R5bGU9InN0cm9rZS1saW5lam9pbjpyb3VuZDtmaWxsLXJ1bGU6ZXZlbm9kZDtzdHJva2U6IzdkN2Q3ZDtzdHJva2UtbWl0ZXJsaW1pdDoxMDtzdHJva2Utd2lkdGg6My43NTtmaWxsOiM5YzljOWMiCiAgICAgICAgaW5rc2NhcGU6Y29ubmVjdG9yLWN1cnZhdHVyZT0iMCIKICAgIC8+CiAgICA8cGF0aAogICAgICAgIGlkPSJwYXRoOTY4IgogICAgICAgIGQ9Im02MTMuOSA0OTkuMDljMCA4LjMzNS0xMi41IDguMzM1LTEyLjUgMHMxMi41LTguMzM1IDEyLjUgMCIKICAgICAgICBzdHlsZT0ic3Ryb2tlLWxpbmVqb2luOnJvdW5kO2ZpbGwtcnVsZTpldmVub2RkO3N0cm9rZTojN2Q3ZDdkO3N0cm9rZS1taXRlcmxpbWl0OjEwO3N0cm9rZS13aWR0aDoyLjU7ZmlsbDojYzUxOTAwIgogICAgICAgIGlua3NjYXBlOmNvbm5lY3Rvci1jdXJ2YXR1cmU9IjAiCiAgICAvPgogICAgPHBhdGgKICAgICAgICBpZD0icGF0aDk3MCIKICAgICAgICBkPSJtNjExLjQgNTE2LjY1aDV2MjcuNWgtNXoiCiAgICAgICAgc3R5bGU9ImZpbGwtcnVsZTpldmVub2RkO3N0cm9rZTojN2Q3ZDdkO3N0cm9rZS1taXRlcmxpbWl0OjEwO3N0cm9rZS13aWR0aDoyLjU7ZmlsbDojOWM5YzljIgogICAgICAgIGlua3NjYXBlOmNvbm5lY3Rvci1jdXJ2YXR1cmU9IjAiCiAgICAvPgogICAgPHBhdGgKICAgICAgICBpZD0icGF0aDk3MiIKICAgICAgICBkPSJtNjIxLjQgNTE2LjY1aDV2MjcuNWgtNXoiCiAgICAgICAgc3R5bGU9ImZpbGwtcnVsZTpldmVub2RkO3N0cm9rZTojN2Q3ZDdkO3N0cm9rZS1taXRlcmxpbWl0OjEwO3N0cm9rZS13aWR0aDoyLjU7ZmlsbDojOWM5YzljIgogICAgICAgIGlua3NjYXBlOmNvbm5lY3Rvci1jdXJ2YXR1cmU9IjAiCiAgICAvPgogICAgPHBhdGgKICAgICAgICBpZD0icGF0aDk3NCIKICAgICAgICBkPSJtNjMxLjQgNTE2LjY1aDV2MjcuNWgtNXoiCiAgICAgICAgc3R5bGU9ImZpbGwtcnVsZTpldmVub2RkO3N0cm9rZTojN2Q3ZDdkO3N0cm9rZS1taXRlcmxpbWl0OjEwO3N0cm9rZS13aWR0aDoyLjU7ZmlsbDojOWM5YzljIgogICAgICAgIGlua3NjYXBlOmNvbm5lY3Rvci1jdXJ2YXR1cmU9IjAiCiAgICAvPgogICAgPHBhdGgKICAgICAgICBpZD0icGF0aDk3NiIKICAgICAgICBkPSJtNjQxLjQgNTE2LjY1aDV2MjcuNWgtNXoiCiAgICAgICAgc3R5bGU9ImZpbGwtcnVsZTpldmVub2RkO3N0cm9rZTojN2Q3ZDdkO3N0cm9rZS1taXRlcmxpbWl0OjEwO3N0cm9rZS13aWR0aDoyLjU7ZmlsbDojOWM5YzljIgogICAgICAgIGlua3NjYXBlOmNvbm5lY3Rvci1jdXJ2YXR1cmU9IjAiCiAgICAvPgogICAgPHBhdGgKICAgICAgICBpZD0icGF0aDk3OCIKICAgICAgICBkPSJtNjUxLjQgNTE2LjdoNXYyNy41aC01eiIKICAgICAgICBzdHlsZT0iZmlsbC1ydWxlOmV2ZW5vZGQ7c3Ryb2tlOiM3ZDdkN2Q7c3Ryb2tlLW1pdGVybGltaXQ6MTA7c3Ryb2tlLXdpZHRoOjIuNTtmaWxsOiM5YzljOWMiCiAgICAgICAgaW5rc2NhcGU6Y29ubmVjdG9yLWN1cnZhdHVyZT0iMCIKICAgIC8+CiAgICA8cGF0aAogICAgICAgIGlkPSJwYXRoOTgwIgogICAgICAgIGQ9Im01NjkuNjUgNTM1LjQyIDIuNzE5Ny00LjM4NDggNi45OTcxLTEwLjY0LTAuMDUtMTUuODY5IDAuMzkwNzUtMS41MTg2IDAuNzIyNzUtMS4wMzAyIDEuMjc0NS0xLjQ1MDIgMS41MTg1LTEuMzA4NiAxLjIwMTItMC44ODM4IDEuOTgyNS0wLjYwMDU4aDEuNTE4NWwxLjYyNiAwLjAzNDIgMS43MzM1IDAuMzUxNTggMS45MDkyIDAuODQ5NiAxLjY2MDIgMC44NDk2IDEuNDExMiAxLjI3NDQgMS4wOTg4IDEuMzc3IDEuMTMyOCAxLjg3MDEgMC40OTMyNSAxLjk4MjUgMC4xNzUgMi43MjQ2IDAuMjUgNC43MDIyIDAuMDM1IDMuNDI3NyAzLjAwNzggMy45OTQyIDQuNTk0NyA2LjU3NzIgMi42NDY1IDQuOTg1NCAxLjM0NzggMy4yODYxIDAuMzA3NSAzLjExNTItMC4xNDc1IDIuMjAyMi0wLjIzIDIuMTA0NS0wLjgzOTc1IDMuNTE1Ni0wLjg1OTUgMi4zMTkyLTguODc3IDEzLjI5MS02LjM2MjMtMS45MDkyLTEwLjI0OSAwLjAzNS0zLjY0MjYgMi40MDcyLTkuMTU1My0xNC45OS0yLjc1ODgtNC42MzM4LTAuMTQyNS0yLjQzNjUgMC4zNjEyNS0yLjU3ODF6IgogICAgICAgIHN0eWxlPSJmaWxsLXJ1bGU6ZXZlbm9kZDtzdHJva2U6IzAwMDAwMDtzdHJva2UtbWl0ZXJsaW1pdDoxMDtzdHJva2Utd2lkdGg6MS4yNTtmaWxsOiMwMDAwMDAiCiAgICAgICAgaW5rc2NhcGU6Y29ubmVjdG9yLWN1cnZhdHVyZT0iMCIKICAgIC8+CiAgICA8cGF0aAogICAgICAgIGlkPSJwYXRoOTgyIgogICAgICAgIGQ9Im01ODQuOTIgNTExLjI3YzAgNC41NDEtNC40OTIyIDQuNTQxLTQuNDkyMiAwIDAtNC41MzYxIDQuNDkyMi00LjUzNjEgNC40OTIyIDAiCiAgICAgICAgc3R5bGU9ImZpbGwtcnVsZTpldmVub2RkO3N0cm9rZTojZmZmZmZmO3N0cm9rZS1taXRlcmxpbWl0OjEwO3N0cm9rZS13aWR0aDoxLjI1O2ZpbGw6I2ZmZmZmZiIKICAgICAgICBpbmtzY2FwZTpjb25uZWN0b3ItY3VydmF0dXJlPSIwIgogICAgLz4KICAgIDxwYXRoCiAgICAgICAgaWQ9InBhdGg5ODQiCiAgICAgICAgZD0ibTU4MS4xOSA1MjEuNTkgMC40MzQ1LTQuMDMzMiAxMi40MjctMS40ODkyIDAuMjEgMi45NDQzIDEuMzIzMiAyLjUxNDYgMC45MzI1IDIuMDg5OCAxLjc2NzUgMy43NTk4IDAuOTk2IDIuMDUwOCAxLjAwMSAxLjk1MzIgMC42MDU1IDEuOTU4IDAuNjU0MjUgMy4zODg3IDAuMTUyNSAzLjYyNzkgMC4xNTc1IDQuNzg1Mi0xLjc2MjggNS45NDczLTIuOTE1IDIuMzE0NS0xLjYzNTggMS40MDE1LTIuMzc4IDEuNTc3Mi0yLjA4IDEuMDY5Mi0xLjg3IDAuNTAzLTIuMDc1MiAwLjI3ODI1LTEuNzQzMi0wLjA1NzUtMi41MDk4LTAuMTYtMS4zMDg1LTAuNzA4LTEuMDY5Mi0wLjkwMzI1LTEuNzQzMi0yLjEwOTJoMS4yNTk4bDEuMDU0OC0wLjQxMDI1IDAuNTk1NzUtMC42ODg1IDAuMjA1LTEuMDM1Mi0wLjQxMDI1LTEuMTE4Mi01LjE1NjItNC42MDk0LTIuMDMxMi0yLjg5MDYtMC43MTMtMS44MTY1IDAuMDA1LTEuNTQ3OCAwLjY4MzUtMy4wMzIyIDEuMzY3Mi0zLjM1OTQgMS40NjQ4LTMuMzU0NSAxLjUwODgtMy40MjI4IDEuNDk0Mi0yLjg3NnoiCiAgICAgICAgc3R5bGU9ImZpbGwtcnVsZTpldmVub2RkO3N0cm9rZTojZmZmZmZmO3N0cm9rZS1taXRlcmxpbWl0OjEwO3N0cm9rZS13aWR0aDoxLjI1O2ZpbGw6I2ZmZmZmZiIKICAgICAgICBpbmtzY2FwZTpjb25uZWN0b3ItY3VydmF0dXJlPSIwIgogICAgLz4KICAgIDxwYXRoCiAgICAgICAgaWQ9InBhdGg5ODYiCiAgICAgICAgZD0ibTU5NC4wNCA1MTEuNzNjMCA2LjE0NzUtNS45NTIyIDYuMTQ3NS01Ljk1MjIgMCAwLTYuMTQyNiA1Ljk1MjItNi4xNDI2IDUuOTUyMiAwIgogICAgICAgIHN0eWxlPSJmaWxsLXJ1bGU6ZXZlbm9kZDtzdHJva2U6I2ZmZmZmZjtzdHJva2UtbWl0ZXJsaW1pdDoxMDtzdHJva2Utd2lkdGg6MS4yNTtmaWxsOiNmZmZmZmYiCiAgICAgICAgaW5rc2NhcGU6Y29ubmVjdG9yLWN1cnZhdHVyZT0iMCIKICAgIC8+CiAgICA8cGF0aAogICAgICAgIGlkPSJwYXRoOTg4IgogICAgICAgIGQ9Im01OTIuNDMgNTEyLjE2YzAgMi45MTk5LTMuMTM5NiAyLjkxOTktMy4xMzk2IDAgMC0yLjkyNDggMy4xMzk2LTIuOTI0OCAzLjEzOTYgMCIKICAgICAgICBzdHlsZT0iZmlsbC1ydWxlOmV2ZW5vZGQ7c3Ryb2tlOiMwMDAwMDA7c3Ryb2tlLW1pdGVybGltaXQ6MTA7c3Ryb2tlLXdpZHRoOjEuMjU7ZmlsbDojMDAwMDAwIgogICAgICAgIGlua3NjYXBlOmNvbm5lY3Rvci1jdXJ2YXR1cmU9IjAiCiAgICAvPgogICAgPHBhdGgKICAgICAgICBpZD0icGF0aDk5MCIKICAgICAgICBkPSJtNTgwLjU2IDUxNy4yMSAwLjA1NzUtMS4yMDEyIDEuMzk2NS0wLjkwMzI1IDEuNzQ4LTEuNDYgMS4yOTg4LTAuNjQ5NSAxLjAwNi0wLjIzIDEuNDU1IDAuMTMyNSAxLjY1NTIgMC42NDk1IDIuNDMxOCAwLjk3MTc1IDIuOTkzMiAxLjIwNi0wLjcyMjc1IDEuODI2Mi0yLjEzODggMS4zNDI4LTEuODE2NSAxLjIzNTItMS43MTg4IDAuOTcxNzUtMS43ODIyIDAuMzU2NS0wLjc0Ny0wLjA2MjUtMS45MTQtMS4wMDU4LTEuNDIxLTEuMzYyMi0xLjQ5NDItMS4yOTg4eiIKICAgICAgICBzdHlsZT0iZmlsbC1ydWxlOmV2ZW5vZGQ7c3Ryb2tlOiNjYTljMDA7c3Ryb2tlLW1pdGVybGltaXQ6MTA7c3Ryb2tlLXdpZHRoOjEuMjU7ZmlsbDojZmZjMjAwIgogICAgICAgIGlua3NjYXBlOmNvbm5lY3Rvci1jdXJ2YXR1cmU9IjAiCiAgICAvPgogICAgPHBhdGgKICAgICAgICBpZD0icGF0aDk5MiIKICAgICAgICBkPSJtNTgzLjc4IDUxMi4zNGMwIDIuMzg3OC0yLjU2ODQgMi4zODc4LTIuNTY4NCAwIDAtMi4zODI4IDIuNTY4NC0yLjM4MjggMi41Njg0IDAiCiAgICAgICAgc3R5bGU9ImZpbGwtcnVsZTpldmVub2RkO3N0cm9rZTojMDAwMDAwO3N0cm9rZS1taXRlcmxpbWl0OjEwO3N0cm9rZS13aWR0aDoxLjI1O2ZpbGw6IzAwMDAwMCIKICAgICAgICBpbmtzY2FwZTpjb25uZWN0b3ItY3VydmF0dXJlPSIwIgogICAgLz4KICAgIDxwYXRoCiAgICAgICAgaWQ9InBhdGg5OTQiCiAgICAgICAgZD0ibTU4MS41NCA1MTguMzIgMS4xNTcyIDAuNDYzNzUgMS4zMzggMC4zMzcwMSAxLjMyMzIgMC4wODc1IDEuMzQ3OC0wLjE1NSAyLjE1MzItMC43MzcyNSAxLjMzOC0wLjUxNzUgMS4wODg4LTAuNTE3NSAxLjE3MTgtMC43NjY1IgogICAgICAgIHN0eWxlPSJzdHJva2U6I2NhOWMwMDtzdHJva2UtbWl0ZXJsaW1pdDoxMDtzdHJva2Utd2lkdGg6MS4yNTtmaWxsOm5vbmUiCiAgICAgICAgaW5rc2NhcGU6Y29ubmVjdG9yLWN1cnZhdHVyZT0iMCIKICAgIC8+CiAgICA8cGF0aAogICAgICAgIGlkPSJwYXRoOTk2IgogICAgICAgIGQ9Im01NjAuNiA1NTkuNDIgMC4yNDUtMS4wMjUyIDAuNDYzNzUtMS4wNTk1IDAuNTI3MjUtMS4wMjU1IDAuMTQyNS0xLjIwMTItMC4yMS0xLjU1NzUtMC4yODMyNS0xLjc2NzUgMC4wMzUtMi4wODUgMC4xOC0xLjM3NyAwLjcwMy0wLjQ2Mzc1IDEuMDU5NS0wLjI0NSAxLjI0MDIgMC4wMzUgMS41NTI4LTAuMDM1IDEuMjA2LTAuODQ5NSAwLjc3NjUtMS4yNzQ1IDAuNzU2NzUtMS4zNTc1IDAuOTIyNzUtMC40MzQ1aDAuOTg2MjVsMS4wNzkgMC41NTE3NSA0LjgwNDcgNi44MzU5IDIuNTYzNSAzLjg0MjggMi4xODI4IDMuMTU5MiAwLjM4MDc1IDEuNTgyIDAuMDMgMS40OTktMC4yNzM1IDEuMTg2NS0wLjYzNDc1IDAuODEwNS0wLjk1NyAwLjYzOTc1LTEuNDg0MiAwLjQ5MzI1LTEuNzMzNSAwLjAzNS0zLjA3MTMtMC41OTU3NS00LjI0MzItMS40NTAyLTQuODQzOC0xLjM4MTgtMi41NDg4LTAuNDI0NzUtMC44MTA1LTAuMjF6IgogICAgICAgIHN0eWxlPSJmaWxsLXJ1bGU6ZXZlbm9kZDtzdHJva2U6I2NhOWMwMDtzdHJva2UtbWl0ZXJsaW1pdDoxMDtzdHJva2Utd2lkdGg6MS4yNTtmaWxsOiNmZmMyMDAiCiAgICAgICAgaW5rc2NhcGU6Y29ubmVjdG9yLWN1cnZhdHVyZT0iMCIKICAgIC8+CiAgICA8cGF0aAogICAgICAgIGlkPSJwYXRoOTk4IgogICAgICAgIGQ9Im02MDAuMiA1NjQuNzItMS42NDU1LTEuMDAxLTAuOTIyNzUtMS42OTQyLTAuMjM1LTIuNDcwOCAwLjY5ODI1LTIuNTA0OSAwLjQ1OS0yLjIzNjIgMC4yNzM1LTUuMTI3di0zLjUwNTlsMC4zODU3NS0xLjM4NjggMS4wNzktMC4zMTI1IDEuMzg2OCAwLjQ2Mzc0djEuMzkxNWwwLjI2ODUgMC44NDQ3NSAxLjExODIgMC45Mjc3NiAxLjIzNTIgMC41MzcgMS4yNjk1IDAuMjY4NSAxLjM5MTUtMC4xMTI1IDAuOTYyLTAuNDYzNzUgMC45MjI3NS0wLjY5MzI1IDAuNTQyLTEuMDA1OCAwLjMwNzUtMC45MjI3NSAwLjk2Njc1IDAuMDQgMC45MjI3NSAwLjg4Mzc1IDAuMzg1NzUgMi4wMDY4IDAuMTU3NSAxLjE1NzIgMC43MzI1IDEuMDAxIDEuMDQgMS4xNTcyIDEuNTgyIDEuMDQgMS42MjEgMS4yNTUtMC40Njg3NSAxLjE3NjgtMC43MzI1IDEuMTE4Mi0yLjAwMiAxLjM4NjgtMS44MTE1IDAuNjkzMjQtMi40MzE4IDEuMzUyNS0yLjE5NzIgMS43Mjg1LTMuMTk4MiAyLjQzMTgtMi4xMTkyIDAuNzcxNXoiCiAgICAgICAgc3R5bGU9ImZpbGwtcnVsZTpldmVub2RkO3N0cm9rZTojY2E5YzAwO3N0cm9rZS1taXRlcmxpbWl0OjEwO3N0cm9rZS13aWR0aDoxLjI1O2ZpbGw6I2ZmYzIwMCIKICAgICAgICBpbmtzY2FwZTpjb25uZWN0b3ItY3VydmF0dXJlPSIwIgogICAgLz4KICA8L2cKICA+CiAgPG1ldGFkYXRhCiAgICA+CiAgICA8cmRmOlJERgogICAgICA+CiAgICAgIDxjYzpXb3JrCiAgICAgICAgPgogICAgICAgIDxkYzpmb3JtYXQKICAgICAgICAgID5pbWFnZS9zdmcreG1sPC9kYzpmb3JtYXQKICAgICAgICA+CiAgICAgICAgPGRjOnR5cGUKICAgICAgICAgICAgcmRmOnJlc291cmNlPSJodHRwOi8vcHVybC5vcmcvZGMvZGNtaXR5cGUvU3RpbGxJbWFnZSIKICAgICAgICAvPgogICAgICAgIDxjYzpsaWNlbnNlCiAgICAgICAgICAgIHJkZjpyZXNvdXJjZT0iaHR0cDovL2NyZWF0aXZlY29tbW9ucy5vcmcvbGljZW5zZXMvcHVibGljZG9tYWluLyIKICAgICAgICAvPgogICAgICAgIDxkYzpwdWJsaXNoZXIKICAgICAgICAgID4KICAgICAgICAgIDxjYzpBZ2VudAogICAgICAgICAgICAgIHJkZjphYm91dD0iaHR0cDovL29wZW5jbGlwYXJ0Lm9yZy8iCiAgICAgICAgICAgID4KICAgICAgICAgICAgPGRjOnRpdGxlCiAgICAgICAgICAgICAgPk9wZW5jbGlwYXJ0PC9kYzp0aXRsZQogICAgICAgICAgICA+CiAgICAgICAgICA8L2NjOkFnZW50CiAgICAgICAgICA+CiAgICAgICAgPC9kYzpwdWJsaXNoZXIKICAgICAgICA+CiAgICAgICAgPGRjOnRpdGxlCiAgICAgICAgICA+U2VydmVyIC0gbGludXg8L2RjOnRpdGxlCiAgICAgICAgPgogICAgICAgIDxkYzpkYXRlCiAgICAgICAgICA+MjAxMi0wOC0wMlQxNDoyNzozOTwvZGM6ZGF0ZQogICAgICAgID4KICAgICAgICA8ZGM6ZGVzY3JpcHRpb24KICAgICAgICAvPgogICAgICAgIDxkYzpzb3VyY2UKICAgICAgICAgID5odHRwczovL29wZW5jbGlwYXJ0Lm9yZy9kZXRhaWwvMTcxNDIyL3NlcnZlci0tLWxpbnV4LWJ5LWN5YmVyc2Nvb3R5LTE3MTQyMjwvZGM6c291cmNlCiAgICAgICAgPgogICAgICAgIDxkYzpjcmVhdG9yCiAgICAgICAgICA+CiAgICAgICAgICA8Y2M6QWdlbnQKICAgICAgICAgICAgPgogICAgICAgICAgICA8ZGM6dGl0bGUKICAgICAgICAgICAgICA+Y3liZXJzY29vdHk8L2RjOnRpdGxlCiAgICAgICAgICAgID4KICAgICAgICAgIDwvY2M6QWdlbnQKICAgICAgICAgID4KICAgICAgICA8L2RjOmNyZWF0b3IKICAgICAgICA+CiAgICAgICAgPGRjOnN1YmplY3QKICAgICAgICAgID4KICAgICAgICAgIDxyZGY6QmFnCiAgICAgICAgICAgID4KICAgICAgICAgICAgPHJkZjpsaQogICAgICAgICAgICAgID5jb21wdXRlcjwvcmRmOmxpCiAgICAgICAgICAgID4KICAgICAgICAgICAgPHJkZjpsaQogICAgICAgICAgICAgID5pbmZvcm1hdGlxdWU8L3JkZjpsaQogICAgICAgICAgICA+CiAgICAgICAgICAgIDxyZGY6bGkKICAgICAgICAgICAgICA+aXQ8L3JkZjpsaQogICAgICAgICAgICA+CiAgICAgICAgICAgIDxyZGY6bGkKICAgICAgICAgICAgICA+bGludXg8L3JkZjpsaQogICAgICAgICAgICA+CiAgICAgICAgICAgIDxyZGY6bGkKICAgICAgICAgICAgICA+b3JkaW5hdGV1cjwvcmRmOmxpCiAgICAgICAgICAgID4KICAgICAgICAgICAgPHJkZjpsaQogICAgICAgICAgICAgID5zZXJ2ZXI8L3JkZjpsaQogICAgICAgICAgICA+CiAgICAgICAgICAgIDxyZGY6bGkKICAgICAgICAgICAgICA+c2VydmV1cjwvcmRmOmxpCiAgICAgICAgICAgID4KICAgICAgICAgICAgPHJkZjpsaQogICAgICAgICAgICAgID50dXg8L3JkZjpsaQogICAgICAgICAgICA+CiAgICAgICAgICA8L3JkZjpCYWcKICAgICAgICAgID4KICAgICAgICA8L2RjOnN1YmplY3QKICAgICAgICA+CiAgICAgIDwvY2M6V29yawogICAgICA+CiAgICAgIDxjYzpMaWNlbnNlCiAgICAgICAgICByZGY6YWJvdXQ9Imh0dHA6Ly9jcmVhdGl2ZWNvbW1vbnMub3JnL2xpY2Vuc2VzL3B1YmxpY2RvbWFpbi8iCiAgICAgICAgPgogICAgICAgIDxjYzpwZXJtaXRzCiAgICAgICAgICAgIHJkZjpyZXNvdXJjZT0iaHR0cDovL2NyZWF0aXZlY29tbW9ucy5vcmcvbnMjUmVwcm9kdWN0aW9uIgogICAgICAgIC8+CiAgICAgICAgPGNjOnBlcm1pdHMKICAgICAgICAgICAgcmRmOnJlc291cmNlPSJodHRwOi8vY3JlYXRpdmVjb21tb25zLm9yZy9ucyNEaXN0cmlidXRpb24iCiAgICAgICAgLz4KICAgICAgICA8Y2M6cGVybWl0cwogICAgICAgICAgICByZGY6cmVzb3VyY2U9Imh0dHA6Ly9jcmVhdGl2ZWNvbW1vbnMub3JnL25zI0Rlcml2YXRpdmVXb3JrcyIKICAgICAgICAvPgogICAgICA8L2NjOkxpY2Vuc2UKICAgICAgPgogICAgPC9yZGY6UkRGCiAgICA+CiAgPC9tZXRhZGF0YQogID4KPC9zdmcKPgo=;" parent="1" vertex="1">
          <mxGeometry x="350" y="570" width="35.67" height="50" as="geometry" />
        </mxCell>
        <mxCell id="srdscHzhea0q-TOiqJzr-20" value="" style="shape=image;aspect=fixed;image=data:image/svg+xml,PD94bWwgdmVyc2lvbj0iMS4wIiBlbmNvZGluZz0iVVRGLTgiIHN0YW5kYWxvbmU9Im5vIj8+CjwhLS0gQ3JlYXRlZCB3aXRoIElua3NjYXBlIChodHRwOi8vd3d3Lmlua3NjYXBlLm9yZy8pIC0tPgo8c3ZnCiAgICB4bWxuczppbmtzY2FwZT0iaHR0cDovL3d3dy5pbmtzY2FwZS5vcmcvbmFtZXNwYWNlcy9pbmtzY2FwZSIKICAgIHhtbG5zOnJkZj0iaHR0cDovL3d3dy53My5vcmcvMTk5OS8wMi8yMi1yZGYtc3ludGF4LW5zIyIKICAgIHhtbG5zPSJodHRwOi8vd3d3LnczLm9yZy8yMDAwL3N2ZyIKICAgIHhtbG5zOmNjPSJodHRwOi8vY3JlYXRpdmVjb21tb25zLm9yZy9ucyMiCiAgICB4bWxuczpkYz0iaHR0cDovL3B1cmwub3JnL2RjL2VsZW1lbnRzLzEuMS8iCiAgICB4bWxuczpzb2RpcG9kaT0iaHR0cDovL3NvZGlwb2RpLnNvdXJjZWZvcmdlLm5ldC9EVEQvc29kaXBvZGktMC5kdGQiCiAgICB4bWxuczpzdmc9Imh0dHA6Ly93d3cudzMub3JnLzIwMDAvc3ZnIgogICAgeG1sbnM6bnMxPSJodHRwOi8vc296aS5iYWllcm91Z2UuZnIiCiAgICB4bWxuczp4bGluaz0iaHR0cDovL3d3dy53My5vcmcvMTk5OS94bGluayIKICAgIGlkPSJzdmc2NzQ2IgogICAgc29kaXBvZGk6ZG9jbmFtZT0iTm91dmVhdSBkb2N1bWVudCAzNyIKICAgIHZpZXdCb3g9IjAgMCAxMDguMzggMTUyLjA5IgogICAgdmVyc2lvbj0iMS4xIgogICAgaW5rc2NhcGU6dmVyc2lvbj0iMC40OC4zLjEgcjk4ODYiCiAgPgogIDxzb2RpcG9kaTpuYW1lZHZpZXcKICAgICAgaWQ9ImJhc2UiCiAgICAgIGJvcmRlcmNvbG9yPSIjNjY2NjY2IgogICAgICBpbmtzY2FwZTpwYWdlc2hhZG93PSIyIgogICAgICBpbmtzY2FwZTp3aW5kb3cteT0iMjQiCiAgICAgIGZpdC1tYXJnaW4tbGVmdD0iMCIKICAgICAgcGFnZWNvbG9yPSIjZmZmZmZmIgogICAgICBmaXQtbWFyZ2luLXRvcD0iMCIKICAgICAgaW5rc2NhcGU6d2luZG93LW1heGltaXplZD0iMCIKICAgICAgaW5rc2NhcGU6em9vbT0iMC4zNSIKICAgICAgaW5rc2NhcGU6d2luZG93LXg9IjQ5IgogICAgICBpbmtzY2FwZTp3aW5kb3ctaGVpZ2h0PSI0MTUiCiAgICAgIHNob3dncmlkPSJmYWxzZSIKICAgICAgYm9yZGVyb3BhY2l0eT0iMS4wIgogICAgICBpbmtzY2FwZTpjdXJyZW50LWxheWVyPSJsYXllcjEiCiAgICAgIGlua3NjYXBlOmN4PSItMTg0LjkwNjI1IgogICAgICBpbmtzY2FwZTpjeT0iMzMuMjAwMzE3IgogICAgICBmaXQtbWFyZ2luLXJpZ2h0PSIwIgogICAgICBmaXQtbWFyZ2luLWJvdHRvbT0iMCIKICAgICAgaW5rc2NhcGU6d2luZG93LXdpZHRoPSI0ODYiCiAgICAgIGlua3NjYXBlOnBhZ2VvcGFjaXR5PSIwLjAiCiAgICAgIGlua3NjYXBlOmRvY3VtZW50LXVuaXRzPSJweCIKICAvPgogIDxnCiAgICAgIGlkPSJsYXllcjEiCiAgICAgIGlua3NjYXBlOmxhYmVsPSJDYWxxdWUgMSIKICAgICAgaW5rc2NhcGU6Z3JvdXBtb2RlPSJsYXllciIKICAgICAgdHJhbnNmb3JtPSJ0cmFuc2xhdGUoLTU1OS45MSAtNDEzLjQ3KSIKICAgID4KICAgIDxwYXRoCiAgICAgICAgaWQ9InBhdGg5NTQiCiAgICAgICAgZD0ibTcxMy42OCA1MDguNjYiCiAgICAgICAgc3R5bGU9InN0cm9rZTojMDAwMDAwO3N0cm9rZS1taXRlcmxpbWl0OjEwO3N0cm9rZS13aWR0aDoxLjI1O2ZpbGw6bm9uZSIKICAgICAgICBpbmtzY2FwZTpjb25uZWN0b3ItY3VydmF0dXJlPSIwIgogICAgLz4KICAgIDxwYXRoCiAgICAgICAgaWQ9InBhdGg5NTYiCiAgICAgICAgZD0ibTU4Ni40IDQzMC4zNCAxNS0xNWg1MGwxNSAxNXYxMjBoLTgweiIKICAgICAgICBzdHlsZT0iZmlsbC1ydWxlOmV2ZW5vZGQ7c3Ryb2tlOiM3ZDdkN2Q7c3Ryb2tlLW1pdGVybGltaXQ6MTA7c3Ryb2tlLXdpZHRoOjMuNzU7ZmlsbDojZTFlMWUxIgogICAgICAgIGlua3NjYXBlOmNvbm5lY3Rvci1jdXJ2YXR1cmU9IjAiCiAgICAvPgogICAgPHBhdGgKICAgICAgICBpZD0icGF0aDk1OCIKICAgICAgICBkPSJtNTkzLjkgNDMyLjg0IDEyLjUtMTIuNWg0MGwxMi41IDEyLjV6IgogICAgICAgIHN0eWxlPSJmaWxsLXJ1bGU6ZXZlbm9kZDtzdHJva2U6IzljOWM5YztzdHJva2UtbWl0ZXJsaW1pdDoxMDtzdHJva2Utd2lkdGg6MS4yNTtmaWxsOiNiZGJkYmQiCiAgICAgICAgaW5rc2NhcGU6Y29ubmVjdG9yLWN1cnZhdHVyZT0iMCIKICAgIC8+CiAgICA8cGF0aAogICAgICAgIGlkPSJwYXRoOTYwIgogICAgICAgIGQ9Im01OTUuMTUgNDM1LjM0aDYyLjVjMC42ODg1IDAgMS4yNSAwLjU1NjYzIDEuMjUgMS4yNXYxMDcuNWMwIDAuNjg4NS0wLjU2MTUgMS4yNS0xLjI1IDEuMjVoLTYyLjVjLTAuNjkzMjUgMC0xLjI1LTAuNTYxNS0xLjI1LTEuMjV2LTEwNy41YzAtMC42OTMzNyAwLjU1Njc1LTEuMjUgMS4yNS0xLjI1IgogICAgICAgIHN0eWxlPSJzdHJva2UtbGluZWpvaW46cm91bmQ7ZmlsbC1ydWxlOmV2ZW5vZGQ7c3Ryb2tlOiM5YzljOWM7c3Ryb2tlLW1pdGVybGltaXQ6MTA7c3Ryb2tlLXdpZHRoOjEuMjU7ZmlsbDojYmRiZGJkIgogICAgICAgIGlua3NjYXBlOmNvbm5lY3Rvci1jdXJ2YXR1cmU9IjAiCiAgICAvPgogICAgPHBhdGgKICAgICAgICBpZD0icGF0aDk2MiIKICAgICAgICBkPSJtNjAwLjE1IDQ0Mi44NGg1Mi41YzAuNjg4NSAwIDEuMjUgMC41NTY2MyAxLjI1IDEuMjV2MTIuNWMwIDAuNjg4NDgtMC41NjE1IDEuMjUtMS4yNSAxLjI1aC01Mi41Yy0wLjY5MzI1IDAtMS4yNS0wLjU2MTUyLTEuMjUtMS4yNXYtMTIuNWMwLTAuNjkzMzcgMC41NTY3NS0xLjI1IDEuMjUtMS4yNSIKICAgICAgICBzdHlsZT0ic3Ryb2tlLWxpbmVqb2luOnJvdW5kO2ZpbGwtcnVsZTpldmVub2RkO3N0cm9rZTojN2Q3ZDdkO3N0cm9rZS1taXRlcmxpbWl0OjEwO3N0cm9rZS13aWR0aDozLjc1O2ZpbGw6IzljOWM5YyIKICAgICAgICBpbmtzY2FwZTpjb25uZWN0b3ItY3VydmF0dXJlPSIwIgogICAgLz4KICAgIDxwYXRoCiAgICAgICAgaWQ9InBhdGg5NjQiCiAgICAgICAgZD0ibTYwMC4xNSA0NjUuMzRoNTIuNWMwLjY4ODUgMCAxLjI1IDAuNTU2NjUgMS4yNSAxLjI1djEyLjVjMCAwLjY4ODQ4LTAuNTYxNSAxLjI1LTEuMjUgMS4yNWgtNTIuNWMtMC42OTMyNSAwLTEuMjUtMC41NjE1Mi0xLjI1LTEuMjV2LTEyLjVjMC0wLjY5MzM3IDAuNTU2NzUtMS4yNSAxLjI1LTEuMjUiCiAgICAgICAgc3R5bGU9InN0cm9rZS1saW5lam9pbjpyb3VuZDtmaWxsLXJ1bGU6ZXZlbm9kZDtzdHJva2U6IzdkN2Q3ZDtzdHJva2UtbWl0ZXJsaW1pdDoxMDtzdHJva2Utd2lkdGg6My43NTtmaWxsOiM5YzljOWMiCiAgICAgICAgaW5rc2NhcGU6Y29ubmVjdG9yLWN1cnZhdHVyZT0iMCIKICAgIC8+CiAgICA8cGF0aAogICAgICAgIGlkPSJwYXRoOTY2IgogICAgICAgIGQ9Im02MjIuNjUgNDkyLjg0aDMwYzAuNjg4NSAwIDEuMjUgMC41NTY2MyAxLjI1IDEuMjV2MTBjMCAwLjY4ODUtMC41NjE1IDEuMjUtMS4yNSAxLjI1aC0zMGMtMC42OTMyNSAwLTEuMjUtMC41NjE1LTEuMjUtMS4yNXYtMTBjMC0wLjY5MzM3IDAuNTU2NzUtMS4yNSAxLjI1LTEuMjUiCiAgICAgICAgc3R5bGU9InN0cm9rZS1saW5lam9pbjpyb3VuZDtmaWxsLXJ1bGU6ZXZlbm9kZDtzdHJva2U6IzdkN2Q3ZDtzdHJva2UtbWl0ZXJsaW1pdDoxMDtzdHJva2Utd2lkdGg6My43NTtmaWxsOiM5YzljOWMiCiAgICAgICAgaW5rc2NhcGU6Y29ubmVjdG9yLWN1cnZhdHVyZT0iMCIKICAgIC8+CiAgICA8cGF0aAogICAgICAgIGlkPSJwYXRoOTY4IgogICAgICAgIGQ9Im02MTMuOSA0OTkuMDljMCA4LjMzNS0xMi41IDguMzM1LTEyLjUgMHMxMi41LTguMzM1IDEyLjUgMCIKICAgICAgICBzdHlsZT0ic3Ryb2tlLWxpbmVqb2luOnJvdW5kO2ZpbGwtcnVsZTpldmVub2RkO3N0cm9rZTojN2Q3ZDdkO3N0cm9rZS1taXRlcmxpbWl0OjEwO3N0cm9rZS13aWR0aDoyLjU7ZmlsbDojYzUxOTAwIgogICAgICAgIGlua3NjYXBlOmNvbm5lY3Rvci1jdXJ2YXR1cmU9IjAiCiAgICAvPgogICAgPHBhdGgKICAgICAgICBpZD0icGF0aDk3MCIKICAgICAgICBkPSJtNjExLjQgNTE2LjY1aDV2MjcuNWgtNXoiCiAgICAgICAgc3R5bGU9ImZpbGwtcnVsZTpldmVub2RkO3N0cm9rZTojN2Q3ZDdkO3N0cm9rZS1taXRlcmxpbWl0OjEwO3N0cm9rZS13aWR0aDoyLjU7ZmlsbDojOWM5YzljIgogICAgICAgIGlua3NjYXBlOmNvbm5lY3Rvci1jdXJ2YXR1cmU9IjAiCiAgICAvPgogICAgPHBhdGgKICAgICAgICBpZD0icGF0aDk3MiIKICAgICAgICBkPSJtNjIxLjQgNTE2LjY1aDV2MjcuNWgtNXoiCiAgICAgICAgc3R5bGU9ImZpbGwtcnVsZTpldmVub2RkO3N0cm9rZTojN2Q3ZDdkO3N0cm9rZS1taXRlcmxpbWl0OjEwO3N0cm9rZS13aWR0aDoyLjU7ZmlsbDojOWM5YzljIgogICAgICAgIGlua3NjYXBlOmNvbm5lY3Rvci1jdXJ2YXR1cmU9IjAiCiAgICAvPgogICAgPHBhdGgKICAgICAgICBpZD0icGF0aDk3NCIKICAgICAgICBkPSJtNjMxLjQgNTE2LjY1aDV2MjcuNWgtNXoiCiAgICAgICAgc3R5bGU9ImZpbGwtcnVsZTpldmVub2RkO3N0cm9rZTojN2Q3ZDdkO3N0cm9rZS1taXRlcmxpbWl0OjEwO3N0cm9rZS13aWR0aDoyLjU7ZmlsbDojOWM5YzljIgogICAgICAgIGlua3NjYXBlOmNvbm5lY3Rvci1jdXJ2YXR1cmU9IjAiCiAgICAvPgogICAgPHBhdGgKICAgICAgICBpZD0icGF0aDk3NiIKICAgICAgICBkPSJtNjQxLjQgNTE2LjY1aDV2MjcuNWgtNXoiCiAgICAgICAgc3R5bGU9ImZpbGwtcnVsZTpldmVub2RkO3N0cm9rZTojN2Q3ZDdkO3N0cm9rZS1taXRlcmxpbWl0OjEwO3N0cm9rZS13aWR0aDoyLjU7ZmlsbDojOWM5YzljIgogICAgICAgIGlua3NjYXBlOmNvbm5lY3Rvci1jdXJ2YXR1cmU9IjAiCiAgICAvPgogICAgPHBhdGgKICAgICAgICBpZD0icGF0aDk3OCIKICAgICAgICBkPSJtNjUxLjQgNTE2LjdoNXYyNy41aC01eiIKICAgICAgICBzdHlsZT0iZmlsbC1ydWxlOmV2ZW5vZGQ7c3Ryb2tlOiM3ZDdkN2Q7c3Ryb2tlLW1pdGVybGltaXQ6MTA7c3Ryb2tlLXdpZHRoOjIuNTtmaWxsOiM5YzljOWMiCiAgICAgICAgaW5rc2NhcGU6Y29ubmVjdG9yLWN1cnZhdHVyZT0iMCIKICAgIC8+CiAgICA8cGF0aAogICAgICAgIGlkPSJwYXRoOTgwIgogICAgICAgIGQ9Im01NjkuNjUgNTM1LjQyIDIuNzE5Ny00LjM4NDggNi45OTcxLTEwLjY0LTAuMDUtMTUuODY5IDAuMzkwNzUtMS41MTg2IDAuNzIyNzUtMS4wMzAyIDEuMjc0NS0xLjQ1MDIgMS41MTg1LTEuMzA4NiAxLjIwMTItMC44ODM4IDEuOTgyNS0wLjYwMDU4aDEuNTE4NWwxLjYyNiAwLjAzNDIgMS43MzM1IDAuMzUxNTggMS45MDkyIDAuODQ5NiAxLjY2MDIgMC44NDk2IDEuNDExMiAxLjI3NDQgMS4wOTg4IDEuMzc3IDEuMTMyOCAxLjg3MDEgMC40OTMyNSAxLjk4MjUgMC4xNzUgMi43MjQ2IDAuMjUgNC43MDIyIDAuMDM1IDMuNDI3NyAzLjAwNzggMy45OTQyIDQuNTk0NyA2LjU3NzIgMi42NDY1IDQuOTg1NCAxLjM0NzggMy4yODYxIDAuMzA3NSAzLjExNTItMC4xNDc1IDIuMjAyMi0wLjIzIDIuMTA0NS0wLjgzOTc1IDMuNTE1Ni0wLjg1OTUgMi4zMTkyLTguODc3IDEzLjI5MS02LjM2MjMtMS45MDkyLTEwLjI0OSAwLjAzNS0zLjY0MjYgMi40MDcyLTkuMTU1My0xNC45OS0yLjc1ODgtNC42MzM4LTAuMTQyNS0yLjQzNjUgMC4zNjEyNS0yLjU3ODF6IgogICAgICAgIHN0eWxlPSJmaWxsLXJ1bGU6ZXZlbm9kZDtzdHJva2U6IzAwMDAwMDtzdHJva2UtbWl0ZXJsaW1pdDoxMDtzdHJva2Utd2lkdGg6MS4yNTtmaWxsOiMwMDAwMDAiCiAgICAgICAgaW5rc2NhcGU6Y29ubmVjdG9yLWN1cnZhdHVyZT0iMCIKICAgIC8+CiAgICA8cGF0aAogICAgICAgIGlkPSJwYXRoOTgyIgogICAgICAgIGQ9Im01ODQuOTIgNTExLjI3YzAgNC41NDEtNC40OTIyIDQuNTQxLTQuNDkyMiAwIDAtNC41MzYxIDQuNDkyMi00LjUzNjEgNC40OTIyIDAiCiAgICAgICAgc3R5bGU9ImZpbGwtcnVsZTpldmVub2RkO3N0cm9rZTojZmZmZmZmO3N0cm9rZS1taXRlcmxpbWl0OjEwO3N0cm9rZS13aWR0aDoxLjI1O2ZpbGw6I2ZmZmZmZiIKICAgICAgICBpbmtzY2FwZTpjb25uZWN0b3ItY3VydmF0dXJlPSIwIgogICAgLz4KICAgIDxwYXRoCiAgICAgICAgaWQ9InBhdGg5ODQiCiAgICAgICAgZD0ibTU4MS4xOSA1MjEuNTkgMC40MzQ1LTQuMDMzMiAxMi40MjctMS40ODkyIDAuMjEgMi45NDQzIDEuMzIzMiAyLjUxNDYgMC45MzI1IDIuMDg5OCAxLjc2NzUgMy43NTk4IDAuOTk2IDIuMDUwOCAxLjAwMSAxLjk1MzIgMC42MDU1IDEuOTU4IDAuNjU0MjUgMy4zODg3IDAuMTUyNSAzLjYyNzkgMC4xNTc1IDQuNzg1Mi0xLjc2MjggNS45NDczLTIuOTE1IDIuMzE0NS0xLjYzNTggMS40MDE1LTIuMzc4IDEuNTc3Mi0yLjA4IDEuMDY5Mi0xLjg3IDAuNTAzLTIuMDc1MiAwLjI3ODI1LTEuNzQzMi0wLjA1NzUtMi41MDk4LTAuMTYtMS4zMDg1LTAuNzA4LTEuMDY5Mi0wLjkwMzI1LTEuNzQzMi0yLjEwOTJoMS4yNTk4bDEuMDU0OC0wLjQxMDI1IDAuNTk1NzUtMC42ODg1IDAuMjA1LTEuMDM1Mi0wLjQxMDI1LTEuMTE4Mi01LjE1NjItNC42MDk0LTIuMDMxMi0yLjg5MDYtMC43MTMtMS44MTY1IDAuMDA1LTEuNTQ3OCAwLjY4MzUtMy4wMzIyIDEuMzY3Mi0zLjM1OTQgMS40NjQ4LTMuMzU0NSAxLjUwODgtMy40MjI4IDEuNDk0Mi0yLjg3NnoiCiAgICAgICAgc3R5bGU9ImZpbGwtcnVsZTpldmVub2RkO3N0cm9rZTojZmZmZmZmO3N0cm9rZS1taXRlcmxpbWl0OjEwO3N0cm9rZS13aWR0aDoxLjI1O2ZpbGw6I2ZmZmZmZiIKICAgICAgICBpbmtzY2FwZTpjb25uZWN0b3ItY3VydmF0dXJlPSIwIgogICAgLz4KICAgIDxwYXRoCiAgICAgICAgaWQ9InBhdGg5ODYiCiAgICAgICAgZD0ibTU5NC4wNCA1MTEuNzNjMCA2LjE0NzUtNS45NTIyIDYuMTQ3NS01Ljk1MjIgMCAwLTYuMTQyNiA1Ljk1MjItNi4xNDI2IDUuOTUyMiAwIgogICAgICAgIHN0eWxlPSJmaWxsLXJ1bGU6ZXZlbm9kZDtzdHJva2U6I2ZmZmZmZjtzdHJva2UtbWl0ZXJsaW1pdDoxMDtzdHJva2Utd2lkdGg6MS4yNTtmaWxsOiNmZmZmZmYiCiAgICAgICAgaW5rc2NhcGU6Y29ubmVjdG9yLWN1cnZhdHVyZT0iMCIKICAgIC8+CiAgICA8cGF0aAogICAgICAgIGlkPSJwYXRoOTg4IgogICAgICAgIGQ9Im01OTIuNDMgNTEyLjE2YzAgMi45MTk5LTMuMTM5NiAyLjkxOTktMy4xMzk2IDAgMC0yLjkyNDggMy4xMzk2LTIuOTI0OCAzLjEzOTYgMCIKICAgICAgICBzdHlsZT0iZmlsbC1ydWxlOmV2ZW5vZGQ7c3Ryb2tlOiMwMDAwMDA7c3Ryb2tlLW1pdGVybGltaXQ6MTA7c3Ryb2tlLXdpZHRoOjEuMjU7ZmlsbDojMDAwMDAwIgogICAgICAgIGlua3NjYXBlOmNvbm5lY3Rvci1jdXJ2YXR1cmU9IjAiCiAgICAvPgogICAgPHBhdGgKICAgICAgICBpZD0icGF0aDk5MCIKICAgICAgICBkPSJtNTgwLjU2IDUxNy4yMSAwLjA1NzUtMS4yMDEyIDEuMzk2NS0wLjkwMzI1IDEuNzQ4LTEuNDYgMS4yOTg4LTAuNjQ5NSAxLjAwNi0wLjIzIDEuNDU1IDAuMTMyNSAxLjY1NTIgMC42NDk1IDIuNDMxOCAwLjk3MTc1IDIuOTkzMiAxLjIwNi0wLjcyMjc1IDEuODI2Mi0yLjEzODggMS4zNDI4LTEuODE2NSAxLjIzNTItMS43MTg4IDAuOTcxNzUtMS43ODIyIDAuMzU2NS0wLjc0Ny0wLjA2MjUtMS45MTQtMS4wMDU4LTEuNDIxLTEuMzYyMi0xLjQ5NDItMS4yOTg4eiIKICAgICAgICBzdHlsZT0iZmlsbC1ydWxlOmV2ZW5vZGQ7c3Ryb2tlOiNjYTljMDA7c3Ryb2tlLW1pdGVybGltaXQ6MTA7c3Ryb2tlLXdpZHRoOjEuMjU7ZmlsbDojZmZjMjAwIgogICAgICAgIGlua3NjYXBlOmNvbm5lY3Rvci1jdXJ2YXR1cmU9IjAiCiAgICAvPgogICAgPHBhdGgKICAgICAgICBpZD0icGF0aDk5MiIKICAgICAgICBkPSJtNTgzLjc4IDUxMi4zNGMwIDIuMzg3OC0yLjU2ODQgMi4zODc4LTIuNTY4NCAwIDAtMi4zODI4IDIuNTY4NC0yLjM4MjggMi41Njg0IDAiCiAgICAgICAgc3R5bGU9ImZpbGwtcnVsZTpldmVub2RkO3N0cm9rZTojMDAwMDAwO3N0cm9rZS1taXRlcmxpbWl0OjEwO3N0cm9rZS13aWR0aDoxLjI1O2ZpbGw6IzAwMDAwMCIKICAgICAgICBpbmtzY2FwZTpjb25uZWN0b3ItY3VydmF0dXJlPSIwIgogICAgLz4KICAgIDxwYXRoCiAgICAgICAgaWQ9InBhdGg5OTQiCiAgICAgICAgZD0ibTU4MS41NCA1MTguMzIgMS4xNTcyIDAuNDYzNzUgMS4zMzggMC4zMzcwMSAxLjMyMzIgMC4wODc1IDEuMzQ3OC0wLjE1NSAyLjE1MzItMC43MzcyNSAxLjMzOC0wLjUxNzUgMS4wODg4LTAuNTE3NSAxLjE3MTgtMC43NjY1IgogICAgICAgIHN0eWxlPSJzdHJva2U6I2NhOWMwMDtzdHJva2UtbWl0ZXJsaW1pdDoxMDtzdHJva2Utd2lkdGg6MS4yNTtmaWxsOm5vbmUiCiAgICAgICAgaW5rc2NhcGU6Y29ubmVjdG9yLWN1cnZhdHVyZT0iMCIKICAgIC8+CiAgICA8cGF0aAogICAgICAgIGlkPSJwYXRoOTk2IgogICAgICAgIGQ9Im01NjAuNiA1NTkuNDIgMC4yNDUtMS4wMjUyIDAuNDYzNzUtMS4wNTk1IDAuNTI3MjUtMS4wMjU1IDAuMTQyNS0xLjIwMTItMC4yMS0xLjU1NzUtMC4yODMyNS0xLjc2NzUgMC4wMzUtMi4wODUgMC4xOC0xLjM3NyAwLjcwMy0wLjQ2Mzc1IDEuMDU5NS0wLjI0NSAxLjI0MDIgMC4wMzUgMS41NTI4LTAuMDM1IDEuMjA2LTAuODQ5NSAwLjc3NjUtMS4yNzQ1IDAuNzU2NzUtMS4zNTc1IDAuOTIyNzUtMC40MzQ1aDAuOTg2MjVsMS4wNzkgMC41NTE3NSA0LjgwNDcgNi44MzU5IDIuNTYzNSAzLjg0MjggMi4xODI4IDMuMTU5MiAwLjM4MDc1IDEuNTgyIDAuMDMgMS40OTktMC4yNzM1IDEuMTg2NS0wLjYzNDc1IDAuODEwNS0wLjk1NyAwLjYzOTc1LTEuNDg0MiAwLjQ5MzI1LTEuNzMzNSAwLjAzNS0zLjA3MTMtMC41OTU3NS00LjI0MzItMS40NTAyLTQuODQzOC0xLjM4MTgtMi41NDg4LTAuNDI0NzUtMC44MTA1LTAuMjF6IgogICAgICAgIHN0eWxlPSJmaWxsLXJ1bGU6ZXZlbm9kZDtzdHJva2U6I2NhOWMwMDtzdHJva2UtbWl0ZXJsaW1pdDoxMDtzdHJva2Utd2lkdGg6MS4yNTtmaWxsOiNmZmMyMDAiCiAgICAgICAgaW5rc2NhcGU6Y29ubmVjdG9yLWN1cnZhdHVyZT0iMCIKICAgIC8+CiAgICA8cGF0aAogICAgICAgIGlkPSJwYXRoOTk4IgogICAgICAgIGQ9Im02MDAuMiA1NjQuNzItMS42NDU1LTEuMDAxLTAuOTIyNzUtMS42OTQyLTAuMjM1LTIuNDcwOCAwLjY5ODI1LTIuNTA0OSAwLjQ1OS0yLjIzNjIgMC4yNzM1LTUuMTI3di0zLjUwNTlsMC4zODU3NS0xLjM4NjggMS4wNzktMC4zMTI1IDEuMzg2OCAwLjQ2Mzc0djEuMzkxNWwwLjI2ODUgMC44NDQ3NSAxLjExODIgMC45Mjc3NiAxLjIzNTIgMC41MzcgMS4yNjk1IDAuMjY4NSAxLjM5MTUtMC4xMTI1IDAuOTYyLTAuNDYzNzUgMC45MjI3NS0wLjY5MzI1IDAuNTQyLTEuMDA1OCAwLjMwNzUtMC45MjI3NSAwLjk2Njc1IDAuMDQgMC45MjI3NSAwLjg4Mzc1IDAuMzg1NzUgMi4wMDY4IDAuMTU3NSAxLjE1NzIgMC43MzI1IDEuMDAxIDEuMDQgMS4xNTcyIDEuNTgyIDEuMDQgMS42MjEgMS4yNTUtMC40Njg3NSAxLjE3NjgtMC43MzI1IDEuMTE4Mi0yLjAwMiAxLjM4NjgtMS44MTE1IDAuNjkzMjQtMi40MzE4IDEuMzUyNS0yLjE5NzIgMS43Mjg1LTMuMTk4MiAyLjQzMTgtMi4xMTkyIDAuNzcxNXoiCiAgICAgICAgc3R5bGU9ImZpbGwtcnVsZTpldmVub2RkO3N0cm9rZTojY2E5YzAwO3N0cm9rZS1taXRlcmxpbWl0OjEwO3N0cm9rZS13aWR0aDoxLjI1O2ZpbGw6I2ZmYzIwMCIKICAgICAgICBpbmtzY2FwZTpjb25uZWN0b3ItY3VydmF0dXJlPSIwIgogICAgLz4KICA8L2cKICA+CiAgPG1ldGFkYXRhCiAgICA+CiAgICA8cmRmOlJERgogICAgICA+CiAgICAgIDxjYzpXb3JrCiAgICAgICAgPgogICAgICAgIDxkYzpmb3JtYXQKICAgICAgICAgID5pbWFnZS9zdmcreG1sPC9kYzpmb3JtYXQKICAgICAgICA+CiAgICAgICAgPGRjOnR5cGUKICAgICAgICAgICAgcmRmOnJlc291cmNlPSJodHRwOi8vcHVybC5vcmcvZGMvZGNtaXR5cGUvU3RpbGxJbWFnZSIKICAgICAgICAvPgogICAgICAgIDxjYzpsaWNlbnNlCiAgICAgICAgICAgIHJkZjpyZXNvdXJjZT0iaHR0cDovL2NyZWF0aXZlY29tbW9ucy5vcmcvbGljZW5zZXMvcHVibGljZG9tYWluLyIKICAgICAgICAvPgogICAgICAgIDxkYzpwdWJsaXNoZXIKICAgICAgICAgID4KICAgICAgICAgIDxjYzpBZ2VudAogICAgICAgICAgICAgIHJkZjphYm91dD0iaHR0cDovL29wZW5jbGlwYXJ0Lm9yZy8iCiAgICAgICAgICAgID4KICAgICAgICAgICAgPGRjOnRpdGxlCiAgICAgICAgICAgICAgPk9wZW5jbGlwYXJ0PC9kYzp0aXRsZQogICAgICAgICAgICA+CiAgICAgICAgICA8L2NjOkFnZW50CiAgICAgICAgICA+CiAgICAgICAgPC9kYzpwdWJsaXNoZXIKICAgICAgICA+CiAgICAgICAgPGRjOnRpdGxlCiAgICAgICAgICA+U2VydmVyIC0gbGludXg8L2RjOnRpdGxlCiAgICAgICAgPgogICAgICAgIDxkYzpkYXRlCiAgICAgICAgICA+MjAxMi0wOC0wMlQxNDoyNzozOTwvZGM6ZGF0ZQogICAgICAgID4KICAgICAgICA8ZGM6ZGVzY3JpcHRpb24KICAgICAgICAvPgogICAgICAgIDxkYzpzb3VyY2UKICAgICAgICAgID5odHRwczovL29wZW5jbGlwYXJ0Lm9yZy9kZXRhaWwvMTcxNDIyL3NlcnZlci0tLWxpbnV4LWJ5LWN5YmVyc2Nvb3R5LTE3MTQyMjwvZGM6c291cmNlCiAgICAgICAgPgogICAgICAgIDxkYzpjcmVhdG9yCiAgICAgICAgICA+CiAgICAgICAgICA8Y2M6QWdlbnQKICAgICAgICAgICAgPgogICAgICAgICAgICA8ZGM6dGl0bGUKICAgICAgICAgICAgICA+Y3liZXJzY29vdHk8L2RjOnRpdGxlCiAgICAgICAgICAgID4KICAgICAgICAgIDwvY2M6QWdlbnQKICAgICAgICAgID4KICAgICAgICA8L2RjOmNyZWF0b3IKICAgICAgICA+CiAgICAgICAgPGRjOnN1YmplY3QKICAgICAgICAgID4KICAgICAgICAgIDxyZGY6QmFnCiAgICAgICAgICAgID4KICAgICAgICAgICAgPHJkZjpsaQogICAgICAgICAgICAgID5jb21wdXRlcjwvcmRmOmxpCiAgICAgICAgICAgID4KICAgICAgICAgICAgPHJkZjpsaQogICAgICAgICAgICAgID5pbmZvcm1hdGlxdWU8L3JkZjpsaQogICAgICAgICAgICA+CiAgICAgICAgICAgIDxyZGY6bGkKICAgICAgICAgICAgICA+aXQ8L3JkZjpsaQogICAgICAgICAgICA+CiAgICAgICAgICAgIDxyZGY6bGkKICAgICAgICAgICAgICA+bGludXg8L3JkZjpsaQogICAgICAgICAgICA+CiAgICAgICAgICAgIDxyZGY6bGkKICAgICAgICAgICAgICA+b3JkaW5hdGV1cjwvcmRmOmxpCiAgICAgICAgICAgID4KICAgICAgICAgICAgPHJkZjpsaQogICAgICAgICAgICAgID5zZXJ2ZXI8L3JkZjpsaQogICAgICAgICAgICA+CiAgICAgICAgICAgIDxyZGY6bGkKICAgICAgICAgICAgICA+c2VydmV1cjwvcmRmOmxpCiAgICAgICAgICAgID4KICAgICAgICAgICAgPHJkZjpsaQogICAgICAgICAgICAgID50dXg8L3JkZjpsaQogICAgICAgICAgICA+CiAgICAgICAgICA8L3JkZjpCYWcKICAgICAgICAgID4KICAgICAgICA8L2RjOnN1YmplY3QKICAgICAgICA+CiAgICAgIDwvY2M6V29yawogICAgICA+CiAgICAgIDxjYzpMaWNlbnNlCiAgICAgICAgICByZGY6YWJvdXQ9Imh0dHA6Ly9jcmVhdGl2ZWNvbW1vbnMub3JnL2xpY2Vuc2VzL3B1YmxpY2RvbWFpbi8iCiAgICAgICAgPgogICAgICAgIDxjYzpwZXJtaXRzCiAgICAgICAgICAgIHJkZjpyZXNvdXJjZT0iaHR0cDovL2NyZWF0aXZlY29tbW9ucy5vcmcvbnMjUmVwcm9kdWN0aW9uIgogICAgICAgIC8+CiAgICAgICAgPGNjOnBlcm1pdHMKICAgICAgICAgICAgcmRmOnJlc291cmNlPSJodHRwOi8vY3JlYXRpdmVjb21tb25zLm9yZy9ucyNEaXN0cmlidXRpb24iCiAgICAgICAgLz4KICAgICAgICA8Y2M6cGVybWl0cwogICAgICAgICAgICByZGY6cmVzb3VyY2U9Imh0dHA6Ly9jcmVhdGl2ZWNvbW1vbnMub3JnL25zI0Rlcml2YXRpdmVXb3JrcyIKICAgICAgICAvPgogICAgICA8L2NjOkxpY2Vuc2UKICAgICAgPgogICAgPC9yZGY6UkRGCiAgICA+CiAgPC9tZXRhZGF0YQogID4KPC9zdmcKPgo=;" parent="1" vertex="1">
          <mxGeometry x="400" y="570" width="35.67" height="50" as="geometry" />
        </mxCell>
        <mxCell id="srdscHzhea0q-TOiqJzr-21" value="" style="shape=image;aspect=fixed;image=data:image/svg+xml,PD94bWwgdmVyc2lvbj0iMS4wIiBlbmNvZGluZz0iVVRGLTgiIHN0YW5kYWxvbmU9Im5vIj8+CjwhLS0gQ3JlYXRlZCB3aXRoIElua3NjYXBlIChodHRwOi8vd3d3Lmlua3NjYXBlLm9yZy8pIC0tPgo8c3ZnCiAgICB4bWxuczppbmtzY2FwZT0iaHR0cDovL3d3dy5pbmtzY2FwZS5vcmcvbmFtZXNwYWNlcy9pbmtzY2FwZSIKICAgIHhtbG5zOnJkZj0iaHR0cDovL3d3dy53My5vcmcvMTk5OS8wMi8yMi1yZGYtc3ludGF4LW5zIyIKICAgIHhtbG5zPSJodHRwOi8vd3d3LnczLm9yZy8yMDAwL3N2ZyIKICAgIHhtbG5zOmNjPSJodHRwOi8vY3JlYXRpdmVjb21tb25zLm9yZy9ucyMiCiAgICB4bWxuczpkYz0iaHR0cDovL3B1cmwub3JnL2RjL2VsZW1lbnRzLzEuMS8iCiAgICB4bWxuczpzb2RpcG9kaT0iaHR0cDovL3NvZGlwb2RpLnNvdXJjZWZvcmdlLm5ldC9EVEQvc29kaXBvZGktMC5kdGQiCiAgICB4bWxuczpzdmc9Imh0dHA6Ly93d3cudzMub3JnLzIwMDAvc3ZnIgogICAgeG1sbnM6bnMxPSJodHRwOi8vc296aS5iYWllcm91Z2UuZnIiCiAgICB4bWxuczp4bGluaz0iaHR0cDovL3d3dy53My5vcmcvMTk5OS94bGluayIKICAgIGlkPSJzdmc2NzQ2IgogICAgc29kaXBvZGk6ZG9jbmFtZT0iTm91dmVhdSBkb2N1bWVudCAzNyIKICAgIHZpZXdCb3g9IjAgMCAxMDguMzggMTUyLjA5IgogICAgdmVyc2lvbj0iMS4xIgogICAgaW5rc2NhcGU6dmVyc2lvbj0iMC40OC4zLjEgcjk4ODYiCiAgPgogIDxzb2RpcG9kaTpuYW1lZHZpZXcKICAgICAgaWQ9ImJhc2UiCiAgICAgIGJvcmRlcmNvbG9yPSIjNjY2NjY2IgogICAgICBpbmtzY2FwZTpwYWdlc2hhZG93PSIyIgogICAgICBpbmtzY2FwZTp3aW5kb3cteT0iMjQiCiAgICAgIGZpdC1tYXJnaW4tbGVmdD0iMCIKICAgICAgcGFnZWNvbG9yPSIjZmZmZmZmIgogICAgICBmaXQtbWFyZ2luLXRvcD0iMCIKICAgICAgaW5rc2NhcGU6d2luZG93LW1heGltaXplZD0iMCIKICAgICAgaW5rc2NhcGU6em9vbT0iMC4zNSIKICAgICAgaW5rc2NhcGU6d2luZG93LXg9IjQ5IgogICAgICBpbmtzY2FwZTp3aW5kb3ctaGVpZ2h0PSI0MTUiCiAgICAgIHNob3dncmlkPSJmYWxzZSIKICAgICAgYm9yZGVyb3BhY2l0eT0iMS4wIgogICAgICBpbmtzY2FwZTpjdXJyZW50LWxheWVyPSJsYXllcjEiCiAgICAgIGlua3NjYXBlOmN4PSItMTg0LjkwNjI1IgogICAgICBpbmtzY2FwZTpjeT0iMzMuMjAwMzE3IgogICAgICBmaXQtbWFyZ2luLXJpZ2h0PSIwIgogICAgICBmaXQtbWFyZ2luLWJvdHRvbT0iMCIKICAgICAgaW5rc2NhcGU6d2luZG93LXdpZHRoPSI0ODYiCiAgICAgIGlua3NjYXBlOnBhZ2VvcGFjaXR5PSIwLjAiCiAgICAgIGlua3NjYXBlOmRvY3VtZW50LXVuaXRzPSJweCIKICAvPgogIDxnCiAgICAgIGlkPSJsYXllcjEiCiAgICAgIGlua3NjYXBlOmxhYmVsPSJDYWxxdWUgMSIKICAgICAgaW5rc2NhcGU6Z3JvdXBtb2RlPSJsYXllciIKICAgICAgdHJhbnNmb3JtPSJ0cmFuc2xhdGUoLTU1OS45MSAtNDEzLjQ3KSIKICAgID4KICAgIDxwYXRoCiAgICAgICAgaWQ9InBhdGg5NTQiCiAgICAgICAgZD0ibTcxMy42OCA1MDguNjYiCiAgICAgICAgc3R5bGU9InN0cm9rZTojMDAwMDAwO3N0cm9rZS1taXRlcmxpbWl0OjEwO3N0cm9rZS13aWR0aDoxLjI1O2ZpbGw6bm9uZSIKICAgICAgICBpbmtzY2FwZTpjb25uZWN0b3ItY3VydmF0dXJlPSIwIgogICAgLz4KICAgIDxwYXRoCiAgICAgICAgaWQ9InBhdGg5NTYiCiAgICAgICAgZD0ibTU4Ni40IDQzMC4zNCAxNS0xNWg1MGwxNSAxNXYxMjBoLTgweiIKICAgICAgICBzdHlsZT0iZmlsbC1ydWxlOmV2ZW5vZGQ7c3Ryb2tlOiM3ZDdkN2Q7c3Ryb2tlLW1pdGVybGltaXQ6MTA7c3Ryb2tlLXdpZHRoOjMuNzU7ZmlsbDojZTFlMWUxIgogICAgICAgIGlua3NjYXBlOmNvbm5lY3Rvci1jdXJ2YXR1cmU9IjAiCiAgICAvPgogICAgPHBhdGgKICAgICAgICBpZD0icGF0aDk1OCIKICAgICAgICBkPSJtNTkzLjkgNDMyLjg0IDEyLjUtMTIuNWg0MGwxMi41IDEyLjV6IgogICAgICAgIHN0eWxlPSJmaWxsLXJ1bGU6ZXZlbm9kZDtzdHJva2U6IzljOWM5YztzdHJva2UtbWl0ZXJsaW1pdDoxMDtzdHJva2Utd2lkdGg6MS4yNTtmaWxsOiNiZGJkYmQiCiAgICAgICAgaW5rc2NhcGU6Y29ubmVjdG9yLWN1cnZhdHVyZT0iMCIKICAgIC8+CiAgICA8cGF0aAogICAgICAgIGlkPSJwYXRoOTYwIgogICAgICAgIGQ9Im01OTUuMTUgNDM1LjM0aDYyLjVjMC42ODg1IDAgMS4yNSAwLjU1NjYzIDEuMjUgMS4yNXYxMDcuNWMwIDAuNjg4NS0wLjU2MTUgMS4yNS0xLjI1IDEuMjVoLTYyLjVjLTAuNjkzMjUgMC0xLjI1LTAuNTYxNS0xLjI1LTEuMjV2LTEwNy41YzAtMC42OTMzNyAwLjU1Njc1LTEuMjUgMS4yNS0xLjI1IgogICAgICAgIHN0eWxlPSJzdHJva2UtbGluZWpvaW46cm91bmQ7ZmlsbC1ydWxlOmV2ZW5vZGQ7c3Ryb2tlOiM5YzljOWM7c3Ryb2tlLW1pdGVybGltaXQ6MTA7c3Ryb2tlLXdpZHRoOjEuMjU7ZmlsbDojYmRiZGJkIgogICAgICAgIGlua3NjYXBlOmNvbm5lY3Rvci1jdXJ2YXR1cmU9IjAiCiAgICAvPgogICAgPHBhdGgKICAgICAgICBpZD0icGF0aDk2MiIKICAgICAgICBkPSJtNjAwLjE1IDQ0Mi44NGg1Mi41YzAuNjg4NSAwIDEuMjUgMC41NTY2MyAxLjI1IDEuMjV2MTIuNWMwIDAuNjg4NDgtMC41NjE1IDEuMjUtMS4yNSAxLjI1aC01Mi41Yy0wLjY5MzI1IDAtMS4yNS0wLjU2MTUyLTEuMjUtMS4yNXYtMTIuNWMwLTAuNjkzMzcgMC41NTY3NS0xLjI1IDEuMjUtMS4yNSIKICAgICAgICBzdHlsZT0ic3Ryb2tlLWxpbmVqb2luOnJvdW5kO2ZpbGwtcnVsZTpldmVub2RkO3N0cm9rZTojN2Q3ZDdkO3N0cm9rZS1taXRlcmxpbWl0OjEwO3N0cm9rZS13aWR0aDozLjc1O2ZpbGw6IzljOWM5YyIKICAgICAgICBpbmtzY2FwZTpjb25uZWN0b3ItY3VydmF0dXJlPSIwIgogICAgLz4KICAgIDxwYXRoCiAgICAgICAgaWQ9InBhdGg5NjQiCiAgICAgICAgZD0ibTYwMC4xNSA0NjUuMzRoNTIuNWMwLjY4ODUgMCAxLjI1IDAuNTU2NjUgMS4yNSAxLjI1djEyLjVjMCAwLjY4ODQ4LTAuNTYxNSAxLjI1LTEuMjUgMS4yNWgtNTIuNWMtMC42OTMyNSAwLTEuMjUtMC41NjE1Mi0xLjI1LTEuMjV2LTEyLjVjMC0wLjY5MzM3IDAuNTU2NzUtMS4yNSAxLjI1LTEuMjUiCiAgICAgICAgc3R5bGU9InN0cm9rZS1saW5lam9pbjpyb3VuZDtmaWxsLXJ1bGU6ZXZlbm9kZDtzdHJva2U6IzdkN2Q3ZDtzdHJva2UtbWl0ZXJsaW1pdDoxMDtzdHJva2Utd2lkdGg6My43NTtmaWxsOiM5YzljOWMiCiAgICAgICAgaW5rc2NhcGU6Y29ubmVjdG9yLWN1cnZhdHVyZT0iMCIKICAgIC8+CiAgICA8cGF0aAogICAgICAgIGlkPSJwYXRoOTY2IgogICAgICAgIGQ9Im02MjIuNjUgNDkyLjg0aDMwYzAuNjg4NSAwIDEuMjUgMC41NTY2MyAxLjI1IDEuMjV2MTBjMCAwLjY4ODUtMC41NjE1IDEuMjUtMS4yNSAxLjI1aC0zMGMtMC42OTMyNSAwLTEuMjUtMC41NjE1LTEuMjUtMS4yNXYtMTBjMC0wLjY5MzM3IDAuNTU2NzUtMS4yNSAxLjI1LTEuMjUiCiAgICAgICAgc3R5bGU9InN0cm9rZS1saW5lam9pbjpyb3VuZDtmaWxsLXJ1bGU6ZXZlbm9kZDtzdHJva2U6IzdkN2Q3ZDtzdHJva2UtbWl0ZXJsaW1pdDoxMDtzdHJva2Utd2lkdGg6My43NTtmaWxsOiM5YzljOWMiCiAgICAgICAgaW5rc2NhcGU6Y29ubmVjdG9yLWN1cnZhdHVyZT0iMCIKICAgIC8+CiAgICA8cGF0aAogICAgICAgIGlkPSJwYXRoOTY4IgogICAgICAgIGQ9Im02MTMuOSA0OTkuMDljMCA4LjMzNS0xMi41IDguMzM1LTEyLjUgMHMxMi41LTguMzM1IDEyLjUgMCIKICAgICAgICBzdHlsZT0ic3Ryb2tlLWxpbmVqb2luOnJvdW5kO2ZpbGwtcnVsZTpldmVub2RkO3N0cm9rZTojN2Q3ZDdkO3N0cm9rZS1taXRlcmxpbWl0OjEwO3N0cm9rZS13aWR0aDoyLjU7ZmlsbDojYzUxOTAwIgogICAgICAgIGlua3NjYXBlOmNvbm5lY3Rvci1jdXJ2YXR1cmU9IjAiCiAgICAvPgogICAgPHBhdGgKICAgICAgICBpZD0icGF0aDk3MCIKICAgICAgICBkPSJtNjExLjQgNTE2LjY1aDV2MjcuNWgtNXoiCiAgICAgICAgc3R5bGU9ImZpbGwtcnVsZTpldmVub2RkO3N0cm9rZTojN2Q3ZDdkO3N0cm9rZS1taXRlcmxpbWl0OjEwO3N0cm9rZS13aWR0aDoyLjU7ZmlsbDojOWM5YzljIgogICAgICAgIGlua3NjYXBlOmNvbm5lY3Rvci1jdXJ2YXR1cmU9IjAiCiAgICAvPgogICAgPHBhdGgKICAgICAgICBpZD0icGF0aDk3MiIKICAgICAgICBkPSJtNjIxLjQgNTE2LjY1aDV2MjcuNWgtNXoiCiAgICAgICAgc3R5bGU9ImZpbGwtcnVsZTpldmVub2RkO3N0cm9rZTojN2Q3ZDdkO3N0cm9rZS1taXRlcmxpbWl0OjEwO3N0cm9rZS13aWR0aDoyLjU7ZmlsbDojOWM5YzljIgogICAgICAgIGlua3NjYXBlOmNvbm5lY3Rvci1jdXJ2YXR1cmU9IjAiCiAgICAvPgogICAgPHBhdGgKICAgICAgICBpZD0icGF0aDk3NCIKICAgICAgICBkPSJtNjMxLjQgNTE2LjY1aDV2MjcuNWgtNXoiCiAgICAgICAgc3R5bGU9ImZpbGwtcnVsZTpldmVub2RkO3N0cm9rZTojN2Q3ZDdkO3N0cm9rZS1taXRlcmxpbWl0OjEwO3N0cm9rZS13aWR0aDoyLjU7ZmlsbDojOWM5YzljIgogICAgICAgIGlua3NjYXBlOmNvbm5lY3Rvci1jdXJ2YXR1cmU9IjAiCiAgICAvPgogICAgPHBhdGgKICAgICAgICBpZD0icGF0aDk3NiIKICAgICAgICBkPSJtNjQxLjQgNTE2LjY1aDV2MjcuNWgtNXoiCiAgICAgICAgc3R5bGU9ImZpbGwtcnVsZTpldmVub2RkO3N0cm9rZTojN2Q3ZDdkO3N0cm9rZS1taXRlcmxpbWl0OjEwO3N0cm9rZS13aWR0aDoyLjU7ZmlsbDojOWM5YzljIgogICAgICAgIGlua3NjYXBlOmNvbm5lY3Rvci1jdXJ2YXR1cmU9IjAiCiAgICAvPgogICAgPHBhdGgKICAgICAgICBpZD0icGF0aDk3OCIKICAgICAgICBkPSJtNjUxLjQgNTE2LjdoNXYyNy41aC01eiIKICAgICAgICBzdHlsZT0iZmlsbC1ydWxlOmV2ZW5vZGQ7c3Ryb2tlOiM3ZDdkN2Q7c3Ryb2tlLW1pdGVybGltaXQ6MTA7c3Ryb2tlLXdpZHRoOjIuNTtmaWxsOiM5YzljOWMiCiAgICAgICAgaW5rc2NhcGU6Y29ubmVjdG9yLWN1cnZhdHVyZT0iMCIKICAgIC8+CiAgICA8cGF0aAogICAgICAgIGlkPSJwYXRoOTgwIgogICAgICAgIGQ9Im01NjkuNjUgNTM1LjQyIDIuNzE5Ny00LjM4NDggNi45OTcxLTEwLjY0LTAuMDUtMTUuODY5IDAuMzkwNzUtMS41MTg2IDAuNzIyNzUtMS4wMzAyIDEuMjc0NS0xLjQ1MDIgMS41MTg1LTEuMzA4NiAxLjIwMTItMC44ODM4IDEuOTgyNS0wLjYwMDU4aDEuNTE4NWwxLjYyNiAwLjAzNDIgMS43MzM1IDAuMzUxNTggMS45MDkyIDAuODQ5NiAxLjY2MDIgMC44NDk2IDEuNDExMiAxLjI3NDQgMS4wOTg4IDEuMzc3IDEuMTMyOCAxLjg3MDEgMC40OTMyNSAxLjk4MjUgMC4xNzUgMi43MjQ2IDAuMjUgNC43MDIyIDAuMDM1IDMuNDI3NyAzLjAwNzggMy45OTQyIDQuNTk0NyA2LjU3NzIgMi42NDY1IDQuOTg1NCAxLjM0NzggMy4yODYxIDAuMzA3NSAzLjExNTItMC4xNDc1IDIuMjAyMi0wLjIzIDIuMTA0NS0wLjgzOTc1IDMuNTE1Ni0wLjg1OTUgMi4zMTkyLTguODc3IDEzLjI5MS02LjM2MjMtMS45MDkyLTEwLjI0OSAwLjAzNS0zLjY0MjYgMi40MDcyLTkuMTU1My0xNC45OS0yLjc1ODgtNC42MzM4LTAuMTQyNS0yLjQzNjUgMC4zNjEyNS0yLjU3ODF6IgogICAgICAgIHN0eWxlPSJmaWxsLXJ1bGU6ZXZlbm9kZDtzdHJva2U6IzAwMDAwMDtzdHJva2UtbWl0ZXJsaW1pdDoxMDtzdHJva2Utd2lkdGg6MS4yNTtmaWxsOiMwMDAwMDAiCiAgICAgICAgaW5rc2NhcGU6Y29ubmVjdG9yLWN1cnZhdHVyZT0iMCIKICAgIC8+CiAgICA8cGF0aAogICAgICAgIGlkPSJwYXRoOTgyIgogICAgICAgIGQ9Im01ODQuOTIgNTExLjI3YzAgNC41NDEtNC40OTIyIDQuNTQxLTQuNDkyMiAwIDAtNC41MzYxIDQuNDkyMi00LjUzNjEgNC40OTIyIDAiCiAgICAgICAgc3R5bGU9ImZpbGwtcnVsZTpldmVub2RkO3N0cm9rZTojZmZmZmZmO3N0cm9rZS1taXRlcmxpbWl0OjEwO3N0cm9rZS13aWR0aDoxLjI1O2ZpbGw6I2ZmZmZmZiIKICAgICAgICBpbmtzY2FwZTpjb25uZWN0b3ItY3VydmF0dXJlPSIwIgogICAgLz4KICAgIDxwYXRoCiAgICAgICAgaWQ9InBhdGg5ODQiCiAgICAgICAgZD0ibTU4MS4xOSA1MjEuNTkgMC40MzQ1LTQuMDMzMiAxMi40MjctMS40ODkyIDAuMjEgMi45NDQzIDEuMzIzMiAyLjUxNDYgMC45MzI1IDIuMDg5OCAxLjc2NzUgMy43NTk4IDAuOTk2IDIuMDUwOCAxLjAwMSAxLjk1MzIgMC42MDU1IDEuOTU4IDAuNjU0MjUgMy4zODg3IDAuMTUyNSAzLjYyNzkgMC4xNTc1IDQuNzg1Mi0xLjc2MjggNS45NDczLTIuOTE1IDIuMzE0NS0xLjYzNTggMS40MDE1LTIuMzc4IDEuNTc3Mi0yLjA4IDEuMDY5Mi0xLjg3IDAuNTAzLTIuMDc1MiAwLjI3ODI1LTEuNzQzMi0wLjA1NzUtMi41MDk4LTAuMTYtMS4zMDg1LTAuNzA4LTEuMDY5Mi0wLjkwMzI1LTEuNzQzMi0yLjEwOTJoMS4yNTk4bDEuMDU0OC0wLjQxMDI1IDAuNTk1NzUtMC42ODg1IDAuMjA1LTEuMDM1Mi0wLjQxMDI1LTEuMTE4Mi01LjE1NjItNC42MDk0LTIuMDMxMi0yLjg5MDYtMC43MTMtMS44MTY1IDAuMDA1LTEuNTQ3OCAwLjY4MzUtMy4wMzIyIDEuMzY3Mi0zLjM1OTQgMS40NjQ4LTMuMzU0NSAxLjUwODgtMy40MjI4IDEuNDk0Mi0yLjg3NnoiCiAgICAgICAgc3R5bGU9ImZpbGwtcnVsZTpldmVub2RkO3N0cm9rZTojZmZmZmZmO3N0cm9rZS1taXRlcmxpbWl0OjEwO3N0cm9rZS13aWR0aDoxLjI1O2ZpbGw6I2ZmZmZmZiIKICAgICAgICBpbmtzY2FwZTpjb25uZWN0b3ItY3VydmF0dXJlPSIwIgogICAgLz4KICAgIDxwYXRoCiAgICAgICAgaWQ9InBhdGg5ODYiCiAgICAgICAgZD0ibTU5NC4wNCA1MTEuNzNjMCA2LjE0NzUtNS45NTIyIDYuMTQ3NS01Ljk1MjIgMCAwLTYuMTQyNiA1Ljk1MjItNi4xNDI2IDUuOTUyMiAwIgogICAgICAgIHN0eWxlPSJmaWxsLXJ1bGU6ZXZlbm9kZDtzdHJva2U6I2ZmZmZmZjtzdHJva2UtbWl0ZXJsaW1pdDoxMDtzdHJva2Utd2lkdGg6MS4yNTtmaWxsOiNmZmZmZmYiCiAgICAgICAgaW5rc2NhcGU6Y29ubmVjdG9yLWN1cnZhdHVyZT0iMCIKICAgIC8+CiAgICA8cGF0aAogICAgICAgIGlkPSJwYXRoOTg4IgogICAgICAgIGQ9Im01OTIuNDMgNTEyLjE2YzAgMi45MTk5LTMuMTM5NiAyLjkxOTktMy4xMzk2IDAgMC0yLjkyNDggMy4xMzk2LTIuOTI0OCAzLjEzOTYgMCIKICAgICAgICBzdHlsZT0iZmlsbC1ydWxlOmV2ZW5vZGQ7c3Ryb2tlOiMwMDAwMDA7c3Ryb2tlLW1pdGVybGltaXQ6MTA7c3Ryb2tlLXdpZHRoOjEuMjU7ZmlsbDojMDAwMDAwIgogICAgICAgIGlua3NjYXBlOmNvbm5lY3Rvci1jdXJ2YXR1cmU9IjAiCiAgICAvPgogICAgPHBhdGgKICAgICAgICBpZD0icGF0aDk5MCIKICAgICAgICBkPSJtNTgwLjU2IDUxNy4yMSAwLjA1NzUtMS4yMDEyIDEuMzk2NS0wLjkwMzI1IDEuNzQ4LTEuNDYgMS4yOTg4LTAuNjQ5NSAxLjAwNi0wLjIzIDEuNDU1IDAuMTMyNSAxLjY1NTIgMC42NDk1IDIuNDMxOCAwLjk3MTc1IDIuOTkzMiAxLjIwNi0wLjcyMjc1IDEuODI2Mi0yLjEzODggMS4zNDI4LTEuODE2NSAxLjIzNTItMS43MTg4IDAuOTcxNzUtMS43ODIyIDAuMzU2NS0wLjc0Ny0wLjA2MjUtMS45MTQtMS4wMDU4LTEuNDIxLTEuMzYyMi0xLjQ5NDItMS4yOTg4eiIKICAgICAgICBzdHlsZT0iZmlsbC1ydWxlOmV2ZW5vZGQ7c3Ryb2tlOiNjYTljMDA7c3Ryb2tlLW1pdGVybGltaXQ6MTA7c3Ryb2tlLXdpZHRoOjEuMjU7ZmlsbDojZmZjMjAwIgogICAgICAgIGlua3NjYXBlOmNvbm5lY3Rvci1jdXJ2YXR1cmU9IjAiCiAgICAvPgogICAgPHBhdGgKICAgICAgICBpZD0icGF0aDk5MiIKICAgICAgICBkPSJtNTgzLjc4IDUxMi4zNGMwIDIuMzg3OC0yLjU2ODQgMi4zODc4LTIuNTY4NCAwIDAtMi4zODI4IDIuNTY4NC0yLjM4MjggMi41Njg0IDAiCiAgICAgICAgc3R5bGU9ImZpbGwtcnVsZTpldmVub2RkO3N0cm9rZTojMDAwMDAwO3N0cm9rZS1taXRlcmxpbWl0OjEwO3N0cm9rZS13aWR0aDoxLjI1O2ZpbGw6IzAwMDAwMCIKICAgICAgICBpbmtzY2FwZTpjb25uZWN0b3ItY3VydmF0dXJlPSIwIgogICAgLz4KICAgIDxwYXRoCiAgICAgICAgaWQ9InBhdGg5OTQiCiAgICAgICAgZD0ibTU4MS41NCA1MTguMzIgMS4xNTcyIDAuNDYzNzUgMS4zMzggMC4zMzcwMSAxLjMyMzIgMC4wODc1IDEuMzQ3OC0wLjE1NSAyLjE1MzItMC43MzcyNSAxLjMzOC0wLjUxNzUgMS4wODg4LTAuNTE3NSAxLjE3MTgtMC43NjY1IgogICAgICAgIHN0eWxlPSJzdHJva2U6I2NhOWMwMDtzdHJva2UtbWl0ZXJsaW1pdDoxMDtzdHJva2Utd2lkdGg6MS4yNTtmaWxsOm5vbmUiCiAgICAgICAgaW5rc2NhcGU6Y29ubmVjdG9yLWN1cnZhdHVyZT0iMCIKICAgIC8+CiAgICA8cGF0aAogICAgICAgIGlkPSJwYXRoOTk2IgogICAgICAgIGQ9Im01NjAuNiA1NTkuNDIgMC4yNDUtMS4wMjUyIDAuNDYzNzUtMS4wNTk1IDAuNTI3MjUtMS4wMjU1IDAuMTQyNS0xLjIwMTItMC4yMS0xLjU1NzUtMC4yODMyNS0xLjc2NzUgMC4wMzUtMi4wODUgMC4xOC0xLjM3NyAwLjcwMy0wLjQ2Mzc1IDEuMDU5NS0wLjI0NSAxLjI0MDIgMC4wMzUgMS41NTI4LTAuMDM1IDEuMjA2LTAuODQ5NSAwLjc3NjUtMS4yNzQ1IDAuNzU2NzUtMS4zNTc1IDAuOTIyNzUtMC40MzQ1aDAuOTg2MjVsMS4wNzkgMC41NTE3NSA0LjgwNDcgNi44MzU5IDIuNTYzNSAzLjg0MjggMi4xODI4IDMuMTU5MiAwLjM4MDc1IDEuNTgyIDAuMDMgMS40OTktMC4yNzM1IDEuMTg2NS0wLjYzNDc1IDAuODEwNS0wLjk1NyAwLjYzOTc1LTEuNDg0MiAwLjQ5MzI1LTEuNzMzNSAwLjAzNS0zLjA3MTMtMC41OTU3NS00LjI0MzItMS40NTAyLTQuODQzOC0xLjM4MTgtMi41NDg4LTAuNDI0NzUtMC44MTA1LTAuMjF6IgogICAgICAgIHN0eWxlPSJmaWxsLXJ1bGU6ZXZlbm9kZDtzdHJva2U6I2NhOWMwMDtzdHJva2UtbWl0ZXJsaW1pdDoxMDtzdHJva2Utd2lkdGg6MS4yNTtmaWxsOiNmZmMyMDAiCiAgICAgICAgaW5rc2NhcGU6Y29ubmVjdG9yLWN1cnZhdHVyZT0iMCIKICAgIC8+CiAgICA8cGF0aAogICAgICAgIGlkPSJwYXRoOTk4IgogICAgICAgIGQ9Im02MDAuMiA1NjQuNzItMS42NDU1LTEuMDAxLTAuOTIyNzUtMS42OTQyLTAuMjM1LTIuNDcwOCAwLjY5ODI1LTIuNTA0OSAwLjQ1OS0yLjIzNjIgMC4yNzM1LTUuMTI3di0zLjUwNTlsMC4zODU3NS0xLjM4NjggMS4wNzktMC4zMTI1IDEuMzg2OCAwLjQ2Mzc0djEuMzkxNWwwLjI2ODUgMC44NDQ3NSAxLjExODIgMC45Mjc3NiAxLjIzNTIgMC41MzcgMS4yNjk1IDAuMjY4NSAxLjM5MTUtMC4xMTI1IDAuOTYyLTAuNDYzNzUgMC45MjI3NS0wLjY5MzI1IDAuNTQyLTEuMDA1OCAwLjMwNzUtMC45MjI3NSAwLjk2Njc1IDAuMDQgMC45MjI3NSAwLjg4Mzc1IDAuMzg1NzUgMi4wMDY4IDAuMTU3NSAxLjE1NzIgMC43MzI1IDEuMDAxIDEuMDQgMS4xNTcyIDEuNTgyIDEuMDQgMS42MjEgMS4yNTUtMC40Njg3NSAxLjE3NjgtMC43MzI1IDEuMTE4Mi0yLjAwMiAxLjM4NjgtMS44MTE1IDAuNjkzMjQtMi40MzE4IDEuMzUyNS0yLjE5NzIgMS43Mjg1LTMuMTk4MiAyLjQzMTgtMi4xMTkyIDAuNzcxNXoiCiAgICAgICAgc3R5bGU9ImZpbGwtcnVsZTpldmVub2RkO3N0cm9rZTojY2E5YzAwO3N0cm9rZS1taXRlcmxpbWl0OjEwO3N0cm9rZS13aWR0aDoxLjI1O2ZpbGw6I2ZmYzIwMCIKICAgICAgICBpbmtzY2FwZTpjb25uZWN0b3ItY3VydmF0dXJlPSIwIgogICAgLz4KICA8L2cKICA+CiAgPG1ldGFkYXRhCiAgICA+CiAgICA8cmRmOlJERgogICAgICA+CiAgICAgIDxjYzpXb3JrCiAgICAgICAgPgogICAgICAgIDxkYzpmb3JtYXQKICAgICAgICAgID5pbWFnZS9zdmcreG1sPC9kYzpmb3JtYXQKICAgICAgICA+CiAgICAgICAgPGRjOnR5cGUKICAgICAgICAgICAgcmRmOnJlc291cmNlPSJodHRwOi8vcHVybC5vcmcvZGMvZGNtaXR5cGUvU3RpbGxJbWFnZSIKICAgICAgICAvPgogICAgICAgIDxjYzpsaWNlbnNlCiAgICAgICAgICAgIHJkZjpyZXNvdXJjZT0iaHR0cDovL2NyZWF0aXZlY29tbW9ucy5vcmcvbGljZW5zZXMvcHVibGljZG9tYWluLyIKICAgICAgICAvPgogICAgICAgIDxkYzpwdWJsaXNoZXIKICAgICAgICAgID4KICAgICAgICAgIDxjYzpBZ2VudAogICAgICAgICAgICAgIHJkZjphYm91dD0iaHR0cDovL29wZW5jbGlwYXJ0Lm9yZy8iCiAgICAgICAgICAgID4KICAgICAgICAgICAgPGRjOnRpdGxlCiAgICAgICAgICAgICAgPk9wZW5jbGlwYXJ0PC9kYzp0aXRsZQogICAgICAgICAgICA+CiAgICAgICAgICA8L2NjOkFnZW50CiAgICAgICAgICA+CiAgICAgICAgPC9kYzpwdWJsaXNoZXIKICAgICAgICA+CiAgICAgICAgPGRjOnRpdGxlCiAgICAgICAgICA+U2VydmVyIC0gbGludXg8L2RjOnRpdGxlCiAgICAgICAgPgogICAgICAgIDxkYzpkYXRlCiAgICAgICAgICA+MjAxMi0wOC0wMlQxNDoyNzozOTwvZGM6ZGF0ZQogICAgICAgID4KICAgICAgICA8ZGM6ZGVzY3JpcHRpb24KICAgICAgICAvPgogICAgICAgIDxkYzpzb3VyY2UKICAgICAgICAgID5odHRwczovL29wZW5jbGlwYXJ0Lm9yZy9kZXRhaWwvMTcxNDIyL3NlcnZlci0tLWxpbnV4LWJ5LWN5YmVyc2Nvb3R5LTE3MTQyMjwvZGM6c291cmNlCiAgICAgICAgPgogICAgICAgIDxkYzpjcmVhdG9yCiAgICAgICAgICA+CiAgICAgICAgICA8Y2M6QWdlbnQKICAgICAgICAgICAgPgogICAgICAgICAgICA8ZGM6dGl0bGUKICAgICAgICAgICAgICA+Y3liZXJzY29vdHk8L2RjOnRpdGxlCiAgICAgICAgICAgID4KICAgICAgICAgIDwvY2M6QWdlbnQKICAgICAgICAgID4KICAgICAgICA8L2RjOmNyZWF0b3IKICAgICAgICA+CiAgICAgICAgPGRjOnN1YmplY3QKICAgICAgICAgID4KICAgICAgICAgIDxyZGY6QmFnCiAgICAgICAgICAgID4KICAgICAgICAgICAgPHJkZjpsaQogICAgICAgICAgICAgID5jb21wdXRlcjwvcmRmOmxpCiAgICAgICAgICAgID4KICAgICAgICAgICAgPHJkZjpsaQogICAgICAgICAgICAgID5pbmZvcm1hdGlxdWU8L3JkZjpsaQogICAgICAgICAgICA+CiAgICAgICAgICAgIDxyZGY6bGkKICAgICAgICAgICAgICA+aXQ8L3JkZjpsaQogICAgICAgICAgICA+CiAgICAgICAgICAgIDxyZGY6bGkKICAgICAgICAgICAgICA+bGludXg8L3JkZjpsaQogICAgICAgICAgICA+CiAgICAgICAgICAgIDxyZGY6bGkKICAgICAgICAgICAgICA+b3JkaW5hdGV1cjwvcmRmOmxpCiAgICAgICAgICAgID4KICAgICAgICAgICAgPHJkZjpsaQogICAgICAgICAgICAgID5zZXJ2ZXI8L3JkZjpsaQogICAgICAgICAgICA+CiAgICAgICAgICAgIDxyZGY6bGkKICAgICAgICAgICAgICA+c2VydmV1cjwvcmRmOmxpCiAgICAgICAgICAgID4KICAgICAgICAgICAgPHJkZjpsaQogICAgICAgICAgICAgID50dXg8L3JkZjpsaQogICAgICAgICAgICA+CiAgICAgICAgICA8L3JkZjpCYWcKICAgICAgICAgID4KICAgICAgICA8L2RjOnN1YmplY3QKICAgICAgICA+CiAgICAgIDwvY2M6V29yawogICAgICA+CiAgICAgIDxjYzpMaWNlbnNlCiAgICAgICAgICByZGY6YWJvdXQ9Imh0dHA6Ly9jcmVhdGl2ZWNvbW1vbnMub3JnL2xpY2Vuc2VzL3B1YmxpY2RvbWFpbi8iCiAgICAgICAgPgogICAgICAgIDxjYzpwZXJtaXRzCiAgICAgICAgICAgIHJkZjpyZXNvdXJjZT0iaHR0cDovL2NyZWF0aXZlY29tbW9ucy5vcmcvbnMjUmVwcm9kdWN0aW9uIgogICAgICAgIC8+CiAgICAgICAgPGNjOnBlcm1pdHMKICAgICAgICAgICAgcmRmOnJlc291cmNlPSJodHRwOi8vY3JlYXRpdmVjb21tb25zLm9yZy9ucyNEaXN0cmlidXRpb24iCiAgICAgICAgLz4KICAgICAgICA8Y2M6cGVybWl0cwogICAgICAgICAgICByZGY6cmVzb3VyY2U9Imh0dHA6Ly9jcmVhdGl2ZWNvbW1vbnMub3JnL25zI0Rlcml2YXRpdmVXb3JrcyIKICAgICAgICAvPgogICAgICA8L2NjOkxpY2Vuc2UKICAgICAgPgogICAgPC9yZGY6UkRGCiAgICA+CiAgPC9tZXRhZGF0YQogID4KPC9zdmcKPgo=;" parent="1" vertex="1">
          <mxGeometry x="450" y="570" width="35.67" height="50" as="geometry" />
        </mxCell>
        <mxCell id="srdscHzhea0q-TOiqJzr-22" value="&lt;font size=&quot;1&quot;&gt;&lt;b style=&quot;font-size: 20px&quot;&gt;. . .&lt;/b&gt;&lt;/font&gt;" style="text;html=1;strokeColor=none;fillColor=none;align=center;verticalAlign=middle;whiteSpace=wrap;rounded=0;fontSize=14;fontColor=#333333;" parent="1" vertex="1">
          <mxGeometry x="500" y="585" width="40" height="20" as="geometry" />
        </mxCell>
        <mxCell id="srdscHzhea0q-TOiqJzr-23" value="compute nodes" style="text;html=1;strokeColor=none;fillColor=none;align=center;verticalAlign=middle;whiteSpace=wrap;rounded=0;fontSize=16;fontColor=#333333;fontStyle=1" parent="1" vertex="1">
          <mxGeometry x="330" y="543" width="130" height="20" as="geometry" />
        </mxCell>
        <mxCell id="srdscHzhea0q-TOiqJzr-25" value="&lt;b&gt;identity manager&lt;/b&gt;" style="verticalLabelPosition=bottom;aspect=fixed;html=1;verticalAlign=top;strokeColor=#666666;align=center;outlineConnect=0;shape=mxgraph.citrix.directory_server;fontSize=16;fillColor=#f5f5f5;fontColor=#333333;" parent="1" vertex="1">
          <mxGeometry x="60" y="455.75" width="65" height="88.5" as="geometry" />
        </mxCell>
        <mxCell id="srdscHzhea0q-TOiqJzr-27" value="&lt;font style=&quot;font-size: 15px&quot;&gt;&lt;b&gt;central storage&lt;/b&gt;&lt;/font&gt;" style="fontColor=#333333;verticalAlign=top;verticalLabelPosition=bottom;labelPosition=center;align=center;html=1;outlineConnect=0;fillColor=#f5f5f5;strokeColor=#666666;gradientDirection=north;strokeWidth=2;shape=mxgraph.networks.server_storage;" parent="1" vertex="1">
          <mxGeometry x="660" y="448" width="105" height="105" as="geometry" />
        </mxCell>
        <mxCell id="srdscHzhea0q-TOiqJzr-28" value="" style="shape=link;html=1;fontSize=16;fontColor=#333333;entryX=0;entryY=0.5;entryDx=0;entryDy=0;" parent="1" edge="1">
          <mxGeometry width="100" relative="1" as="geometry">
            <mxPoint x="30" y="209" as="sourcePoint" />
            <mxPoint x="708.5" y="209" as="targetPoint" />
          </mxGeometry>
        </mxCell>
        <mxCell id="srdscHzhea0q-TOiqJzr-29" value="" style="endArrow=classic;html=1;fontSize=16;fontColor=#333333;entryX=0.5;entryY=0;entryDx=0;entryDy=0;startArrow=classic;startFill=1;strokeWidth=2;exitX=0.5;exitY=1;exitDx=0;exitDy=0;exitPerimeter=0;" parent="1" source="cU6FKH_-cefeCYAxEgEE-1" target="srdscHzhea0q-TOiqJzr-15" edge="1">
          <mxGeometry width="50" height="50" relative="1" as="geometry">
            <mxPoint x="395" y="327.79999999999995" as="sourcePoint" />
            <mxPoint x="390" y="380" as="targetPoint" />
          </mxGeometry>
        </mxCell>
        <mxCell id="srdscHzhea0q-TOiqJzr-30" value="" style="endArrow=classic;html=1;fontSize=16;fontColor=#333333;entryX=0.5;entryY=0;entryDx=0;entryDy=0;exitX=0.5;exitY=1;exitDx=0;exitDy=0;startArrow=classic;startFill=1;strokeWidth=2;" parent="1" source="srdscHzhea0q-TOiqJzr-13" target="srdscHzhea0q-TOiqJzr-23" edge="1">
          <mxGeometry width="50" height="50" relative="1" as="geometry">
            <mxPoint x="410" y="410" as="sourcePoint" />
            <mxPoint x="460" y="360" as="targetPoint" />
          </mxGeometry>
        </mxCell>
        <mxCell id="srdscHzhea0q-TOiqJzr-31" value="" style="endArrow=none;html=1;fontSize=16;fontColor=#333333;exitX=0.5;exitY=0;exitDx=0;exitDy=0;exitPerimeter=0;edgeStyle=orthogonalEdgeStyle;rounded=0;strokeWidth=2;strokeColor=#CCCCCC;opacity=70;entryX=0.976;entryY=0.347;entryDx=0;entryDy=0;entryPerimeter=0;" parent="1" source="srdscHzhea0q-TOiqJzr-27" target="cU6FKH_-cefeCYAxEgEE-1" edge="1">
          <mxGeometry width="50" height="50" relative="1" as="geometry">
            <mxPoint x="410" y="410" as="sourcePoint" />
            <mxPoint x="417.79999999999995" y="300" as="targetPoint" />
            <Array as="points">
              <mxPoint x="713" y="293" />
              <mxPoint x="419" y="293" />
            </Array>
          </mxGeometry>
        </mxCell>
        <mxCell id="srdscHzhea0q-TOiqJzr-32" value="" style="endArrow=none;html=1;fontSize=16;fontColor=#333333;entryX=0;entryY=0.5;entryDx=0;entryDy=0;entryPerimeter=0;exitX=1;exitY=0.5;exitDx=0;exitDy=0;edgeStyle=orthogonalEdgeStyle;rounded=0;strokeWidth=2;strokeColor=#CCCCCC;opacity=70;" parent="1" source="srdscHzhea0q-TOiqJzr-13" target="srdscHzhea0q-TOiqJzr-27" edge="1">
          <mxGeometry width="50" height="50" relative="1" as="geometry">
            <mxPoint x="410" y="410" as="sourcePoint" />
            <mxPoint x="460" y="360" as="targetPoint" />
            <Array as="points">
              <mxPoint x="610" y="444" />
              <mxPoint x="610" y="501" />
            </Array>
          </mxGeometry>
        </mxCell>
        <mxCell id="srdscHzhea0q-TOiqJzr-35" value="DCCN network" style="text;html=1;strokeColor=none;fillColor=none;align=left;verticalAlign=middle;whiteSpace=wrap;rounded=0;fontSize=16;fontColor=#333333;fontStyle=1" parent="1" vertex="1">
          <mxGeometry x="40" y="228" width="140" height="20" as="geometry" />
        </mxCell>
        <mxCell id="srdscHzhea0q-TOiqJzr-36" value="&lt;font style=&quot;font-size: 16px&quot;&gt;Internet (edurom, home, etc.)&lt;/font&gt;" style="text;html=1;strokeColor=none;fillColor=none;align=left;verticalAlign=middle;whiteSpace=wrap;rounded=0;fontSize=18;fontColor=#333333;fontStyle=1" parent="1" vertex="1">
          <mxGeometry x="40" y="169" width="260" height="20" as="geometry" />
        </mxCell>
        <mxCell id="srdscHzhea0q-TOiqJzr-41" value="" style="endArrow=none;html=1;strokeColor=#CCCCCC;strokeWidth=2;fontSize=16;fontColor=#333333;entryX=0;entryY=0.5;entryDx=0;entryDy=0;edgeStyle=orthogonalEdgeStyle;rounded=0;opacity=70;" parent="1" source="srdscHzhea0q-TOiqJzr-25" target="srdscHzhea0q-TOiqJzr-13" edge="1">
          <mxGeometry width="50" height="50" relative="1" as="geometry">
            <mxPoint x="410" y="410" as="sourcePoint" />
            <mxPoint x="460" y="360" as="targetPoint" />
            <Array as="points">
              <mxPoint x="190" y="500" />
              <mxPoint x="190" y="444" />
            </Array>
          </mxGeometry>
        </mxCell>
        <mxCell id="srdscHzhea0q-TOiqJzr-42" value="" style="endArrow=none;html=1;strokeColor=#CCCCCC;strokeWidth=2;fontSize=16;fontColor=#333333;exitX=0;exitY=0.5;exitDx=0;exitDy=0;edgeStyle=orthogonalEdgeStyle;rounded=0;opacity=70;" parent="1" source="srdscHzhea0q-TOiqJzr-16" target="srdscHzhea0q-TOiqJzr-25" edge="1">
          <mxGeometry width="50" height="50" relative="1" as="geometry">
            <mxPoint x="410" y="410" as="sourcePoint" />
            <mxPoint x="460" y="360" as="targetPoint" />
            <Array as="points">
              <mxPoint x="190" y="585" />
              <mxPoint x="190" y="500" />
            </Array>
          </mxGeometry>
        </mxCell>
        <mxCell id="srdscHzhea0q-TOiqJzr-43" value="SSH / VNC" style="text;html=1;strokeColor=none;fillColor=none;align=right;verticalAlign=middle;whiteSpace=wrap;rounded=0;fontSize=14;fontColor=#333333;" parent="1" vertex="1">
          <mxGeometry x="288.00000000000006" y="360" width="100" height="20" as="geometry" />
        </mxCell>
        <mxCell id="srdscHzhea0q-TOiqJzr-44" value="job submission" style="text;html=1;strokeColor=none;fillColor=none;align=right;verticalAlign=middle;whiteSpace=wrap;rounded=0;fontSize=14;fontColor=#333333;" parent="1" vertex="1">
          <mxGeometry x="288" y="507" width="100" height="20" as="geometry" />
        </mxCell>
        <mxCell id="srdscHzhea0q-TOiqJzr-99" value="" style="group" parent="1" vertex="1" connectable="0">
          <mxGeometry x="487" y="192" width="40" height="30" as="geometry" />
        </mxCell>
        <mxCell id="srdscHzhea0q-TOiqJzr-97" value="" style="rounded=0;whiteSpace=wrap;html=1;strokeWidth=2;fontSize=16;fontColor=#333333;align=left;strokeColor=none;" parent="srdscHzhea0q-TOiqJzr-99" vertex="1">
          <mxGeometry width="40" height="30" as="geometry" />
        </mxCell>
        <mxCell id="srdscHzhea0q-TOiqJzr-95" value="" style="shape=mxgraph.signs.travel.tunnel;html=1;fillColor=#000000;strokeColor=none;verticalLabelPosition=bottom;verticalAlign=top;align=center;fontSize=16;fontColor=#333333;" parent="srdscHzhea0q-TOiqJzr-99" vertex="1">
          <mxGeometry x="5" width="30" height="30" as="geometry" />
        </mxCell>
        <mxCell id="srdscHzhea0q-TOiqJzr-102" value="" style="endArrow=classic;startArrow=none;html=1;strokeColor=#000000;strokeWidth=2;fontSize=16;fontColor=#333333;entryX=0.92;entryY=0.5;entryDx=0;entryDy=0;entryPerimeter=0;exitX=0.5;exitY=0;exitDx=0;exitDy=0;exitPerimeter=0;edgeStyle=orthogonalEdgeStyle;curved=1;endFill=1;startFill=0;" parent="1" source="srdscHzhea0q-TOiqJzr-95" target="srdscHzhea0q-TOiqJzr-1" edge="1">
          <mxGeometry width="50" height="50" relative="1" as="geometry">
            <mxPoint x="410" y="400" as="sourcePoint" />
            <mxPoint x="460" y="350" as="targetPoint" />
            <Array as="points">
              <mxPoint x="507" y="105" />
            </Array>
          </mxGeometry>
        </mxCell>
        <mxCell id="srdscHzhea0q-TOiqJzr-103" value="" style="endArrow=none;html=1;strokeColor=#000000;strokeWidth=2;fontSize=16;fontColor=#333333;entryX=0.5;entryY=1;entryDx=0;entryDy=0;entryPerimeter=0;endFill=0;startArrow=classic;startFill=1;edgeStyle=orthogonalEdgeStyle;curved=1;" parent="1" target="srdscHzhea0q-TOiqJzr-95" edge="1">
          <mxGeometry width="50" height="50" relative="1" as="geometry">
            <mxPoint x="460" y="401" as="sourcePoint" />
            <mxPoint x="460" y="350" as="targetPoint" />
            <Array as="points">
              <mxPoint x="460" y="360" />
              <mxPoint x="507" y="360" />
            </Array>
          </mxGeometry>
        </mxCell>
        <mxCell id="srdscHzhea0q-TOiqJzr-104" value="&lt;b&gt;eduVPN&lt;/b&gt;" style="text;html=1;strokeColor=none;fillColor=none;align=center;verticalAlign=middle;whiteSpace=wrap;rounded=0;fontSize=16;fontColor=#333333;" parent="1" vertex="1">
          <mxGeometry x="467" y="172" width="163" height="20" as="geometry" />
        </mxCell>
        <mxCell id="srdscHzhea0q-TOiqJzr-105" value="SSH / VNC" style="text;html=1;strokeColor=none;fillColor=none;align=center;verticalAlign=middle;whiteSpace=wrap;rounded=0;fontSize=14;fontColor=#333333;" parent="1" vertex="1">
          <mxGeometry x="500" y="120" width="94.33" height="20" as="geometry" />
        </mxCell>
        <mxCell id="srdscHzhea0q-TOiqJzr-109" value="&lt;font color=&quot;#000000&quot;&gt;HPC cluster&lt;/font&gt;" style="text;html=1;strokeColor=none;fillColor=none;align=center;verticalAlign=middle;whiteSpace=wrap;rounded=0;fontSize=16;opacity=50;fontStyle=1;fontColor=#97D077;" parent="1" vertex="1">
          <mxGeometry x="337.4" y="668" width="126.8" height="20" as="geometry" />
        </mxCell>
        <mxCell id="cU6FKH_-cefeCYAxEgEE-1" value="&lt;font style=&quot;font-size: 14px&quot;&gt;desktop&lt;/font&gt;" style="verticalLabelPosition=top;html=1;verticalAlign=bottom;align=center;strokeColor=none;fillColor=#00BEF2;shape=mxgraph.azure.computer;pointerEvents=1;labelPosition=center;" parent="1" vertex="1">
          <mxGeometry x="370" y="270" width="50" height="45" as="geometry" />
        </mxCell>
        <mxCell id="cU6FKH_-cefeCYAxEgEE-4" value="" style="group" parent="1" vertex="1" connectable="0">
          <mxGeometry x="700" y="182" width="52" height="47" as="geometry" />
        </mxCell>
        <mxCell id="cU6FKH_-cefeCYAxEgEE-3" value="" style="rounded=0;whiteSpace=wrap;html=1;strokeColor=none;" parent="cU6FKH_-cefeCYAxEgEE-4" vertex="1">
          <mxGeometry width="52" height="47" as="geometry" />
        </mxCell>
        <mxCell id="cU6FKH_-cefeCYAxEgEE-2" value="&lt;font style=&quot;font-size: 14px&quot;&gt;firewall&lt;/font&gt;" style="outlineConnect=0;fontColor=#232F3E;gradientColor=none;fillColor=#232F3E;strokeColor=none;dashed=0;verticalLabelPosition=bottom;verticalAlign=top;align=center;html=1;fontSize=12;fontStyle=0;aspect=fixed;pointerEvents=1;shape=mxgraph.aws4.generic_firewall;" parent="cU6FKH_-cefeCYAxEgEE-4" vertex="1">
          <mxGeometry x="2" y="2.2299999999999898" width="47" height="39.77" as="geometry" />
        </mxCell>
      </root>
    </mxGraphModel>
  </diagram>
</mxfile>
